<?xml version="1.0" standalone="no"?>
<!DOCTYPE svg PUBLIC "-//W3C//DTD SVG 1.1//EN" "http://www.w3.org/Graphics/SVG/1.1/DTD/svg11.dtd" >
<svg xmlns="http://www.w3.org/2000/svg" xmlns:xlink="http://www.w3.org/1999/xlink" version="1.1">
<metadata></metadata>
<defs>
<font id="copystructnormal" horiz-adv-x="1515" >
<font-face units-per-em="2048" ascent="1638" descent="-410" />
<missing-glyph horiz-adv-x="731" />
<glyph horiz-adv-x="0" />
<glyph unicode="&#xd;" horiz-adv-x="731" />
<glyph unicode=" "  horiz-adv-x="731" />
<glyph unicode="&#x09;" horiz-adv-x="731" />
<glyph unicode="&#xa0;" horiz-adv-x="731" />
<glyph unicode="!" horiz-adv-x="604" d="M35 1255q0 -8 -21 -20l-2 18q0 14 6 15q17 -1 17 -13zM14 1221q4 -2 4 -11q0 -14 -18 -45q0 18 -2 37q2 27 16 19zM473 1499q2 -57 -14 -180l-27 -29v43q-49 -4 -49 -10q2 -2 6 -4h-14q6 -6 7 -27.5t7 -27.5h43q2 -16 -8 -27.5t-6 -30.5h26q2 -12 15 -41q4 -23 4 -45 q0 -92 -101 -178v-27q16 0 56 -14q-2 -18 -2 -41q0 -31 6 -92t6 -92q0 -45 -10 -80l-43 -29q0 -10 2 -12t12 -2q8 2 14 0q-6 -55 -28 -180q16 0 16 -56q0 -55 -16 -55q4 -23 14 -98v-27q-18 -10 -18 -20q0 -4 4 -8q-74 -8 -111 -15q-18 37 -41 99q4 74 -14 221q29 18 55 43 q-4 6 -19.5 7t-21.5 7l-43 96q0 16 15.5 62.5t13.5 77.5q-18 59 -43 153q-6 45 14 334q-29 12 -26 12q-2 27 -2 80q0 55 2 33v47q0 23 -29 23q4 14 14 14q23 -2 27 0q-4 49 -12 166q16 18 41 41q10 2 16 2q10 0 23.5 -8.5t29.5 -6.5q4 0 55.5 20.5t69.5 20.5q23 0 84 -14 q-2 -16 -4 -55v-62q2 -26 4 -8zM18 1116q0 -14 -18 -35q0 -2 -2 27q0 18 8 18q4 0 8 -2t4 -8zM29 1069q0 -41 -6 -121q-8 -94 -9 -102q0 39 6 121q9 94 9 102zM47 809q0 -6 -18 -18l-2 16q0 12 6 12q4 0 9 -2t5 -8zM47 739q0 -12 -18 -32q0 2 -2 14t0 20q0 8 6 9 q14 -1 14 -11zM61 670q0 -8 -20 -19v19q0 10 6 10q14 0 14 -10zM201 489q0 -8 -21 -18v16q0 12 6 13q15 -1 15 -11zM47 614q0 -12 -18 -32q0 2 -2 14t0 20q0 8 6 9q14 -1 14 -11zM195 358q-16 0 -17 35q0 39 17 35v-70zM186 324q0 -8 -20 -21v19q0 12 6 12q14 0 14 -10z M70 387q6 -2 6 -10q0 -16 -21 -45q0 18 -2 37q3 26 17 18zM223 -72q-18 0 -18 56q0 55 18 55v-111zM432 -127q0 -37 4 -95.5t4 -78.5q0 -55 -22 -80q-29 -29 -103 -29q-29 0 -65 4q-35 4 -55 0q-10 74 -29 236q-47 6 -68 14h111l-2 27q0 10 16 14v-26q70 24 209 14zM14 10 q4 -2 4 -10q0 -14 -18 -45q0 18 -2 37q2 26 16 18zM29 -141q-18 0 -19 37q0 37 19 32q0 1 0 -69zM250 1499l2 21q0 8 -16 8zM305 1096q0 2 2 20q2 8 -14 8z" />
<glyph unicode="&#x22;" horiz-adv-x="602" d="M463 1673q-12 0 -12 39q0 37 12 37v-76zM453 1655q4 -2 4 -13q0 -18 -13 -55q1 72 9 68zM254 1778q4 -2 4 -4q0 -6 -14 -15v15q0 8 10 4zM150 1769q4 -2 4 -4q0 -6 -15 -16v16q1 8 11 4zM434 1522q-6 -2 -28 0v-58q0 -31 -19 -39q12 -12 19 -28q-8 -4 -87 -8 q16 -4 -36 -11q-8 8 -21 19q-4 14 -4 35q0 23 7 73.5t7 73.5q6 2 20.5 9t37.5 9q-2 6 -29 29q8 29 39 76q10 2 29 10l47 -18q0 -84 -10 -162q10 0 28 -10zM172 1726q0 -6 -14 -14v12q-2 8 2 9q12 -1 12 -7zM244 1694q0 -27 -4 -76q-4 -55 -7 -21q0 16 5.5 55.5t5.5 41.5z M150 1397l-78 -29q-18 8 -58 21q0 47 -4 110q-4 80 -4 109q43 25 43 26q0 12 -35 21q-2 10 1 29.5t-1 27.5q6 0 42 9.5t44 9.5q16 -2 50 -9q-23 -182 0 -325z" />
<glyph unicode="#" horiz-adv-x="706" d="M477 958q16 -2 19 -6q-4 -2 -25 -4q4 10 6 10zM504 922q6 -4 -6 -19v12q0 9 6 7zM487 883q6 0 -6 -17q-8 17 6 17zM494 866q6 -4 -7 -35q1 37 7 35zM360 954q8 -4 -6 -12v10q0 4 6 2zM442 870q8 -2 -4 -16q0 20 4 16zM557 723l2 -4l-6 2v16q-8 6 -4 6q14 -6 16 -12 q-4 -2 -6 -4t-2 -4zM311 903q-20 -2 -20 4t14 8q10 -2 19 -4q-1 -4 -13 -8zM477 711q6 -4 -6 -17q0 19 6 17zM471 682q8 -4 -6 -10v8q2 2 6 2zM465 649q8 -4 -6 -33v21q2 14 6 12zM459 606q8 -4 -4 -12q0 14 4 12zM549 766q-33 -8 -68 -18q-53 -14 -65 -11q0 6 -13 13 q14 -6 0 -56q-4 -2 -4 -55q8 2 -6 16v-12q0 -45 6 -72q12 2 33 0q0 -12 23 -10q18 10 26 6v-16q-4 2 -4 -19q4 0 25.5 -5t23.5 -5h-39q2 -10 -6 -22q-20 6 -59 6l-12 -12h-23q2 -2 -4 -11v9q-2 6 -6 2l-6 -93q-4 0 -6.5 1t0.5 -1q2 0 -5 -6q0 6 2 8q0 -12 -2 -57 q0 -20 -6 -57q-4 -4 -8 -8.5t-8 -8.5q0 -2 1 -9t-1 -11h-72q2 4 -6 10q6 53 23 172l10 10v45l-2 -15t-2 -23l-13 49q-39 -2 -74.5 -8.5t-39.5 -47.5q4 -14 4 -43q0 -2 -7 -25.5t-9 -29.5h-7q0 -29 -4 -84q-4 -4 -12 -10q-20 -8 -27 10q-8 -2 -28 6q-20 16 0 127l14 76 q0 35 -86 29q14 25 14 28q0 8 -14 17q2 14 0 16q59 -4 94 6q18 80 29 154q-2 2 -6 22q-29 -2 -84 7q-4 8 -17 16v45q61 0 101 -12q4 10 26 49q-2 27 0 78l13 12q12 53 10 66h55v12q-37 -6 -39 -6q-2 16 6 61h66q-2 -27 -10 -94l-11 -12q-2 -6 0.5 -21.5t-0.5 -21.5l-12 -7 q-2 -12 6 -104h39v33q8 -31 17 -33h45q-2 25 0 27q6 -10 4 -17l12 10q4 12 10 23q-12 4 -10 16q4 20 4 23q-4 25 -4 33q4 -2 4 -23q6 8 12 29h17l-17 26q-6 4 7 23h10q-12 8 6 68q8 2 19.5 3t19.5 1q-6 4 -19 6v12q35 -8 37 -10q4 -6 -2 -35h4q0 -14 -4 -33q-2 -2 -1 -12 l1 -10q-2 -2 -16 0l-6 -23q23 0 22 0q-4 -29 -8 -39q-4 -16 -20 -26v-6q16 -8 16 -56q68 -6 90 -6q-2 -10 -12 -39q4 0 6 12h16q-2 -25 0 -22q9 2 23 0zM442 494q8 -2 -4 -33q0 37 4 33zM438 451q6 -4 -6 -23q0 25 6 23zM371 334h33h-33zM276 434q8 -4 -4 -22q0 24 4 22z M221 483q8 -4 -4 -32q0 34 4 32zM272 401q6 -4 -6 -39q0 41 6 39zM211 422q8 -4 -6 -33q0 37 6 33zM211 362q8 -4 -6 -12v10q0 4 6 2zM227 346q6 -2 4 -6t-10 -6q4 12 6 12zM416 1032q4 2 10 2q-2 6 -10 8v-10zM399 662q-4 10 -6 10zM315 643q-4 53 0 94q-49 6 -94 6 q-6 -6 -16 -22q12 -6 12 -10q-2 -2 -18 0q-4 -29 -11 -78q-6 -72 29 -72q12 0 43 10q2 -2 6 -10t6 -10h11q2 4 5 11t5 9h12l-6 52h12q-6 2 -6 32q8 -6 10 -12zM84 772q-4 10 -6 10zM61 782q6 12 -16 11q6 -1 16 -11zM250 678q8 -4 -6 -39q0 41 6 39zM244 606q-8 0 -6 15 q0 14 6 12q-2 -7 0 -27zM238 594q8 -4 -5 -10q1 12 5 10z" />
<glyph unicode="$" horiz-adv-x="1101" d="M682 1108q6 -2 6 -6q0 -8 -16 -17v19q0 10 10 4zM596 1053q-14 0 -12 28q0 31 12 27v-55zM596 815q4 -2 4 -6q0 -10 -14 -27q0 39 10 33zM975 209q4 -2 4 -12q0 -20 -14 -64q0 82 10 76zM965 305q-6 -27 -23 -86q-12 -51 -43 -131q-20 -14 -53 -43q-6 -25 -33 -65 q-14 -4 -33 -11q-10 -18 -43 -53q-57 -37 -174 -66q-2 -6 -11 -13t-9 -9q-6 -14 10 -76q-27 -4 -23 -43l23 -20q-4 -18 -6 -19q-2 0 -4 6q-14 -57 0 -63q-12 0 -35 -2t-31 -2q-59 0 -55 100q0 4 6 51t6 68l-196 66q-113 39 -172 86q-2 18 -13 45q-8 6 -28.5 7t-24.5 13 q2 14 0 33q33 29 76 86q12 14 33 45q49 -25 141 -88q4 -14 10 -33q31 -14 90 -14q102 4 84 4q4 33 4 72q0 33 -4 102.5t-4 103.5q0 43 4 80q0 6 9.5 26.5t9.5 35.5q0 18 -9 34q-14 33 -88 58q-94 35 -106 41q-109 68 -152 184l-22 10q-10 29 0 76q0 45 0 33q0 2 -12 6l-11 4 q-27 78 13 207q12 43 76.5 136t95.5 114q12 8 114 33q78 18 88 57q-4 37 4 115l33 32q76 -10 76 -47q0 -8 -3 -26.5t-3 -28.5q0 -33 26 -59q20 -20 66 -29q61 -10 76 -16q18 -20 55 -43q10 -2 22.5 6t18.5 8t12 -2l33 -55q18 -4 53 -21q-6 -25 -30 -76q-23 -29 -66 -88 q-158 74 -201 74q-47 0 -59 -41q-6 -18 -6 -41t6 -67t6 -64q0 -27 -6 -45q-10 -2 -33 -10v-23q2 2 4 2q12 0 15 -72q2 -78 4 -81q6 -18 51 -33q33 -10 68 -21q0 -10 0 27q0 12 10 16q-2 -18 0 -53q6 -14 42 -25.5t44 -18.5t15 -31.5t16.5 -32t27.5 -3.5q20 4 29 3 q2 -12 10 -33q18 -4 43 -23q-2 -18 0 -53q18 -25 43 -66q6 -23 5 -66.5t2.5 -61t15.5 -13.5zM971 39q0 -6 -17 -14v14q-2 8 4 8q13 0 13 -8zM942 -8q4 -2 4 -8q0 -8 -14 -25q0 -4 0 23q0 14 10 10zM303 575q4 -2 4 -8q0 -12 -14 -35q0 49 10 43zM662 -258q4 -2 4 -6 q0 -12 -17 -37v29q1 20 13 14zM662 -377q4 -2 4 -6q0 -8 -17 -27v23q1 16 13 10zM573 -301q4 -2 5 -6q0 -10 -15 -27q0 -4 0 23q0 16 10 10zM444 1237h-43q-27 -18 -65 -43q-6 -2 -21.5 0t-21.5 0q4 -57 0 -53q-37 -143 -37 -156q0 -45 47 -115.5t86 -70.5q57 0 57 221 q0 240 -2 217zM705 143q41 55 40 156q0 131 -63 180q-23 16 -55 25q-53 14 -64 18q-2 -6 -11 -13t-9 -9q-10 -31 -11 -64q0 -29 10.5 -76t10.5 -65q0 23 -23 -109v-86q12 -4 13 -6q-2 -10 0 -16l30 -10v32q0 18 13 21l10 -43q46 20 109 65zM662 252q4 -2 4 -10 q0 -18 -17 -56v41q1 29 13 25zM590 279q0 -6 -17 -17v14q-2 10 5 11q12 0 12 -8zM586 164q-14 0 -15 29q2 31 15 26v-55z" />
<glyph unicode="%" horiz-adv-x="1277" d="M1077 1260q0 -10 -18 -21l-2 18q0 12 6 13q14 0 14 -10zM1030 1198q-12 -2 -14 4t3 14.5t11 10.5q16 4 17 -2q-1 -9 -17 -27zM940 956q0 -8 -18 -18l-2 16q-2 12 6 13q14 -1 14 -11zM844 971q0 -10 -19 -21l-2 19q0 12 6 12q15 0 15 -10zM618 1116q6 -2 7 -14 q0 -23 -21 -68v51q0 37 14 31zM858 793q0 -8 -20 -21q0 -2 0 19q0 12 6 12q14 0 14 -10zM610 971q0 -10 -18 -21l-2 19q0 12 6 12q14 0 14 -10zM831 725q0 -10 -20 -20l-2 18q0 12 6 12q16 0 16 -10zM508 1419q12 -49 12 -106q0 -94 -31 -195q-27 -90 -64.5 -141t-74.5 -66 q-27 -10 -117 -14v-29q-14 0 -14 9q2 16 0 20q-20 -2 -67 0q-23 4 -75 46t-63 63q-27 59 -26 313q0 123 12 154q25 18 55 55v41q8 10 34 10t34 4q27 23 70 55q88 2 96 0l41 -41q20 2 69 -14q14 -8 17 -29q2 -27 10 -38q37 -36 82 -97zM496 1034q6 -2 6 -14q0 -23 -21 -70 q1 92 15 84zM598 874q0 -8 -20 -20l-3 18q0 14 7 15q16 -1 16 -13zM1126 1597q-4 -8 -19 -9t-20.5 -5t-5.5 -8q0 -8 19 -19q-8 -4 -10 -16q-2 -20 -5 -24q-68 0 -67 0l41 -84h-15q-31 -66 -96 -220q0 -2 -13 -7t-13 -7q4 -23 0 -68q-31 -25 -70 -69q0 -23 -14 -68l-27 -14 q-4 -14 6 -32.5t8 -22.5q-23 -12 -55 -41q2 -20 0 -56q-25 -20 -55 -55q-6 -37 -27 -110l-29 -13q-8 -39 -41 -125q-23 -23 -55 -67q-10 -20 -13 -56t-13 -55l-56 -41q2 -20 0 -55q-18 -37 -55 -111h-27q2 -20 0 -53q-25 -25 -55 -70q4 -20 0 -55q-43 -55 -96 -137 q4 -14 0 -41q-27 -20 -55 -55q4 -23 0 -56q-18 -29 -62.5 -38t-89.5 -17q2 8 -7 24.5t-9 30.5q0 6 2 15q20 4 43 14v55q39 8 96 27q4 16 27 41q-10 23 -13 22q-23 4 -28 7v53q18 27 41 69q-4 25 0 68q4 12 34.5 43t34.5 41q0 33 12 96q10 20 49 63.5t48 59.5q4 10 2 35 q-4 25 -2 35q23 25 55 67q20 70 82 207q18 8 41 27q8 27 29 84h26q-2 18 0 53q6 18 50 85t46 81q-2 16 0 41q6 10 36 21.5t34 19.5t55 151q2 16 -7 26.5t-9 16.5t2 13q20 10 41 26q-4 23 0 70q31 37 70 96q2 4 12 76q6 35 43 47q20 6 67 4q74 -4 70 -4zM356 758 q12 0 -12 -13q59 4 85 7.5t11 5.5h-84zM666 393q0 -8 -21 -18v16q0 12 6 12q15 0 15 -10zM1155 -66q-51 -10 -55 -14q-4 -20 0 -55l41 -12q-41 -127 -49.5 -139.5t-102.5 -82.5q-10 -20 -26 -41q-25 -6 -72 -2q-55 4 -80 2q-4 23 -27 56q-12 6 -61 16q-37 6 -48 22.5 t-12 52.5t-4 46l-26 27q-18 72 -19 170q0 127 31 188q8 16 42 43t42 39q-2 16 12 41q16 10 50 10t47 4q6 12 28 27q41 4 97 -13q41 -14 81 -28q-2 -18 15 -55q6 -6 34.5 -19.5t32.5 -34.5q-2 -20 0 -55l29 -14q4 -31 -1 -86.5t1 -92.5zM543 160q0 -8 -21 -21l-2 19 q0 12 6 12q17 0 17 -10zM440 -39l-14 -27q0 2 -13.5 14.5t-13.5 18.5t13 8q14 2 19 -4t9 -10zM377 -61q0 -8 -21 -19v19q0 10 6 10q15 0 15 -10zM303 1487q14 -4 14 8q0 27 -28 33q6 -18 14 -41zM371 1350q0 6 -26 39.5t-30 42.5v28q-16 14 -49 19q-47 4 -59 8 q-49 -76 -62 -133q-8 -37 -8 -142q-4 4 -17.5 -8t-13.5 -24q0 -4 5 -9q20 -18 41 -96q31 -29 90 -28q59 0 88 28q23 96 14 41h12q2 16 -6 60q-8 51 -8 75q0 16 2 31q0 2 14.5 27t12.5 41zM1018 57q-16 -16 -14 -41h-15q-10 88 -26 152q4 0 -64 4q-41 2 -61 -4 q-80 -23 -80 -211q0 -166 67 -201q20 -10 52 -10q43 -2 57 -4q31 35 70 96q12 43 14 107v112zM233 -94l-14 -41q41 6 41 29q0 14 -27 12zM219 1143q6 -2 6 -15q0 -23 -18 -67q0 -4 -2 31q-2 27 0 38q4 19 14 13zM811 -53q-16 0 -16 55t16 55q0 1 0 -110z" />
<glyph unicode="&#x26;" horiz-adv-x="1927" d="M1870 -369q-20 -4 -41 -14q-6 -2 -12 -2q-8 0 -17.5 9t-25.5 7q-4 0 -23.5 -12t-32.5 -14q-2 2 -26 41q-20 4 -43 -6.5t-29 -10.5q-25 0 -59 54q-41 68 -50 73q-33 18 -96 68q-45 -43 -137 -111q-31 -6 -96 -26q-12 -20 -41 -41q-16 -4 -58.5 8t-64.5 6q-16 -6 0 -43 q-8 -2 -12 -2q-8 0 -13.5 9t-15.5 7q-4 0 -40 -20.5t-44 -20.5q-33 -4 -66 9q-23 10 -43 18q-35 -4 -96 0q-33 25 -84 55q-18 -4 -55 0q-2 18 -12 41q-70 16 -152 43q29 45 21 45q-2 -2 -7 -4v27q-119 98 -137 178q4 33 0 96q-12 25 -14 41l-29 15l2 -17q0 -14 -6 -14l-8 4 q0 39 12 123l29 29q-4 33 0 96q23 35 55 96q0 23 12 68q14 23 62.5 57.5t62.5 52.5q8 25 41 68q23 14 62 24q53 14 61 17q-10 51 -55 151q-23 16 -53 56q-8 23 -7.5 68.5t-7.5 68.5q0 2 -20.5 14t-20.5 14q-4 27 9 52q10 14 18 30q-10 6 0 70q6 -4 10 -4q2 0 2 2q0 4 -26 29 h28q8 47 41 137q33 51 142 121q119 72 188 71q6 0 42 -13t40 -13q55 6 151 0l56 -56q8 -14 10 -47q0 -25 16 -36q29 6 70 14q86 -131 96 -316q-2 0 -13 8.5t-13 6.5q10 -20 41 -43q4 -20 0 -68q-6 -29 -43 -59q-45 -39 -54 -51q2 -20 0 -56q-4 -10 -24 -16q-27 -6 -31 -10 q-16 -31 -55 -82q-39 -14 -97 -56q-8 -10 -8 -32q0 -12 -6 -23q16 -8 41 -28q14 -39 55 -123l29 -15q4 -16 -14 -53q12 -12 48 -17t51 -13.5t24.5 -42t13.5 -38.5q14 2 41 0q20 -8 53 -63q23 -37 43 -74h55q0 20 15 68q10 18 54 60t56 65q4 29 0 41q10 23 27 55q76 0 96 -4 q41 -10 68 -51q16 -25 16 -78q0 -80 -28 -129q-8 -14 -48 -33.5t-47.5 -32t-3.5 -37.5t2 -34q-16 -27 -41 -70l-4 12q-6 0 2 -69.5t15 -79.5q18 2 43 0q16 -6 90 -123q59 -97 88 -152zM399 897q-16 0 -16 55q0 53 16 54v-109zM219 1034q6 -2 6 -8q0 -12 -18 -33q0 2 -1 17.5 t1 19.5q2 8 12 4zM225 889q0 -8 -18 -21l-2 19q0 12 6 12q14 0 14 -10zM238 834q0 -12 -19 -33q0 -2 -2 24q0 18 8 19q13 0 13 -10zM322 668q0 -6 -19 -19l-2 17q0 12 6 12q4 0 9.5 -2t5.5 -8zM225 297q0 -8 -18 -18l-2 16q0 12 6 12q14 0 14 -10zM88 434q0 -8 -18 -18 l-2 16q0 12 6 12q14 0 14 -10zM207 195q-16 0 -17 34q0 39 17 35q0 1 0 -69zM41 332q6 -2 6 -10q0 -14 -20 -43v34q0 25 14 19zM238 104q0 -12 -19 -32q0 -2 -2 24q0 18 8 19q13 -1 13 -11zM18 227q0 -12 -18 -32q0 -2 -2 26q0 16 8 17q12 -1 12 -11zM55 43q-16 0 -16 35 q0 39 16 35v-70zM1114 1157q8 8 -26.5 91t-43.5 87v15q-10 8 -81.5 26.5t-96.5 14.5q-20 -16 -55 -41q-63 -39 -66 -41q-37 -29 -45 -55.5t-8 -55.5q0 -96 76 -186q70 -82 125 -74l29 27q135 55 163 110q-2 20 0 55q13 13 29 27zM1237 2q4 25 0 70l-14 14q-18 14 -68 82 q-25 -33 -29 -29q4 23 0 56q-6 18 -47 45.5t-49 38.5q-2 20 -12 53q-12 18 -49 44.5t-47 39.5q-4 4 -56 92q-39 61 -69 72q-14 4 -68 0q-10 0 -111 -56v-26q-78 -74 -104 -115q-51 -78 -51 -172q0 -29 4 -57l29 -68q-4 -25 0 -70q2 -6 18 -8t23 -6q8 -23 26 -55q16 2 41 0 v-27q25 -4 84 -26q117 -59 189 -60q27 0 57 4q115 19 303 164zM887 1026q0 -8 -21 -20q0 -2 0 18q0 12 6 12q15 0 15 -10zM995 256q0 -8 -18 -20l-2 18q0 12 6 12q14 0 14 -10zM748 434q0 -8 -19 -18v18q-2 10 4 10q15 0 15 -10zM1100 86q4 -2 4 -8q0 -14 -19 -35 q0 14 -2 31q3 18 17 12zM1120 8q0 -8 -20 -18v16q0 12 6 12q14 0 14 -10zM797 98q6 -2 6 -8q0 -12 -19 -33q0 -2 -2 19q-2 12 0 18q5 10 15 4z" />
<glyph unicode="'" horiz-adv-x="479" d="M307 1348q-18 -4 -33.5 6t-27.5 6q-2 -8 0 -35h-35v-12q-29 6 -61 12q0 104 24 217q23 0 72 10v25q-6 4 -47 -12q-4 51 -37 121q43 33 61 36q14 4 45 -2q20 -6 39 -10q4 -63 -12 -180h-49v-25q23 -31 45 -61q6 -14 16 -96zM66 1421q-10 -2 -13 4q-2 4 2 10.5t11 8.5 q23 4 22 -2q0 -4 -10 -12.5t-12 -8.5zM53 1444q-10 4 -22 8q-18 8 -19 12q2 4 19 4q16 0 18 -2q0 -2 -2 -10q0 -8 6 -12zM119 1341q0 -10 -17 -28l-2 20q0 16 6 17q4 0 8.5 -2.5t4.5 -6.5zM-2 1415q0 -8 -16 -18v16q-2 10 4 10q12 0 12 -8zM199 1360v18q2 6 -13 6z" />
<glyph unicode="(" horiz-adv-x="606" d="M522 1311q0 -12 -16 -31l-2 23q0 16 6 16q4 0 8 -2t4 -6zM481 1231q4 -2 4 -8q0 -10 -16 -29q-2 -8 -2 27q0 16 14 10zM401 940q0 -6 -18 -16l-2 16q0 10 6 10q14 0 14 -10zM387 891q0 -6 -16 -17l-2 17q0 10 6 10q4 0 8 -2t4 -8zM309 823q20 4 31 4q20 0 -43 -41 q-4 12 -8 27.5t-2 24.5q0 12 10 10q6 -11 12 -25zM346 737q-45 -6 -45 8q0 8 12.5 18.5t20.5 10.5q4 -12 12 -37zM289 780q0 -8 -17 -18q0 27 4 26q13 0 13 -8zM358 737q4 -2 4 -12q0 -20 -16 -61q0 79 12 73zM346 578q4 -2 4 -9q0 -10 -16 -28q0 -2 -2 16q-2 12 1 18.5 t13 2.5zM469 -410q-27 -10 -86 0v13q-4 2 -57.5 72.5t-53.5 74.5q4 18 0 49h-26l-74 113q-6 23 -2 57q4 35 2 41q-27 27 -61 74q4 20 0 61q-23 25 -50 62q-4 14 -10 117q0 12 -2 17t-20.5 23.5t-16.5 41.5l14 14q13 14 11 35q-2 14 -37 49q-4 4 12 37q12 -2 17 -2v0 q-12 2 -13 6q2 4 9 8q2 25 -7.5 89.5t-5.5 107.5q12 6 25 12l-10 20q-6 12 -2 29q18 10 36 25q2 25 -13 52t-11 60q0 6 74 111q-6 20 -13 61q2 33 47 144q41 102 64 141q43 53 125 160q33 -16 37 -13v62q16 10 37 24q2 -2 61 -12q-6 -31 -25 -86q-16 -8 -36 -24 q8 -12 12 -50l-25 -24q-6 -18 -24 -64h-25q16 0 16 -22q0 -27 -20 -78q-16 -43 -20 -47q-10 -6 -31 -6t-31 -6q-4 -10 0 -37l37 -25q-10 -86 -51 -221l-21 12q-12 6 -28 0q2 -2 12 -37h37v-37h14q4 -16 4 -32q0 -33 -20.5 -74t-22.5 -55q-8 -68 12 -258q16 -49 13 -62 q0 -2 -16.5 -23.5t-20.5 -27.5q10 -4 51 -25q-12 -23 -39 -73q23 -12 51 -37q2 -6 4 -10q0 -6 -9 -12.5t-7 -14.5q0 -2 18.5 -12.5t18.5 -12.5q8 -25 7 -75t5 -72q16 -25 37 -61q18 -74 49 -199q-12 -6 -20 -12.5t-17 -24.5q66 -2 80 -18q2 -5 31 -93zM346 492q4 -2 4 -9 q0 -10 -16 -28q0 -2 -2 16q-2 12 1 18.5t13 2.5zM346 418q4 -2 4 -8q0 -10 -16 -29q0 -2 -2 16q-2 12 1 18.5t13 2.5zM350 311q0 -8 -16 -18q0 2 -2 16q0 10 6 10q12 0 12 -8zM389 164q0 -8 -18 -19l-2 17q0 10 6 10q14 0 14 -8zM395 121q4 -2 4 -8q0 -10 -16 -29 q-2 -8 -2 27q0 16 14 10zM438 -20q0 -8 -18 -19l-2 16q0 10 6 11q14 0 14 -8zM444 -51q4 -2 5 -8q0 -10 -17 -29q-2 -6 -2 25q0 18 14 12zM457 -150h12q-4 -2 -15.5 -6t-21.5 -8q2 12 5 26.5t20 12.5v-25zM172 1022q6 -2 6 -6t-31 -6q4 -8 13 -37q45 14 45 28q0 13 -33 21z M221 874q0 2 2 19q-8 4 -14 6q-29 -4 -29 -14q0 -13 41 -11z" />
<glyph unicode=")" horiz-adv-x="698" d="M545 797q0 -6 -19 -17v17q-2 10 4 10q15 0 15 -10zM575 731q4 -2 5 -8q0 -10 -17 -29v27q0 16 12 10zM582 541q0 -8 -19 -19q2 2 0 17q0 10 6 10q2 0 7.5 -2t5.5 -6zM479 510q-2 -18 -29.5 -69.5t-31.5 -65.5q-8 -35 -6 -110t-6 -111q-23 -29 -50 -72q0 -27 -12 -86 q-6 -20 -37 -58t-37 -53q2 -18 0 -49q-16 -8 -37 -24q-35 -59 -67 -119q-41 -66 -92 -90v-13q-25 2 -74 0q-2 29 12 86q16 8 37 25q0 29 12 86q16 6 37 25q12 20 25 73q6 49 24 160q23 43 50 109q-4 31 0 86l24 12q-4 20 0 61q4 8 18.5 8.5t21.5 6.5t7 12q0 8 -22 16 q-12 2 -25 6q2 47 10 142q10 86 11 135q0 53 -9 104q16 0 17 9q0 4 -8.5 11t-8.5 5q14 84 13 98q-10 6 -25 13q0 74 0 73h-12q2 29 0 86q-16 39 -37 97q6 27 12 36v13q-2 4 -24 24q4 31 0 86q-23 20 -49 49q-6 16 -7.5 50t-5.5 49h-24q-4 12 -1 37.5t1 36.5q-12 20 -25 40 q-23 41 -22 62q0 20 22 20q37 2 49.5 -19.5t24.5 -41.5q45 -41 88 -82q53 -55 72 -102q2 -6 2 -11q0 -6 -9.5 -15t-5.5 -24q0 -2 17.5 -11t19.5 -13q4 -20 12 -49q10 -4 25 -13q-2 -18 -6 -18q-4 2 -6 6l-13 -37l37 -12v-25q0 -23 13 -71q18 -8 37 -25q2 -8 0 -92 q0 -51 36 -80q-33 -49 -24 -74q2 -8 24.5 -19t24.5 -17q4 -12 4 -27q0 -18 -8 -50t-8 -46l24 -37v-25q2 -24 0 -98zM526 264q-14 0 -14 33q2 33 14 29v-62zM332 412q-16 14 -49 37q0 -2 -5.5 -26t-7.5 -36q6 -2 13 -6v-19h36q2 4 8.5 20.5t8.5 25.5z" />
<glyph unicode="*" horiz-adv-x="618" d="M342 1542q-6 31 0 27t10 -15q2 -12 -10 -12zM221 1634q4 -2 4 -10q0 -16 -14 -55q0 69 10 65zM156 1634q4 -2 4 -8q0 -16 -15 -47q1 61 11 55zM164 1561q4 -2 4 -7q0 -6 -12 -12q0 23 8 19zM98 1532q4 -2 4 -6t-12 -13q0 -2 0 15q0 8 8 4zM43 1561q0 -16 -8 -39 q-6 -2 -6 6q-2 8 3 19.5t11 13.5zM481 1188q-59 18 -84 18l-37 -18q-4 0 -24.5 4t-32.5 6v-29q0 -8 -9 -43.5t-9 -54.5q0 -23 10 -33q-14 -2 -66 -18q-39 86 -28 158q-20 6 -74 20v27q-14 -2 -47 0q23 -41 22 -37q0 -8 -22 -19q-39 -18 -37 -18q-10 8 -10 14q0 4 10 4 q-4 0 -4 2q0 4 22 7q-14 14 -36 20l-9 -10v29q25 -12 27 -11q2 2 0 29q14 8 42 23.5t42 21.5v29q12 16 29 47q-12 8 -37 26q-2 6 -2 23q2 16 6 16q2 -2 4 -10q43 0 94 10q-18 51 -18 78q0 43 55 88h27l10 -65q33 -8 33 -17q0 -6 -33 -10q2 -66 8 -113l19 19q6 -6 20 -19 q-2 14 0 39q6 14 47 34t64 11q4 -8 18 -18q-14 -31 -47 -92q-6 4 -10 8q-8 4 -17 0q-8 -14 -28 -37q4 -20 18 -65q14 -2 29 -9q-2 -12 0 -28q4 -2 8 -2q6 0 18.5 4t20.5 4q10 0 18 -6q12 -8 0 -37zM61 1448q2 -10 2 -23q-4 -29 -10 -34t-10 -5q-10 0 0 27q8 27 18 35z M14 1364q-4 20 4 20q4 0 7 -2q25 -39 24 -51q0 -4 -4 -4q-6 0 -17.5 8.5t-13.5 28.5zM406 1374q8 10 8 19q0 12 -27 8q-6 0 -6 -4q0 -7 25 -23z" />
<glyph unicode="+" horiz-adv-x="1359" d="M662 1004q12 -6 -9 -37q1 41 9 37zM569 1014q-12 0 -12 24q2 25 12 21v-45zM672 911q10 -6 -10 -26v18q0 14 10 8zM578 995q12 -6 -9 -28q1 32 9 28zM672 801q-12 0 -13 24q2 25 13 21v-45zM569 903q-12 0 -12 25q2 25 12 20v-45zM1264 782q2 6 2 -18q0 -12 -13 -10 q6 -88 -34 -88q-8 0 -36 3t-48 3t-46 -9.5t-30 -9.5q-29 -6 -88 -4q-98 4 -97 4q-8 -8 -18 -20q-14 -41 -10 -131q4 -106 0 -137h10l-10 -46l10 -18q-2 -4 -15.5 -24.5t-13.5 -22.5l-26 -18q-57 -8 -68 24q-4 43 -6 86q6 100 -10 297q-20 0 -41 2q-4 0 -14 -57v65 q-39 8 -103 19q-33 4 -74 -6q-29 -6 -55 -13q-39 -4 -74 4q-49 14 -55 15q-4 4 18 26l9 29q35 4 55 8h-74q0 49 0 37h-45q78 16 148 10q29 -2 79 4.5t68 6.5q16 0 29 -2l14 -11q14 -10 33 -8v19q63 10 65 10q27 8 35 37q2 8 -8 65q10 12 10 27q0 10 -10 10v231h18 q2 10 -4 21.5t-6 15.5q14 0 47 4q27 4 37 5h19q2 -12 8 -46l20 -10q2 -18 -6 -37q-14 -25 -14 -26q-2 -16 4 -45t6 -31q-2 -2 -2 -88q0 -88 2 -125q41 -18 121 -27l8 -28q12 0 14 9t5 19q53 -14 110 -14q25 0 150 14zM578 838q4 -2 4 -7q0 -4 -13 -12q0 -2 -2 15q7 2 11 4z M578 569q-10 0 -11 37q0 37 11 37v-74zM672 559q0 29 -10 -176q0 -19 10 176zM569 504q4 -2 4 -8q0 -16 -14 -47v34q2 25 10 21zM272 735q12 -6 -8 -18q0 22 8 18zM578 430q4 -2 4 -10q0 -16 -13 -45q1 59 9 55zM809 838q-4 2 -3 10t-15 8v-18h18zM459 698q27 8 53 17 q-8 2 -53 12v-29zM422 735l-10 -45q29 8 28 23q0 8 -8 16t-10 6zM375 690q-6 2 -4 10.5t-15 8.5v-19h19z" />
<glyph unicode="," horiz-adv-x="419" d="M145 328q6 -2 7 -6q0 -6 -15 -15q0 25 8 21zM137 268q12 0 13 -4q0 -2 -23 -14v14q-2 4 10 4zM264 55h-31q-2 -4 -28 -69q-25 2 -68 -9q-2 -2 -31 -59q-12 4 -28 10q6 12 28 39l-28 10v107q25 4 49 10q8 14 8 43q2 41 2 45q-27 8 -39 19q37 0 117 -11q6 12 29 39 q8 -31 20 -106q-37 12 -39 10v-20h29q0 -21 10 -58zM59 211q6 -4 7 -6q0 -8 -56 -4v-49q-14 43 -10 59q16 10 39 29q2 -2 0 -29h20zM117 35q8 -2 14 -2q14 0 14 10q0 25 -28 31v-39z" />
<glyph unicode="-" d="M1362 864q4 -2 4 -6q0 -10 -14 -24v20q0 14 10 10zM1219 915q-27 29 0 21q6 0 10 -6t2 -12q-2 -5 -12 -3zM1065 956q35 -2 -12 -2q-39 -2 -90 0q-53 2 -31 2q88 4 133 0zM768 946q4 -2 6 -6q0 -6 -16 -14v16t10 4zM1300 649q-88 -2 -133 0h-563q2 14 -4 25.5t-6 15.5 q14 16 31 41q-18 29 -62 82q20 12 41 31q47 2 123 0q8 0 53 -15.5t60 -15.5q16 10 61 21q68 -2 164 0v-21q23 -2 85 4t89 6q4 -8 12.5 -17t34.5 -50q31 -49 31 -78q-1 -21 -17 -29zM1157 813h-31l11 -41q16 4 17 16.5t3 24.5z" />
<glyph unicode="." horiz-adv-x="757" d="M606 -27q-41 -10 -84 -20q-49 -10 -71 -6q-10 4 -39 24q-35 27 -35 41q0 10 22 13q39 4 76 -9q51 -18 53 -18q72 27 78 27v-52zM606 -362q-49 -39 -102 -78q-23 -4 -53 -4q-63 0 -193 22q-158 29 -195 33q37 10 103 27q-20 16 -78 51q23 39 47 78q29 49 31 77 q0 -4 -14.5 43t-14.5 80q0 18 4 31q37 23 78 53q25 -20 25 -53q0 -31 -25 -51q-10 0 37 4q31 2 39 -4q-53 -37 -53 -47q0 -4 2 -4q59 -20 170.5 -27.5t165.5 -24.5q12 -106 26 -206zM37 -104q-31 -6 -51 -52q-35 -6 -35 13q0 33 86 116q0 1 0 -77zM12 -233q-29 -6 -28 14 q0 29 28 37q12 4 21 4q12 0 12 -8q0 -14 -33 -47zM244 -209q-12 8 -13 19q0 4 2.5 11t2.5 9q0 14 -43 14v-53h51z" />
<glyph unicode="/" horiz-adv-x="987" d="M571 1430q27 -2 29 -5q0 -2 -55 0q-51 2 -15 5h41zM627 1290q-16 0 -17 56q0 55 17 55v-111zM494 1366q0 -8 -21 -20v18q0 12 6 12q15 0 15 -10zM606 1212q0 -8 -20 -20l-2 18q0 12 6 13q16 -1 16 -11zM459 1290q6 -2 6 -8q0 -12 -19 -33q0 2 -1 17.5t1 19.5q3 8 13 4z M549 1059q0 -10 -19 -21l-2 19q0 12 7 12q14 0 14 -10zM432 1067q-27 -6 -26 4q0 18 26 25v-29zM383 1032q0 -8 -21 -20l-2 18q0 10 7 10q16 0 16 -8zM362 983q4 -2 5 -10q0 -14 -19 -45q0 18 -2 37q2 26 16 18zM459 803q-16 0 -17 37q0 37 17 32q0 1 0 -69zM891 1458 q-18 -8 -41 -28q-6 -16 -2 -56q6 -41 2 -55q-25 -27 -55 -70q-10 -31 -14.5 -85t-14.5 -83q-6 -18 -42 -67t-42 -72q-4 -18 0 -57t0 -56q-6 -35 -55 -108.5t-56 -99.5q-4 -16 5.5 -27.5t9.5 -28.5q-16 -57 -43 -139l-27 -14q4 -18 0 -56q-37 -31 -43 -41q2 -23 0 -69 q-4 -12 -27.5 -56.5t-27.5 -56.5q4 -20 0 -55q-27 -12 -56 -29q-2 -6 -2 -12t10.5 -27.5t6.5 -42.5q-20 -18 -43 -43q4 -33 0 -96q-18 -18 -41 -43q-4 -16 0 -49t0 -47q-4 -10 -35 -28.5t-35 -29.5q2 -18 0 -41q-18 4 -43 0q2 10 29 29l-14 41q6 2 6 4q0 6 -47 10 q0 -2 -6.5 -22.5t-8.5 -20.5t-14 -26h-55q2 2 0 41h55q-2 25 -2 53q0 152 72 350q6 12 14 43h29q-2 25 0 70q18 23 41 55q14 39 22 96q10 68 18 99q2 6 21.5 29.5t21.5 27.5l-28 41h28q10 47 27 111q25 14 57 43q-12 10 -16 61q-2 45 2 49q4 10 27 -14q8 25 13 75t15 78 q25 23 56 56q12 35 18 96q8 92 10 100q29 10 84 27q-14 35 -43 57l15 27q23 41 32 102q16 98 23 121l29 29q-4 25 0 69q20 16 41 41h139q0 4 4 -92q4 -57 -4 -88zM244 614q0 -8 -21 -20l-2 16q0 12 6 13q17 -1 17 -9zM340 461q0 -10 -21 -21v19q0 12 7 12q4 0 9 -3t5 -7z M215 545q0 -8 -20 -21l-2 17q0 12 6 12q16 0 16 -8zM180 469q6 -2 6 -12q0 -16 -18 -45q0 -4 -2 22q0 18 2 28.5t12 6.5zM285 307q0 -8 -21 -20l-2 18q0 12 6 12q17 0 17 -10zM160 362q0 -8 -21 -20q0 -2 0 18q0 12 6 13q15 -1 15 -11zM258 238q0 -10 -20 -21l-2 19 q0 12 6 12q16 0 16 -10zM201 84q0 -12 -21 -35q0 -2 -2 27q0 18 8 18q15 0 15 -10zM76 154q0 -12 -21 -33q0 -2 -2 24q0 18 8 19q15 0 15 -10zM158 -14q0 -12 -19 -33q0 -2 -2 24q0 18 8 19q13 0 13 -10zM61 84q0 -12 -20 -35q0 -2 -2 27q0 18 8 18q14 0 14 -10zM18 -29 q0 -12 -18 -32q0 -2 -2 24q0 18 8 19q12 -1 12 -11zM14 -145q-8 -2 -14 -2q-12 0 -12 10q0 29 26 35q14 4 15 -9q-1 -14 -15 -34zM418 272q18 16 18 25q0 6 -18 4q-4 12 -15 55h-26q0 2 -15 -69q6 2 22 -8.5t34 -6.5z" />
<glyph unicode="0" horiz-adv-x="1458" d="M1325 874q6 -2 6 -16q0 -25 -20 -80q0 104 14 96zM1337 752q0 -18 -3 -68.5t-5 -73.5q-2 -29 -4 4q0 23 6 78.5t6 59.5zM1337 395q0 -20 -3 -72.5t-5 -76.5q-2 -31 -4 0q0 27 6 85t6 64zM1331 182q0 -8 -20 -18v18q0 10 6 11q14 -1 14 -11zM1325 96q4 -2 4 -8 q0 -10 -18 -33q0 14 -2 29q2 18 16 12zM1331 -23q0 -8 -20 -18l-2 18q0 10 6 11q16 -1 16 -11zM1147 82q-2 -18 -23.5 -88t-31.5 -90l-136 -164q-20 4 -55 0q-6 -4 -8 -25.5t-6 -27.5q-23 -12 -53 -29q2 -18 4 -18t8 6v-15q-12 -6 -25 -6q-10 0 -31.5 5t-37.5 5 q-14 0 -29 -4v-14h-68q-2 -2 -14 -27q-20 -4 -39 -4q-43 0 -94 19q-35 14 -72 26q-23 6 -53 7h-10q-35 0 -60 8l-12 26q-12 8 -33.5 8.5t-37 7.5t-78 70.5t-70.5 77.5q-4 33 -27 96l-28 13q-18 55 -19 118q0 20 4 93q4 61 2 104q-14 274 -14 791q0 12 14 41q-8 20 -14 55 l27 27q6 27 8 83q2 41 20 68q25 14 54 41q8 12 13 41t16.5 42t53 27.5t54.5 24.5q16 37 55 82q18 6 61 2q45 -6 62 -2q12 6 41 14v27q16 2 31 2q31 0 52 -14.5t30 -14.5q20 0 77 41q14 -8 123 -96q14 -4 35 2q29 6 39 6q18 0 35 -8q6 -2 8 -19.5t6 -21.5q10 -10 72 -49 q47 -31 65 -59q4 -31 27 -82q25 -6 55 -27q16 -35 15 -96q-2 -98 -2 -109q6 -82 2 -239q-4 -166 -2 -226q0 -14 10 -98q8 -72 8 -117q0 -33 -4 -57l-27 -70q-4 -35 12.5 -96t14.5 -94zM1303 -104q0 -8 -19 -19l-2 19q0 10 6 10q15 0 15 -10zM928 1419q0 4 2 23q2 6 -15 6z M915 969v28q-2 8 -15 9.5t-26 3.5q-31 164 -81 239q-72 106 -211 107q-59 0 -131 -19q-6 -12 -15 -26q-39 -23 -79 -45.5t-56 -63.5q-43 -109 -43 -405q0 -182 14 -387q-6 -90 0 -273q10 -76 29 -123l27 -14q-8 -39 -15 -82q14 -10 25 -10q6 0 24.5 7t32.5 3q23 -18 56 -41 q45 -10 118 -10q78 -2 113 10q16 6 39 31l31 37q16 4 41 14q25 25 56.5 125t31.5 178q0 31 -7 51q-12 14 -28 41q-2 27 12 117q14 102 16 117q2 31 3 65q0 39 -4.5 113t-4.5 111q0 51 6 92h-55q65 4 96 0zM670 682q-16 0 -17 55q0 55 17 56v-111zM477 901q6 -2 6 -10 q0 -16 -18 -45q0 -2 -2 22q-2 18 0 27q4 12 14 6zM662 662q0 -8 -21 -21l-2 18q0 12 6 13q17 0 17 -10zM670 506q-2 -33 -4 -35q-2 111 4 143v-108zM655 436q0 -154 -12 -153q-2 2 -2 18q-2 25 6 78t8 57zM465 451q-16 0 -16 32q0 39 16 35q0 1 0 -67zM455 416 q0 -12 -19 -33q0 -2 -2 25q0 18 8 18q13 0 13 -10zM670 246q0 -35 -6 -105q-8 -84 -9 -86q0 35 7 105q8 84 8 86zM688 -23q0 -8 -18 -18l-2 18q0 10 6 11q14 -1 14 -11zM465 68q-16 0 -16 34q0 39 16 35q0 1 0 -69zM457 33q0 -8 -21 -19v17q0 12 6 12q15 0 15 -10zM469 -23 q0 -12 -18 -32q0 -2 -2 26q0 16 8 17q12 -1 12 -11zM483 -76q0 -8 -18 -20l-2 18q-2 12 6 12q14 0 14 -10z" />
<glyph unicode="1" horiz-adv-x="884" d="M332 1638q25 -2 24 -2q-27 -2 -39 -2q-35 2 -63.5 3t-3.5 1h82zM41 1266q-10 2 -41 0q0 35 6 104q8 84 8 88v-180q8 -2 21 0q4 2 6 -12zM254 979q0 -12 -18 -33q0 -2 -3 25q0 18 9 18q12 0 12 -10zM240 911q0 -14 -19 -34q0 -2 -2 26q0 18 8 19q4 0 8.5 -2.5t4.5 -8.5z M719 -78q4 -61 -19.5 -160.5t-21.5 -142.5q-29 -2 -109 -18q-66 -12 -86 -11q-2 0 -24.5 13.5t-30.5 15.5q0 1247 14 1632q-12 2 -17 13.5t-9 13.5q-129 -49 -148 -72q-33 -41 -32 -190q-14 172 -15 151q-35 -6 -82 -26q0 23 -6 89t-6 101q0 55 12 86l303 221q12 2 31 2 q33 0 129 -10q90 -8 117 -6q-4 -57 2 -168q6 -141 6 -201q0 -88 -8 -170q-2 -12 -14 -67q-12 -47 -13 -72q0 -29 10 -164q8 -119 5 -182q0 -8 -10.5 -45t-10.5 -63q0 -23 6 -43l27 -29q4 -53 -8 -174q-18 -158 -19 -172q-2 -39 10 -88q17 -56 17 -64zM236 586q-2 -23 -3 -35 q-2 31 0 72q2 80 3 75v-112zM240 496q0 -12 -19 -33q0 -2 -2 24q0 18 8 19q13 0 13 -10zM221 434q6 -2 6 -14q0 -20 -20 -68v51q0 37 14 31zM236 324q0 -41 -7 -119q-8 -92 -8 -103q0 41 6 121q9 93 9 101zM457 1071q-2 4 0 21q2 6 -15 6z" />
<glyph unicode="2" horiz-adv-x="1499" d="M1397 1210q6 -2 6 -12q0 -16 -19 -45q0 -4 -2 23q0 18 2.5 28t12.5 6zM1397 987q-16 0 -17 37q0 37 17 33v-70zM1190 1030q-16 0 -16 55t16 56v-111zM547 1243q0 -8 -21 -20l-2 18q0 12 6 12q17 0 17 -10zM518 1147q0 -8 -20 -21l-2 19q0 12 6 12q4 0 10 -3t6 -7z M1397 143q6 -2 6 -14q0 -23 -19 -68q1 90 13 82zM1065 186q27 -2 29 -4q-59 2 -70 4h41zM1163 -174q8 -25 8 -55q0 12 -22 -152q-186 -43 -430 -14q-39 -6 -111 -15q23 2 -41 15q6 0 -25.5 -8.5t-43.5 -6.5q-141 14 -498 15q0 25 -5 86t-5 94q0 49 10 82q49 53 111 125 q14 29 55 82q8 8 70 43v41q33 45 69 96q14 2 41 14q12 10 23 39q12 37 18 45q25 14 55 41q2 20 15 56q20 6 55 26q6 29 29 70q16 0 41 14q6 25 26 70q27 10 70 41q6 8 6 25.5t8 29.5h27q4 23 14 55q6 8 20.5 9.5t20.5 5.5q66 92 111 166q10 43 10 83q0 135 -121 234 q-96 78 -209 78q-35 0 -67 -8l-15 -27q-94 -37 -139 -98q-39 -51 -68 -166q-109 0 -276 14q33 244 184 399q164 170 412 168q100 -2 207 -41q25 -25 69 -55q27 6 68 0q4 -2 -4 -16l-8 -13q33 -29 96 -96q152 -190 139 -319l-28 -41q12 -47 14 -152q-14 -92 -98 -192 q-68 -76 -138 -154q-10 -31 -41 -84h-28l-111 -123q-14 -41 -41 -98q-27 -10 -69 -41q-20 -49 -70 -125q-18 0 -41 -14q4 -27 0 -82q-14 2 -14 14q0 29 0 27q-16 -2 -41 -15q-12 -23 -19.5 -61.5t-21.5 -60.5q-16 -6 -43 -29q70 4 221 -6q178 -12 233 -13q41 0 72 5l29 28 q16 2 40.5 -13t26.5 -15h140q14 -11 28 -27zM913 186q27 -2 27 -4q-57 2 -68 4h41zM829 227q-4 -2 -6 -29.5t-10 -27.5q-4 0 -4 6q0 37 20 51zM872 -23h-360q25 12 12 17q-12 2 -22 0q12 -2 24 -2q22 -1 346 -15z" />
<glyph unicode="3" horiz-adv-x="1536" d="M1430 924q6 -2 6 -11q0 -16 -21 -45q0 18 -2 37q3 27 17 19zM1415 772q-16 0 -16 37t16 33v-70zM1200 834q0 -12 -18 -33q0 -2 -2 24q0 18 8 19q12 0 12 -10zM1421 338q0 -8 -18 -19l-2 17q0 12 6 12q14 0 14 -10zM1434 283q0 -12 -19 -33q0 -2 -2 24q0 18 8 19 q13 0 13 -10zM1430 98q-16 0 -17 56q0 55 17 55v-111zM715 909q-31 0 -94.5 6.5t-42.5 8.5q6 -1 137 -15zM1223 195q-16 0 -17 36q0 37 17 33q0 1 0 -69zM1167 31l-26 -15q-49 -127 -60 -147q-35 -68 -92 -113q29 -2 29 -6q-2 -4 -14 -8q-23 4 -56 0q-31 -39 -110 -96 q-33 -12 -80 -17q-53 -4 -84 -12l-29 -27q-102 -16 -233 15q-23 20 -56 41q-25 -4 -67 0q-8 16 -27 41q-27 8 -84 41q-27 25 -55 55q4 14 0 41q-23 12 -53 41q-8 10 -8.5 33.5t-6.5 35.5h-28q-8 35 -27 152q31 2 96 12q100 25 166 15q6 -37 12 -41q55 -49 70 -97 q-2 -18 0 -41q23 2 55 0q14 -25 41 -55q23 -12 133 -12q115 -2 156 12q8 2 18.5 26.5t22.5 28.5q23 -4 55 0q-2 23 0 56q4 10 33 36.5t35 45.5q12 39 12 86q0 100 -51 198.5t-113 126.5q-88 41 -274 41q-2 6 0 21q2 4 -14 8q2 63 14 192q12 12 29 27q6 2 14 2q37 0 53 -16 q104 -2 210 72.5t106 224.5q0 88 -44 163.5t-120 104.5q-57 23 -142 23q-135 0 -188 -52q-6 -18 -29 -55q-18 -10 -41 -27q4 -25 0 -69q0 -2 -13 -6t-13 -7l-27 -28q-6 -2 -125 0q-133 2 -133 59q0 31 37 107q14 6 29 14q39 104 85 160.5t134 113.5q113 72 192 82 q33 4 84 -7t94 -7q61 16 70 14l27 -26q156 -61 274 -201q141 -164 141 -350q0 -27 -4 -56.5t-28.5 -110.5t-38.5 -108q-6 -12 -57.5 -45.5t-53.5 -35.5q-8 -10 -7 -35t-5 -35q49 -57 100 -115q61 -72 78 -133q8 -29 10 -98q4 -80 -10 -80q0 -8 8 -59.5t8 -81.5q0 -21 -4 -37 zM543 78q0 -8 -21 -21l-2 19q0 12 8 12q4 0 9.5 -3t5.5 -7z" />
<glyph unicode="4" horiz-adv-x="1499" d="M504 1409q0 -8 -21 -20v18q0 12 6 12q15 0 15 -10zM449 1298q0 -8 -21 -20v18q-2 12 6 13q15 -1 15 -11zM879 676q0 -8 -21 -21l-2 19q0 14 6 14q17 0 17 -12zM899 463q-16 0 -16 55t16 55q0 1 0 -110zM1397 -78q-12 -4 -27 -26q-39 -4 -139 -29q0 -61 -10 -148 q-14 -106 -17 -129q-43 10 -123 11q-92 0 -127 4q25 188 0 248q-2 8 -19 13t-22 15q-291 14 -637 15v-15q-33 4 -94 -2q-53 -4 -71 2q-4 12 -27 27v235q2 2 27 15q2 16 -7 42l-8 27l70 41q8 14 8 43t6 41q23 23 56 68q0 27 14 84q8 16 42 49t40 46t2 36q-4 25 -2 35 q6 25 41 73t43 66q8 43 41 137q41 55 96 166q-4 20 0 55q6 16 34.5 43t35 41.5t5.5 47t9 49.5q31 18 70 55q-2 23 0 70q10 39 39.5 95t56.5 70h14q16 4 50 -12t46 -16q70 2 181 0q-37 -66 -80 -166q-63 -158 -74 -178q-18 -16 -41 -43q-18 -63 -70 -193l-26 -14 q-14 -23 -23 -60q-10 -45 -18 -65l-29 -14q-25 -61 -55 -222q-10 -2 -27 43q-160 -307 -223 -471q16 -2 50 -8l34 -6h-84q14 -20 27 -41q20 -29 71 -29l41 29q12 2 25 2q18 0 46 -8t40 -8v28h14v-28q6 0 53 -13q35 -6 60 -6q20 0 37.5 4t33 28t23.5 28q0 2 0 -25 q0 -18 6 -18q27 0 27 28q0 4 -4 21q-2 14 0 22h26v193h-26q4 4 26 14q-12 141 15 305q23 -2 53.5 -8t42.5 -6q35 2 139 29q10 -162 0 -236q-4 -27 -4 -51q0 -35 15.5 -117t15.5 -151q8 -4 29 -13l14 -28q14 -6 47 -4q53 4 49 4q9 -78 27 -236zM692 643q0 -158 -12 -158 q-2 2 -2 19q0 6 14 139zM213 801q0 -8 -18 -21l-2 19q0 12 6 12q14 0 14 -10zM14 408q6 -2 6 -15q0 -23 -20 -69q0 92 14 84z" />
<glyph unicode="5" horiz-adv-x="1497" d="M1337 1583q27 -2 29 -4q0 -2 -55 0q-53 2 -17 4h43zM1378 1460q-16 0 -16 56q0 53 16 53v-109zM1323 1350q-29 0 -94.5 6t-42.5 6t78 -6t59 -6zM1382 817q0 -12 -18 -33q0 -2 -2 25q0 18 8 18q12 0 12 -10zM1391 756q6 -2 6 -8q0 -12 -19 -33q0 4 -1 18.5t1 20.5 q3 8 13 2zM762 1313q0 -12 -19 -33q0 -2 -2 25q0 18 9 18q12 0 12 -10zM979 1087q27 -2 29 -4q0 -2 -56 0q-51 4 -16 4h43zM743 1184q-16 0 -16 35q0 39 16 34q0 1 0 -69zM1397 528q0 -10 -19 -20l-2 18q0 12 6 13q15 -1 15 -11zM750 1106q0 -12 -19 -33q0 2 -2 14t0 21 q0 8 6 8q15 0 15 -10zM1391 440q6 -2 6 -14q0 -23 -19 -70q0 -4 -2 31q-2 27 1.5 42t13.5 11zM1186 647q0 -20 -3 -73.5t-7 -77.5q-2 -33 -5 0q1 -15 15 151zM551 1114q-16 0 -16 55t16 56v-111zM1143 53q-31 -94 -41 -119q-29 -74 -55 -114q-70 -104 -203 -167t-285 -63 q-135 0 -256 52q-14 16 -41 41q-119 80 -174 155q-66 94 -88 244q12 4 27 27q16 2 47.5 8t36.5 6l55 -27q10 0 44 13.5t38 13.5q31 -43 69 -111q-4 -16 0 -41q12 -2 41 -14q16 -29 56 -68q66 -31 153 -30q145 0 217 71v41q23 16 56 56q12 31 16 75q2 29 0 78q-2 53 -2 68 q8 147 8 149q0 94 -78 195q-16 25 -35.5 50.5t-46.5 31.5q-23 -4 -69 0q-20 10 -43 18q-35 16 -62 17q-18 0 -32 -7q-8 -20 -27 -43q-14 -6 -42 -5t-44 -9t-45 -62.5t-49 -60.5q-37 -14 -84 -14q-84 0 -178 43q6 4 6 8q0 8 -19 19q-6 23 9 53q18 39 18 43q6 49 6 104 t-14 197q-12 123 -6 194q14 176 28 291q-6 23 -10 23q-4 -2 -4 -10v28v123q49 0 126 -13.5t95 -13.5q25 0 97.5 20.5t95.5 20.5q4 0 36.5 -12t45.5 -14q-8 0 18.5 7t36.5 5q70 -8 143 -8q39 0 174 6q113 6 193 2q4 -37 0 -96q4 -27 7 -68t7 -69l-41 -15q49 -23 41 -26 q-55 -23 -235 -23q-55 0 -172 2t-170 2q-215 0 -235.5 -37t-14.5 -161q4 -150 0 -183q8 -4 28 -43q25 -2 68 0q2 2 14.5 22.5t14.5 20.5q41 8 123 27v96q6 -31 14 -96q41 4 76 4q115 0 268 -59v-27q10 -6 33.5 -5t36.5 -9l-15 -27q129 -100 162 -236q23 -92 18 -344 q1 -26 13 -221zM764 348q0 -8 -21 -18v18q0 10 7 10q14 0 14 -10zM530 377q0 -8 -20 -21q0 -2 0 19q0 12 6 12q14 0 14 -10zM543 322q0 -8 -19 -21l-2 18q-2 12 6 13q15 0 15 -10z" />
<glyph unicode="6" horiz-adv-x="1441" d="M1143 1290q6 -2 6 -10q0 -16 -21 -45q0 18 -2 37q3 26 17 18zM1309 440q6 -2 6 -8q0 -12 -19 -33q0 2 -1 17.5t1 19.5q3 8 13 4zM758 934q0 -10 -19 -21l-2 19q0 12 6 12q15 0 15 -10zM1329 362q0 -8 -20 -20v18q0 12 6 13q14 -1 14 -11zM1329 223q0 -8 -20 -20v18 q0 12 6 12q14 0 14 -10zM1343 166q0 -12 -20 -33q0 -2 -2 27q0 18 8 18q14 0 14 -12zM1288 -27q0 -8 -20 -20l-2 18q-2 12 6 13q16 -1 16 -11zM1143 260q0 -8 -14.5 -40t-14.5 -58q4 -20 10 -39q8 -39 4 -60q-18 -27 -41 -69q-2 -6 -2 -12t8.5 -16.5t6.5 -26.5 q0 -6 -20.5 -29t-20.5 -27q4 -20 0 -55q-23 -14 -55 -43q-6 -18 -15 -27q35 0 35 -8q0 -10 -23 -10q-10 0 -28 8l-25 10q4 -20 0 -57q-4 -8 -20.5 -8t-22.5 -4q-51 -41 -153 -99q-57 -16 -148 -16q-141 0 -242 31q-20 -4 -55 0q-10 16 -28 41q-139 106 -189 180 q-63 96 -90 280q-6 47 -6 89q0 63 47 245q-2 31 14 84q25 8 56 27q10 18 10 51t4 47.5t27.5 38t27.5 31.5q10 20 15.5 50t13.5 48q12 4 29 12q0 29 12 84l29 15q4 12 6 45q2 10 8 24q25 20 55 56q12 25 19.5 76t21.5 77q31 25 70 70q-2 20 0 55q16 25 43 70h41 q-14 10 -15 33q0 39 45 118l54 86q88 -8 252 -41q-6 -43 -29 -127q-33 -82 -166 -329q-109 -203 -154 -353h111l14 -28q27 -4 67 2t54 6q29 0 60 -8q18 -18 43 -41q27 2 82 -14v-27q39 -23 53 -45q14 -35 30 -68q25 -23 56 -69q6 -14 2 -41q-4 -33 -2 -43q2 -12 26 -70 q19 -47 17 -82zM1204 -125q0 -8 -20 -20l-2 18q0 12 6 12q16 0 16 -10zM864 301l-28 14q0 27 -15 84q-8 14 -51 58.5t-59 52.5q-37 20 -88 20q-47 -2 -93 -6q-16 0 -37.5 9.5t-33.5 5.5q-4 -20 -13 -43q-39 -20 -75 -43q-49 -27 -64 -54q-10 -18 -10 -55q0 -43 -4 -57 l-29 -27q-8 -29 -8 -63q0 -80 37 -174q12 -4 26 -15q2 -6 17 -59q10 -41 26 -51q8 -8 29 -8.5t27 -6.5q2 -18 14 -43q10 -4 31 -4q49 0 132 16.5t116 30.5q63 29 110 136.5t47 220.5q0 32 -4 61zM702 348q0 -12 -20 -33q0 -2 -2 25q0 18 8 18q14 0 14 -10zM670 260 q6 -2 6 -16q0 -27 -21 -82q1 106 15 98zM690 125q0 -8 -20 -19l-2 19q0 10 6 10q16 0 16 -10zM459 287q0 -20 -3 -73.5t-5 -80.5q-2 -33 -5 0q0 27 6.5 87.5t6.5 66.5zM502 37q4 -2 4 -10q0 -14 -19 -47q0 18 -2 36q3 29 17 21z" />
<glyph unicode="7" horiz-adv-x="1368" d="M1260 1182q-16 0 -17 35q0 39 17 34q0 1 0 -69zM1280 1147q0 -8 -20 -21l-3 19q0 14 7 14q16 0 16 -12zM1278 1077q0 -12 -18 -35q0 -2 -3 27q0 18 9 18q12 0 12 -10zM1141 717q0 -12 -21 -33q0 -2 -2 25q0 18 8 18q15 0 15 -10zM1079 559q-16 0 -16 16q0 27 16 39 q8 6 8 -4q0 -8 -4 -27.5t-4 -23.5zM401 1112q-16 0 -16 55t16 56v-111zM596 836q-18 0 -18 36q0 37 18 33q0 1 0 -69zM387 1085q6 -2 6 -14q0 -23 -20 -70v54q0 36 14 30zM1016 399q0 -8 -21 -20v18q-2 12 6 13q15 -1 15 -11zM406 967q0 -14 -19 -35q0 -2 -2 26q0 18 8 19 q4 0 8.5 -2t4.5 -8zM1149 1376l-29 -55q8 -25 15 -55h-27q-25 -59 -70 -168q-33 -100 -63 -201q-45 -129 -90 -172q-4 -2 7 -14.5t7 -26.5h-27q-2 -47 -28 -139q-18 -8 -41 -27q4 -25 0 -69q0 -2 -20.5 -27t-20.5 -29q-2 -8 0 -27.5t0 -27.5q-6 0 -16.5 6t-14.5 6 q-16 0 -16 -26q0 -10 9 -22.5t9 -18.5l-26 -15q-8 -20 -9 -49v-6q0 -25 -6 -41q-23 -25 -55 -70q-6 -12 -2 -41q4 -31 2 -43q-33 -49 -70 -110q2 -20 0 -55q-6 -23 -43 -104t-53 -103l-29 -41q-37 -16 -145 -17q-139 2 -145 2q-4 100 0 111q6 12 34.5 35.5t34.5 34.5 q-2 20 0 55q4 12 27.5 35.5t27.5 34.5q12 33 19.5 96t21.5 96q18 8 43 29q12 25 14.5 62.5t12.5 62.5q25 35 55 82q-2 20 0 55l29 14q8 25 12 68t15 69q20 25 43 56q-4 20 0 57q27 31 67 96q16 37 28.5 103.5t27.5 103.5q12 31 75 150q51 96 64 155q-16 20 -17 39 q0 18 17 31q-6 2 -22.5 14.5t-18.5 12.5q-33 8 -55 -15q-25 -4 -59 5.5t-40 9.5q-152 0 -346 -27q-2 -74 14 -139q-4 -23 -8 -23q-4 2 -6 8v-110q-18 -12 -41 -27q-29 -8 -96 12q-51 -10 -29 -12h-82q-14 199 -14 539q41 18 111 41q23 2 53.5 -7.5t42.5 -5.5q6 0 17.5 19.5 t25.5 21.5q6 2 78 4q74 0 88 -4l26 -28q131 -6 181 0l41 28q66 8 129 9q135 0 272 -37l14 28q10 2 17.5 -8t23.5 -6q2 -43 19 -131q12 -78 10 -117zM885 88q6 -2 6 -8q0 -12 -19 -33q0 2 -1 17.5t1 19.5q3 8 13 4zM850 -16q0 -8 -21 -21v19q0 12 7 12q14 0 14 -10zM795 -156 q0 -8 -21 -18v18q0 10 6 11q15 -1 15 -11zM1038 1278q-2 4 0 22q2 6 -14 7zM885 754q-2 4 0 13t0 11q-2 4 -13 2q-12 -2 -12 -12q0 -12 25 -14zM608 559q25 0 25 21q0 23 -25 20v-41z" />
<glyph unicode="8" horiz-adv-x="1529" d="M1376 848q-2 -23 -2 -35v70q2 78 2 73v-108zM1370 418q0 -8 -20 -21l-2 19q0 12 8 12q4 0 9 -3t5 -7zM1397 348q0 -8 -21 -18l-2 18q0 10 6 10q17 0 17 -10zM1403 195q-2 -23 -2 -35q-2 29 0 69q2 78 2 74v-108zM1200 356q18 -51 19 -135q0 -174 -48 -287 q-23 -25 -53 -67q-8 -16 -28 -55q33 2 32 -7q0 -2 -5 -7t-25 -1q-25 4 -29 2q-12 -4 -28.5 -39.5t-28 -43t-46 -13.5t-47.5 -14q-16 -23 -55 -54q-25 2 -67 0q-47 -18 -123 -41q-29 -4 -58 -4q-154 0 -311 84q-147 76 -203 166q-2 18 -14 54q-23 18 -55 67q-12 37 -17 94 q-8 86 -10 99q6 23 10 22q2 -2 4 -10q0 -4 -6 90q-2 57 6 88q25 20 54 53q6 10 2 35t-2 35q18 8 41 27q25 33 47 64.5t61 57.5q0 23 -12 68q-8 14 -41 34.5t-40 32t-45 100.5t-38 93q-8 43 -8 84q0 74 28 164q23 74 48 147h41q20 2 28 13q-8 31 0 82q20 4 53 14q6 4 25.5 40 t30.5 42q2 2 123 67q16 4 23 -6t18 -8q4 12 12 41q33 6 68.5 -11.5t54.5 -15.5q16 20 55 41q8 0 29.5 -13t23.5 -13q41 0 123 -15q20 -23 55 -55q14 4 41 0q8 -2 9.5 -19.5t5.5 -21.5q106 -90 127 -112q72 -74 90 -146q-2 -23 0 -67l26 -29q20 -78 15 -162q-4 -39 -38 -118 t-58 -115q-35 -23 -82 -82q4 -20 0 -68q33 -20 65 -43q43 -29 56.5 -49.5t17.5 -52.5q4 -39 12 -60zM928 1135l-56 12q-8 8 -8 33.5t-6 36.5q-27 51 -99.5 87.5t-156.5 36.5q-23 0 -43 -2q-90 -12 -174 -106q-86 -100 -86 -209q0 -43 14 -80q18 -6 41 -14q-2 -16 0 -41 q2 -14 42 -58.5t55 -50.5q12 4 41 0q18 -14 37.5 -28.5t56.5 -12.5l26 27q72 16 146 33q63 20 100 75q8 29 41 82q-8 10 -12 41l24 66q21 52 17 72zM150 1176q-14 8 -22.5 25.5t-18.5 15.5v-29zM899 31q41 80 41 159q0 178 -164 263q-35 20 -69 41q-51 27 -80 26l-27 -26 q-39 4 -108 0q-4 -2 -90.5 -61.5t-88.5 -61.5q-35 -59 -34 -187q0 -129 49 -153q2 -2 2 -4l-12 -9q-11 -8 -5 -16q16 -25 62 -45q37 -18 76 -37q10 -18 26 -41q70 -31 174 -31q27 0 43 5q10 18 29 41q12 8 33.5 8t34 6t23.5 33.5t17 33.5q29 19 68 56zM715 895q0 -8 -21 -21 q0 -2 0 19q0 12 6 12q15 0 15 -10zM559 997q-41 43 -24 43q4 0 11 -2t25.5 -23.5t3.5 -21.5q-6 0 -16 4zM709 356q6 -2 6 -10q0 -14 -21 -43v35q1 24 15 18zM686 254q0 -12 -18 -33q0 -2 -2 25q0 18 8 18q12 0 12 -10zM700 186q0 -8 -18 -20l-2 18q0 12 6 13q14 -1 14 -11z M483 295q0 -8 -20 -21l-2 19q0 12 6 12q16 0 16 -10zM477 113q-16 0 -16 55q0 53 16 53q0 1 0 -108zM498 90q0 -8 -21 -18l-2 16q0 12 6 12q17 0 17 -10z" />
<glyph unicode="9" horiz-adv-x="1370" d="M1260 987q-2 -51 -29 -178q0 -2 -13.5 -7t-13.5 -7q-18 -66 -69 -209q-6 -14 -35 -42t-35 -40q-12 -25 -21.5 -76t-19.5 -76q-12 -4 -29 -14q-86 -233 -151 -332l-27 -14q-14 -51 -55 -152q-39 -43 -98 -125q-6 -12 -15 -61q-8 -39 -26 -49q-27 -16 -82 -19 q-39 -2 -109 0q-84 4 -100 4q37 121 96 234q57 96 113 194q-4 14 0 43q23 23 55 70q-2 18 0 55q29 37 68 97q10 41 43 137q-10 0 -82 -10q-47 -6 -72 -2q-53 6 -178 68.5t-154 96.5q-23 27 -39 72q-27 70 -30 80q-27 31 -56 84q-2 18 13.5 55t15.5 56l-29 26q-6 27 -6 53 q0 43 21 103q27 68 28 80q-6 43 0 125q18 10 41 26q2 20 15 56q41 70 169 153.5t218 95.5q47 6 102 7q168 0 244 -48q12 -23 41 -55q47 -16 110 -55q4 -6 29 -98q6 -4 27.5 -5.5t27.5 -7.5q-2 -2 0 -43q-51 8 -14 -12q4 -2 27 -14q-14 -68 -13 -70h41q-16 -72 -14 -82 q2 -8 26.5 -23.5t28.5 -19.5q-14 -23 -28 -45q-16 -29 -13 -51zM41 1001q-16 0 -16 35q0 39 16 35v-70zM35 967q0 -8 -21 -21q0 -2 0 19q0 12 6 12q15 0 15 -10zM428 408l25 -2q0 -2 -39 -3q-35 0 -63.5 2.5t-4.5 2.5q64 2 82 0zM18 731q0 -12 -18 -33q0 -2 -2 25q0 18 8 18 q12 0 12 -10zM332 -244q-27 0 -88.5 7.5t-36.5 7.5q10 -1 125 -15zM954 1126q2 31 -14 97q-16 31 -57 49t-80 35q-2 12 -15 26q-86 37 -192 15l-14 -27q-12 -6 -36 -1t-34 1q-10 -18 -29 -43q-47 -37 -55 -55q0 -2 -12 -97q47 -2 67 -14h-82q0 -10 -12 -84q-8 -61 -8 -102 q0 -35 6 -62l29 -14q2 -20 12 -55q33 -51 105.5 -87t154.5 -36q45 0 86 12q96 27 150 119q45 84 45 198q-1 64 -15 125zM864 1008q0 -8 -20 -21l-2 19q0 12 6 12q16 0 16 -10zM664 1001q6 -2 6 -8q0 -12 -19 -32q0 -2 -2 18q-2 12 0 18q5 10 15 4zM678 932q0 -156 -12 -156 q-2 2 -2 19q-2 25 6 79t8 58zM657 719q0 -10 -20 -21l-2 19q0 12 6 12q16 0 16 -10z" />
<glyph unicode=":" horiz-adv-x="497" d="M330 424q-12 -2 -27 -2q-23 0 -55.5 9t-46.5 9v-47q63 -16 65 -16q47 33 33 33q20 6 33 6q14 0 14 -10q0 -16 -27.5 -38t-52.5 -24q-12 0 -162 49v195h-49q-6 4 -6 12q0 35 23 35q23 2 26.5 -10.5t9 -17.5t11.5 -5q14 0 14 16.5t2 16.5q14 4 22.5 -13.5t10.5 -17.5 q18 -4 72 10q37 10 75 21q-6 -12 -1 -41t1 -39q-18 -20 -49 -66q-14 4 -18 -4q-2 -6 0 -22q2 -18 2 -23q14 2 65 17q41 6 41 -11q1 -18 -26 -22zM352 -6q0 -10 -22 -23v21q-2 14 6 14q16 0 16 -12zM266 68q31 -2 33 -5h-61q-61 2 -21 5q43 2 49 0zM135 35q6 -4 6 -12 q0 -18 -20 -52q0 -4 -2 25q-2 23 0 31q4 14 16 8zM315 -240q-8 -14 -49 -20t-49 -12.5t-10 -34t-6 -31.5h49q10 -6 49 -16v-33q-41 -4 -147 -16q4 12 16 49q-16 4 -34.5 -7.5t-18.5 -19.5q2 -6 6 -6q-53 0 -82 -16q-12 27 -33 65q-10 0 49 16q-2 12 -17 20.5t-16.5 14.5 t-1.5 13q0 12 7.5 20t11.5 14v97q47 2 106.5 16t104.5 16q2 6 -2 19q-2 8 0 12q4 4 18 2q6 -33 17 -82q20 4 13 16.5t3 16.5q29 12 29 -53q-1 -37 -13 -60z" />
<glyph unicode=";" horiz-adv-x="763" d="M608 522q-47 31 -12 25q27 -4 27 -21q-1 -6 -15 -4zM647 483q6 -2 6 -8q0 -10 -18 -31q0 14 -2 27q0 18 14 12zM596 80q-12 8 -25 14q-23 14 -22 25q0 14 43 14q12 0 12 -6t-7 -19.5t-7 -19.5t6 -8zM653 33q0 -8 -18 -19v19q-2 10 4 10q14 0 14 -10zM297 469 q-8 -41 -14 -80q-12 -27 -76 -22q-29 2 -37 19t-17.5 20.5t-19.5 3.5q-14 0 -40.5 -8.5t-41.5 -10.5q-8 49 -4 107q4 96 4 88v26q18 10 129 13q98 2 99 -27q0 -6 -12.5 -41t-8.5 -61q21 -17 39 -27zM635 -10q4 -2 4 -8q0 -10 -18 -31v26q0 19 14 13zM465 2q-14 0 -14 53 q0 51 14 51v-104zM285 -88q-2 -20 -15 -92v-64q-6 -14 -36.5 -17t-40.5 -9q-18 -12 -47 -51t-56 -54v-24q-12 6 -21.5 -1.5t-17.5 -13.5q-12 14 -26 39q-2 14 -2 35q0 41 14 156.5t14 158.5h39v27q12 4 23 4q16 0 41.5 -9t38.5 -9q6 0 14 2q4 12 24 24q6 -14 15 -39 q-8 -2 -27 -12q-16 10 -20 10q-4 -2 -4 -4t2 -9t2 -11q0 -8 -6 -12q20 -8 47 -13.5t45 -11.5zM154 496q0 2 2 20q0 6 -15 6zM115 457v20q2 6 -13 6z" />
<glyph unicode="&#x3c;" horiz-adv-x="804" d="M672 528q0 -12 -13 -79q-51 14 -153 49l-19 18q-27 10 -86 31l-6 12q-10 -2 -24 0q-16 16 -49 37q-10 -2 -31 0q-6 14 -19 31q-14 8 -46.5 8t-45.5 4q-14 12 -43 31h-24q-12 4 -47 23.5t-39 25.5q-29 43 0 80h12q12 14 31 30q29 2 86 19q2 8 6 18h18l19 19q16 2 49 12 q29 20 86 49h24q10 10 31 25q16 -2 49 0q10 2 -6 18q20 4 62 19l6 12q8 -2 24 0q10 12 31 24h25q10 8 30 19q2 0 19 -6h37v-17q-2 -12 -7 -8q6 -16 0 -43q-12 -2 -43 -12q-4 -6 -12 -19q-25 -6 -67 -24l-7 -12q-10 2 -30 0q-2 -4 -6 -13q-10 0 -31 -6q-8 -4 -25.5 -16.5 t-23.5 -14.5q-23 -4 -74 -18l-18 -18q-8 2 -25 0q-12 -10 -30.5 -22.5t-53.5 -25t-51 -20.5v-25q23 -20 31 -24q16 0 49 -6q2 -6 6 -13q2 2 5 3.5l7 3.5q12 -18 19 -19q4 0 5 4t7 2q4 -8 12 -18q14 0 49 -6q-8 -8 -6 -13q18 -2 62 -12q4 -8 14 -16t31.5 -11.5t33.5 -9.5 q4 -8 13 -18q12 2 37 0q4 0 20 -11.5t23 -13.5q29 -8 92 -37z" />
<glyph unicode="=" horiz-adv-x="1441" d="M1354 678q4 -2 4 -6q0 -8 -15 -25q0 -4 0 23q1 14 11 8zM1100 668q-35 41 -10 32q20 -6 20 -26q0 -8 -10 -6zM1354 393q4 -2 4 -6q0 -8 -15 -16q0 -4 0 18q1 8 11 4zM1120 627q-14 -4 -45 3t-28 7h63v14q0 4 10 6q14 -26 0 -30zM1004 721q14 0 14 -4q0 -8 -25 -17v17 q-1 4 11 4zM899 741q14 -2 21 -2h-41q-41 2 -13 2h33zM887 657q4 -2 4 -6q0 -8 -14 -24q0 -4 0 22q0 14 10 8zM1227 297q12 -2 18 -2h-55q-57 2 -27 2h64zM823 627q-8 -4 -12 -4q-6 0 -6 6q0 23 18 28q12 4 13 -4q-1 -8 -13 -26zM1153 764q-16 -2 -82.5 -18.5t-97.5 -16.5 q-12 0 -21.5 2t-28 23.5t-46.5 19.5v-20q-8 -2 -31 -13q-6 0 -49 11.5t-47 11.5q-18 0 -30 -12l-11 -11q-2 0 -76 13q6 -10 10 -23q-53 8 -104 10q10 6 8 29q-2 18 -8 25q-8 -2 -54 -11q4 -2 21 -30q-14 -4 -35 -4q-37 0 -102 14q-82 18 -97 20v21q-27 -57 -49 -57 q-6 0 -24 2q-25 2 -41 4l-13 30q-16 4 -41 11q27 33 54 63q16 -2 41 0q2 14 10 33q6 2 20 0q14 -4 15 -8l-2 -2q6 6 8 6t2 -4q0 -10 -21 -56q12 -2 31 0v11q12 2 10 14q-2 10 -10 16h74l13 -11t20 -9q4 10 10 33q43 10 117 20q39 2 108 -8q78 -12 105 -12q-18 -39 -13 -43 q8 6 33 43h43q6 -10 12.5 -21.5t18.5 -11.5h10q-2 -12 0 -31q4 6 53 21h43q10 18 31 43q23 -2 64 0q2 -2 22 -43q12 4 31 0v43q39 10 63 10q47 0 47 -47q0 -27 -14 -80zM655 690q-14 0 -14 21q0 18 15.5 20t25.5 2q18 0 18 -6q0 -12 -45 -37zM1206 383h-53q-2 -23 -10 -64 h-107q27 -23 21 -22q-35 8 -127 10l-14 -7q-15 -7 -29 -3q-20 20 -64 43v-21h-114q-2 -2 -13 -22q-43 -2 -53 20q-10 16 -31 13q-6 -14 -12 -15q-12 0 -12 15q0 2 14 30v64q6 2 64 10q63 2 53 0l22 6q16 4 9 6h32q0 -12 11 -32q14 14 32.5 31.5t42.5 17.5q14 0 31 -6 q8 -12 31 -33q0 -10 0 27q0 12 12 16t12 2l-8 -8q0 -2 4 -4h23q-31 -6 -31 -29q0 -6 14 -6q6 0 15.5 2t21.5 33q31 12 170 0q-12 -57 -10 -64q14 -2 17 9l4 12q10 2 14 -8.5t6 -12.5q6 2 10 0q-4 -8 2 -10zM549 297q10 0 -10 -10q43 4 63.5 6t9.5 4h-63zM569 414 q-8 -14 -14 -15q-4 0 -6 4q0 -74 0 -73q-12 -2 -33 -23h-31q-8 16 -20 33q-8 2 -14.5 -9.5t-8.5 -11.5q-8 -4 -16 -4q-12 0 -29.5 8.5t-27.5 6.5l-21 -23h-254q-12 29 -33 96q18 18 39 40t45 24q23 2 39 -9l15 -12q14 -2 28 -2q23 0 67 8.5t64 8.5q31 0 54 -15q2 -12 6 -24 q6 -23 24 -29q25 -8 29 13q-4 10 -6 18q4 2 4 6t-27 4q10 23 11 23q33 -2 65 -2q6 -2 51 -41zM856 784q-6 4 -4 12.5t-16 8.5v-21h20zM453 784q20 -4 20 4q0 14 -20 17v-21zM336 360q23 -2 22 29q0 29 -22 25q10 -9 0 -54z" />
<glyph unicode="&#x3e;" horiz-adv-x="780" d="M670 889q8 -4 -6 -19v13q0 8 6 6zM571 870q8 -4 -6 -10q0 14 6 10zM629 801q-10 -41 -11 -74q-16 -4 -59 -18q-14 -12 -41 -29q-16 0 -57 -12q-2 0 -5 -7.5t-7 -9.5q-23 -6 -70 -24q-14 -10 -45 -29q-14 2 -47 -6q6 0 -11 -17q-23 -6 -69 -22q-12 -10 -35 -25 q-10 2 -31 0v-10q-16 -2 -51 -12q-6 -10 -18 -23q-14 -4 -45 -12q-8 57 0 70q51 25 57 22q2 -8 6 -6q4 4 4 14q2 10 -4 11q12 10 29 22q35 4 98 23q16 14 41 35h29q6 8 12 18q4 2 12 1t11 -1q12 10 34 22q12 -2 35 0q2 2 7 10l5 9q14 0 41 6q2 2 4 9l1 7q4 -4 18 -6 q4 2 16 25q6 -2 19 0v22q-41 20 -140 64q-18 4 -51 16l-12 13q2 2 3 6t3 6q-25 2 -63 6v23q-10 4 -22.5 -1.5t-18.5 -5.5q-10 8 -25 19q-2 2 -10 1t-12 -1q-2 0 -64 28q-20 10 -70 41q0 18 5 19l2 -2l6 18q-2 0 10 -12q16 10 15 12t3.5 5t6.5 5q-12 6 -13 7q0 20 6 18 q6 -12 23 -31q10 2 29 -4q2 -2 6 -30q31 18 47 18q12 -10 29 -23q20 -4 63 -18q4 -6 12 -16q14 0 41 -7q12 -12 39 -28q14 0 47 -6q8 -8 23 -25q12 -2 35 -10q4 -8 12 -19q18 0 51 -6q10 -12 31 -28q10 2 29 0q14 -4 51 -35zM264 721l-6 -19q-10 4 -6 7q2 4 12 12zM207 662 q6 -2 -6 -23q0 27 6 23zM518 709q0 18 -4 18z" />
<glyph unicode="?" horiz-adv-x="1212" d="M805 999q0 -8 -19 -20l-2 18q-2 12 7 13q14 -1 14 -11zM700 1077q12 -10 13 -26q0 -16 -25 -17q0 4 -2 21q-2 14 0 18q4 8 14 4zM1108 1077l-29 -14q-4 -27 6.5 -58.5t8.5 -54.5q-2 -18 -31 -57q-35 -47 -39 -53q-6 -14 -6 -36t-8 -36q-14 -29 -60 -72q-51 -49 -62 -64.5 t-145 -213.5q-25 -23 -55 -70q-6 -29 -4 -80q2 -57 16 -61q4 0 5 -10q0 -27 -31 -115h-240q-23 61 -26 125h41v29l-41 14q14 53 19 110.5t22 114.5l28 27q-2 16 0 43q10 12 49 27.5t49 27.5q-2 16 0 43q4 10 34 28.5t36 26.5q2 4 -14 29h28q12 43 41 113q35 23 86 69 q-2 27 13 70q18 2 43 14q4 0 -15 70q18 39 19 61q0 23 -19 23q-4 10 0 35.5t0 36.5l-153 153q-43 6 -99 14v27q-8 2 -34 -16q-33 -23 -35 -25q2 154 -14 154q82 8 81 33q0 12 -41 24q6 35 15 35q6 0 14 -8q2 6 -2 20q0 6 16 8q41 4 64 -20q27 -33 35 -35t14 -2q12 0 30.5 8 t24.5 6q-2 -25 15 -55q8 -4 14 -4t15.5 10t25.5 8q43 -31 98 -69q-2 -8 1 -28.5t-1 -29.5q-12 -4 -26 -26q66 14 69 14q25 0 84 -14q0 -33 15 -98q25 -10 55 -43q8 -31 6 -91q-6 -98 -6 -92zM420 1147q39 -16 39 -23v-2q-6 -4 -66 -2q18 57 27 56v-29zM449 1358 q-39 -20 -78 -41q-49 -31 -62 -57q-14 -33 -20 -111q-4 -57 -8 -115q-158 14 -267 15q0 -6 -8 55q-4 39 8 72q12 6 29 28q10 -6 22.5 -12t32.5 -2q-16 14 -55 29q6 43 41 139h43q2 6 2 10q0 10 -11.5 18.5t-19.5 14.5q33 41 99 98q16 8 49 12.5t49 14.5q8 4 14 27.5t15 29.5 q18 -2 55 0q8 12 29 27h26q2 -27 15 -84h-70q-6 -25 -14 -84q-6 2 -11 2q-6 0 -4 -12v-19q31 2 84 -12q7 -20 15 -43zM637 858q0 -8 -21 -18l-2 16q0 12 7 12q16 0 16 -10zM651 803q0 -12 -20 -35q0 -2 -2 27q0 18 8 18q14 0 14 -10zM393 1008q-10 -2 -16 -2q-10 0 -10 6 q0 16 26 22v-26zM244 901q0 -8 -19 -20l-2 18q-2 12 6 12q15 0 15 -10zM90 1014q0 -8 -20 -21l-2 19q0 12 6 12q16 0 16 -10zM225 852q4 -2 4 -10q0 -14 -18 -45q0 -4 -2 22q0 18 3 28.5t13 4.5zM43 881q18 0 18 -4q0 -6 -12 -13.5t-20 -11.5q0 2 -2 22q0 7 16 7zM20 831 q0 -10 -20 -20q0 -2 0 18q0 12 6 13q4 0 9 -3.5t5 -7.5zM342 283q0 -12 -18 -33q0 2 -2 14t0 21q0 8 6 8q14 0 14 -10zM524 45q0 -8 -18 -20l-2 18q-2 12 6 12q14 0 14 -10zM315 172q0 -8 -20 -20q0 -2 0 18q0 12 6 12q14 0 14 -10zM324 137q12 -2 12 -10q0 -14 -27 -18 q2 6 0 16q-2 8 -2 10q5 4 17 2zM492 -2q-27 0 -89.5 6t-37.5 6q23 0 73 -6t54 -6zM309 96q4 -2 4 -10q0 -16 -18 -47q0 -6 -2 22q0 18 3 29.5t13 5.5zM645 -410q-16 -4 -33 -4q-20 0 -47 8q-35 8 -47 11q4 0 4 -2q0 -12 -45 -13q-18 2 -45 25q-33 27 -39 31q0 20 13 90 q12 80 14 92q-14 2 -41 14q53 27 70 29q27 4 83 -4q68 -10 99 -10q47 -92 47 -195q0 -64 -33 -72zM309 -326q-18 0 -18 56q0 57 18 57v-113zM616 1511q8 18 9 29q0 18 -21 14q-14 -4 -14 -16q-1 -19 26 -27zM897 1204q0 4 2 21q2 6 -14 6z" />
<glyph unicode="A" horiz-adv-x="1765" d="M1200 1315q0 -12 -18 -33q0 -2 -2 25q0 18 8 18q4 0 8 -2t4 -8zM1257 1135q0 -8 -20 -19v19q0 10 6 10q14 0 14 -10zM1284 1067q0 -12 -20 -33q0 -2 -2 25q0 18 8 18q14 0 14 -10zM1325 956q0 -8 -18 -18l-2 16q0 12 6 13q14 -1 14 -11zM1366 834q0 -8 -18 -21l-2 18 q-2 12 6 13q14 0 14 -10zM1409 711q0 -8 -20 -21l-3 19q0 10 7 10q16 0 16 -8zM1421 655q0 -8 -18 -20q0 2 -2 18q-2 12 4 13q4 0 10 -3.5t6 -7.5zM1462 545q0 -8 -18 -21l-2 19q-2 12 6 12q14 0 14 -10zM1505 434q0 -8 -20 -18l-2 16q0 12 6 12q16 0 16 -10zM1518 379 q0 -8 -19 -19l-2 17q0 12 6 12q15 0 15 -10zM1663 -410q-188 0 -289 15q-35 121 -69 239q-57 180 -95 199q-68 31 -303 14q-381 -27 -481 -14q-51 -129 -152 -371h-55q-6 -4 -10 -26.5t-16 -28.5q-47 -20 -193 0q2 47 27 139q14 2 43 27q2 0 67 -27q-61 51 -61 105 q0 25 6 59l29 27q-2 37 12 110q20 8 43 29q8 23 7 70t5 67q4 12 34 83t36 81l26 14q6 18 7.5 55.5t7.5 55.5q37 51 82 123q-2 23 0 70q10 35 45 98q43 72 51 94q-2 20 0 53q25 37 55 97q-2 20 0 55q25 20 56 55q4 12 2 41q-4 31 -2 41q6 25 36.5 67t30.5 44q8 20 8 61t6 62 q18 33 56 96q0 14 14 43q35 27 68 26q8 0 25 -13l16 -13q33 -10 139 0q25 -96 82 -303q27 -45 55 -97q4 -39 27 -122q18 -16 41 -43q14 -37 20 -95q8 -63 21 -98q35 -63 84 -178q-4 -23 0 -68q25 -29 53 -84q8 -18 8 -49t6 -47q2 -2 21.5 -20.5t19.5 -20.5q8 -23 8 -69 t7 -68l26 -14q10 -20 15.5 -60.5t13.5 -62.5q20 -18 41 -41q16 -47 30 -117q14 -82 25 -117h82q-63 -23 -64 -39q0 -14 37 -30q2 -23 12.5 -55.5t11.5 -75t3 -48.5zM680 23q0 -8 -21 -21l-2 18q0 12 7 13q16 0 16 -10zM592 -147q-10 -4 -17 -5q-10 0 -10 13q0 39 27 45 q14 4 14 -10q0 -23 -14 -43zM248 -395q-27 -6 -27 10q0 27 27 31q18 -37 0 -41zM1114 319q-16 143 -43 234l-27 27q4 25 0 69q-18 16 -40 41q-6 20 -7 58v16q-2 39 -8 63q-18 16 -41 41q-12 29 -15 77t-11 75q-2 4 -21.5 21.5t-19.5 19.5q-10 20 -11.5 52t-3.5 44h-55 q-4 -33 -27 -96l-28 -14q-10 -31 -14.5 -83.5t-12.5 -80.5q-16 -53 -68.5 -160t-69 -155t-54.5 -249q129 -18 276 -18t301 18zM866 1116q4 -2 4 -10q0 -14 -18 -45q0 18 -2 37q2 26 16 18zM831 997q0 -8 -20 -18v18q0 10 6 11q14 -1 14 -11zM776 862q0 -8 -20 -20l-2 16 q0 12 6 12q16 0 16 -8zM907 705q4 -2 4 -9q0 -14 -18 -34q0 14 -2 30q2 19 16 13zM735 750q0 -8 -20 -19v19q0 10 6 10q14 0 14 -10zM700 690q6 -2 7 -8q0 -12 -19 -33q0 -2 -2 19q-2 12 0 18q4 10 14 4zM680 614q0 -8 -21 -20l-2 18q0 10 7 11q16 -1 16 -9zM831 434 q0 -8 -20 -18v18q0 10 6 10q14 0 14 -10zM633 539q4 -2 4 -11q0 -14 -19 -45q0 18 -2 37q3 27 17 19z" />
<glyph unicode="B" horiz-adv-x="1609" d="M1452 268q10 -35 10 -67q0 -96 -65 -154q-6 -4 16 -16q14 -6 27 -13q-4 -41 -29 -122q-12 -6 -27 -15q-2 -20 -14 -55q-31 -49 -136.5 -121t-168.5 -86q-84 -20 -182 -20q-33 0 -115 4q-72 4 -117 2q-25 0 -121 -8q-82 -8 -114 -7q-70 6 -140 11q-66 4 -124 -11 q-4 10 -2 43t-11 41h-55q-4 10 -43 27q-8 100 -12 96q0 8 13 24.5t13 18.5q6 23 15 207q2 57 -13 156q-16 109 -16 162q0 14 14.5 78.5t14.5 74.5q4 70 -4 180q-12 131 -13 183q0 33 2 65q20 252 15 320q-12 160 -13 182q0 98 27 135q14 20 289 55q29 4 78 -4q31 -6 61 -10 q379 -18 498 -14q12 -25 40.5 -75t43.5 -77q137 25 149 25q43 0 59.5 -34t12.5 -128q72 -27 78 -30t2 -25q-6 -37 2 -84q14 -6 28 -15q0 -158 -2 -184q-6 -98 -39 -147q-23 -14 -55 -41q0 -14 -14 -41q-8 -8 -27.5 -8.5t-28 -6.5t-9.5 -21.5t-5 -19.5q-14 -2 -41 -14 q-4 -20 0 -55l41 -15v-41q51 -20 125 -55q0 -70 0 -69q4 -8 27.5 -18.5t27.5 -22.5q6 -18 2 -56q-4 -41 -2 -55zM18 1090q0 -12 -18 -33q0 -2 -2 24q0 18 8 19q12 0 12 -10zM14 987q6 -2 6 -14q0 -20 -20 -68q0 90 14 82zM33 827q0 -12 -19 -32q0 -2 -2 24q0 18 8 19 q13 -1 13 -11zM14 766q0 -35 -6 -104q-8 -88 -8 -89q0 35 6 107zM29 545q4 -2 4 -13q0 -23 -19 -69q1 90 15 82zM14 434q6 -2 6 -14q0 -27 -20 -82q0 102 14 96zM14 297q6 -2 6 -14q0 -23 -20 -70q0 92 14 84zM29 186q6 -2 6 -16q0 -27 -21 -82q1 106 15 98zM20 53 q0 -8 -20 -20l-2 18q0 12 6 12q16 0 16 -10zM14 -92q6 -2 6 -14q0 -20 -20 -68q0 88 14 82zM1135 1389l2 22q0 6 -17 6zM954 1513q-2 14 -5 30t-21 11v-26q8 -5 26 -15zM1190 1071q-25 41 -70 139q-20 61 -41 82q-8 6 -140 52.5t-136 44.5q-2 0 -14.5 -20.5t-14.5 -20.5 q-12 -4 -29 -5q-25 0 -65.5 9.5t-42.5 9.5q-121 10 -264 -29q-18 -150 -19 -291q0 -141 19 -276q29 0 121 -2h145q389 0 414 72q6 18 2 55q-4 43 -2 55q0 -2 5 -41t7 -55q74 139 125 221zM1149 365q-25 14 -55 43v26q-29 23 -135.5 53.5t-155.5 30.5q4 0 -111 -29 q-61 -4 -155 5q-115 10 -164 10q-10 -23 -27 -55h41q-4 -14 -14 -15q-31 0 -27 0q8 -66 8 -158q0 -57 -6 -196q-4 -117 -2 -172q55 -27 166 -55l84 28q39 0 115.5 -9t111.5 -9q27 0 49 4l27 29q23 2 47 0q33 -4 39 -5q25 0 53 17q8 6 14.5 27.5t12.5 27.5q27 10 70 43 q51 74 51 195q0 96 -37 164zM1038 1057q6 -4 6 -15q0 -23 -20 -67q0 90 14 82zM780 1243q0 -10 -18 -20l-2 18q0 12 6 12q14 0 14 -10zM684 1229q0 -8 -20 -19l-2 17q0 12 6 12q16 0 16 -10zM850 952q0 -8 -21 -20l-2 18q0 12 7 13q16 -1 16 -11zM850 827q0 -8 -21 -18v16 q0 12 7 13q14 -1 14 -11zM512 1098q27 -2 29 -4q-25 0 -54 2q-53 2 -16 2q21 6 41 0zM1030 440q0 -8 -20 -20l-2 18q0 12 6 13q16 -1 16 -11zM1065 352q6 -2 6 -10q0 -14 -18 -45q0 -4 -2 20q0 18 2 28.5t12 6.5zM1100 248q0 -8 -21 -21l-2 19q-2 12 6 12q17 0 17 -10z M885 227q6 -2 6 -10q0 -16 -19 -45q0 -4 -2 21q-2 18 0 28q5 12 15 6zM1071 10q0 -8 -18 -18l-2 18q0 10 6 10q14 0 14 -10zM483 -37q25 -2 27 -4q0 -2 -39 0q-37 0 -65.5 2t-4.5 2q66 2 82 0z" />
<glyph unicode="C" horiz-adv-x="1511" d="M1290 840q6 -2 6 -11q0 -16 -20 -47q0 18 -2 39q2 27 16 19zM1235 754q-29 0 -96.5 7t-44.5 7q-2 0 141 -14zM1057 844q0 -12 -19 -33q0 -2 -2 25q0 18 8 18q13 0 13 -10zM700 1147q-14 29 -14 47q0 16 14 10q23 -10 23 -47q0 -14 -10 -14q-5 0 -13 4zM772 979l25 -2 q-27 -2 -39 -2q-35 2 -64.5 3t-5.5 1h84zM1444 1063q-117 -39 -293 -14q0 41 -14 112h-29q-16 6 -36.5 50t-33.5 49q-12 6 -35.5 0.5t-33.5 -0.5q-14 6 -42 35.5t-42 33.5q-37 10 -88 10q-90 0 -193 -26q-94 -25 -127 -53q-2 -16 -14 -41q-14 0 -43 -15q-10 -12 -14.5 -35.5 t-12.5 -35.5q-27 -20 -57 -56q-6 -23 -2 -69q4 -51 2 -70l-27 -72q-4 -23 -4 -47q0 -31 12 -119q10 -78 7 -129q-20 -276 0 -391q8 -49 28.5 -74.5t40.5 -52.5l66 -98q45 -57 88 -70q29 4 84 0q2 0 49 -18q35 -12 63 -12q14 0 29 2l41 28q16 2 29.5 -7t25.5 -9q6 0 17 2 l96 55q25 14 93.5 88t76.5 95v28q25 10 61 10q25 0 63 -5t44 -5h98q4 -29 0 -84q-27 -29 -57 -84q8 -18 0 -69q-10 -25 -112.5 -128.5t-125.5 -111.5q-29 0 -84 -14q-10 -18 -28 -41q-94 -39 -271 -39q-127 0 -192 24q-2 0 -7 13.5t-8 15.5q-23 6 -51 6h-18q-35 0 -55 8 l-127 84v27q-55 45 -109 90q-63 57 -88 107q2 20 0 57q-33 59 -70 154q-4 27 6.5 68.5t8.5 70.5q-14 61 -29 141q-2 27 -2 53q0 63 14 162q14 115 17 150q2 35 -9.5 92t-11.5 84q0 25 6 49q27 23 56 55q4 12 4 27q0 12 -5.5 38.5t-5.5 41.5q0 18 7 35h14q6 25 14 55 q25 8 56 29q10 10 12 35.5t16 33.5q18 0 43 14v27q37 6 84 29q6 10 5 29.5t10 27.5q31 29 106 62q31 12 62 22h112l12 41q20 -2 58 0v-70q18 0 41 -14l14 43q-41 20 -41 41q0 12 27 14q12 0 39.5 -14t31.5 -14q16 0 27.5 14t13.5 14q45 -18 99 -43q-2 -41 0 -41 q18 -4 28.5 18.5t55.5 22.5q14 0 104 -52t92 -58q-4 -18 0 -43q18 -2 56 -15q14 -10 43 -59q35 -55 43 -65q16 0 41 -15q10 -14 10 -42.5t4 -41.5q0 -4 20.5 -28.5t20.5 -28.5q-2 -27 0 -84zM455 731q0 -12 -21 -33q0 -2 -2 27q0 18 8 18q15 0 15 -12zM440 662 q0 -12 -20 -33q0 -2 -2 24q0 18 8 19q14 0 14 -10zM426 592q0 -12 -18 -33q0 2 -2 14t0 21q0 8 6 8q14 0 14 -10zM434 418q-16 0 -16 57q0 55 16 55q0 1 0 -112zM420 389q0 -35 -6 -112.5t-6 -96.5q0 35 6 113t6 96zM440 143q0 -12 -20 -34q0 -2 -2 26q0 18 8 19 q14 -1 14 -11zM455 72q0 -12 -21 -33q0 -2 -2 27q0 18 8 18q15 0 15 -12zM309 1343q25 -6 25 5q0 20 -25 24v-29z" />
<glyph unicode="D" horiz-adv-x="1820" d="M1683 453l-26 -41q-4 -20 -4 -45q0 -23 5 -70t5 -70q0 -33 -6 -57h-12q-14 -59 -56 -162q-4 -8 -19.5 -14t-19.5 -12q-2 -20 -14 -56q-35 -55 -158 -141t-192 -100q-23 2 -68 0q-20 -18 -53 -41q-25 -4 -47 -4q-29 0 -92 12q-55 10 -90 6q-8 0 -50.5 -20.5t-58.5 -20.5 q-6 12 -12 27q-14 0 -178 6q-94 4 -160 -6l-12 41q-23 4 -25 -23q-2 -4 -4 -4q-10 -2 -12 2q-2 2 0 11.5t0 13.5q-68 -14 -68 -15q-2 33 0 97q2 12 21.5 43.5t19.5 50.5q0 2 -20.5 26.5t-20.5 26.5q-16 66 -16 176q0 82 16 295q10 143 -14 365q12 -6 28 -56v285 q-6 41 -14 121q-45 -2 -45 6q0 2 4 6h41q12 51 16 131q4 100 11 139q16 0 41 15q-20 14 -54 26v27q-6 16 -8 68q-4 63 8 94q0 2 19.5 13t19.5 13q35 -10 70 -19t72 -9q20 0 47 2l80 16q53 12 96 10q10 0 66 -20l55 -21q4 14 14 41q47 0 142.5 -7t125.5 -7q43 23 68 14 q14 -4 89 -68.5t87 -66.5q4 0 21.5 9.5t29.5 9.5q8 0 17.5 -5.5t19.5 -35.5q12 -37 18 -45q12 -14 47 -28.5t48 -25.5q96 -82 149 -364q0 -43 -14 -80q27 -86 26 -324q-23 0 -22 -6q2 -4 13.5 -9t13.5 -64q3 -51 -5 -82zM27 1085q4 -2 4 -10q0 -14 -17 -43q0 -4 -2 21 q-2 18 1.5 28t13.5 4zM242 856q6 -2 6 -14q0 -20 -19 -66q1 88 13 80zM53 950q12 -2 13 -10q0 -12 -25 -16q2 6 0 15t0 11t12 0zM31 862q0 -12 -17 -33q0 43 6 43q11 0 11 -10zM242 629q6 -2 6 -11q0 -10 -19 -30q0 14 -2 28q1 19 15 13zM33 768q0 -8 -19 -18l-2 16 q0 12 6 12q15 0 15 -10zM242 547q6 -2 6 -15q0 -23 -19 -65q1 86 13 80zM33 700q0 -8 -19 -18l-2 16q-2 12 6 13q15 -1 15 -11zM242 426q0 -41 -6 -117q-6 -98 -7 -98q0 39 7 117q6 96 6 98zM27 614q0 -39 -6.5 -122.5t-6.5 -106.5q0 43 6 125q7 98 7 104zM27 238 q6 -2 6 -15q0 -23 -19 -67q0 -6 -2 30q0 27 2.5 41.5t12.5 10.5zM229 -100q-16 0 -16 53q0 55 16 55q0 1 0 -108zM14 129q0 -35 -6 -102q-8 -84 -8 -86q0 35 6 102q8 84 8 86zM324 -410q23 -2 24 -2q-27 -2 -39 -2q-33 2 -61.5 3t-5.5 1h82zM14 -113q4 -2 4 -14 q0 -20 -18 -68q0 88 14 82zM14 -330q4 -2 4 -10q0 -14 -18 -43q0 18 -2 35q2 26 16 18zM1171 1530q0 2 3 20q0 8 -15 9zM1186 1341q-2 4 0 21q2 6 -15 6zM1415 668q-14 0 -16 14q2 12 2 27q-2 29 0 161q2 96 -12 162q-8 37 -73 138.5t-89 117.5q-14 8 -39 10q-31 0 -43 5 q-23 18 -53 38q-47 10 -111 7q-84 -6 -92 -7q-92 4 -283 41q-63 -82 -63 -139q0 -41 22 -117h41q4 -4 4 -6q0 -6 -20 -6q-12 -2 -25 -2q-6 -76 -26 -242q16 0 16 -20q0 -29 -16 -59q18 -113 0 -353q-4 -43 -4 -94q0 -78 10 -229q10 -139 8 -189q127 -25 250 -24q88 0 168 12 l53 27q16 0 30.5 -9.5t37.5 -5.5q23 20 53 41q14 4 41 -4l26 -8v39l54 67h28q33 43 66 95q35 90 35 233q0 37 -3 121t-3 131q-6 0 -5 2q0 4 17 12q0 -8 4 -8q2 1 10 21zM1077 776q6 -2 6 -8q0 -12 -18 -33q0 2 -1 17.5t1 19.5q2 8 12 4zM1092 723q4 -2 4 -10q0 -16 -19 -45 v37q1 24 15 18zM731 930q0 -12 -16 -33l-2 25q0 18 8 18q10 0 10 -10zM1118 399q-2 -23 -2 -34q-2 29 0 69q2 76 2 72v-107zM621 897q27 -2 26 -4q-25 0 -51 2q-53 2 -16 2h41zM889 573q-16 0 -17 37q0 35 17 31v-68zM909 539q0 -8 -20 -19v19q0 10 6 10q14 0 14 -10z M1118 305q4 -2 4 -8q0 -12 -18 -33v29q0 18 14 12zM903 438q4 -2 4 -10q0 -14 -18 -43q0 18 -2 35q2 26 16 18zM1092 156q0 -152 -13 -152q-2 4 -2 19q1 12 15 133zM889 344q0 -33 -6 -108.5t-6 -92.5q0 -32 12 201zM881 53q0 -10 -19 -30q0 -2 -2 24q0 16 8 16q13 0 13 -10 z" />
<glyph unicode="E" horiz-adv-x="1333" d="M1251 1130q4 -2 4 -14q0 -23 -18 -69q0 89 14 83zM1243 1012q0 -8 -20 -19l-2 17q0 12 6 12q16 0 16 -10zM989 1198q-27 0 -87 7t-36 7q8 0 123 -14zM715 1198q10 0 -15 -12q96 6 103 10q-12 2 -88 2zM934 993q27 -2 29 -4q0 -2 -54 0q-51 2 -16 4h41zM852 965h-303 q25 12 12 16q-10 2 -22 0q12 -2 24 -2q31 0 289 -14zM1155 346q-16 0 -16 35q0 39 16 35v-70zM336 1122q0 -8 -21 -20v18q0 12 7 13q14 -1 14 -11zM508 938q6 -4 6 -12q0 -14 -18 -43q0 -2 -2 22q-2 18 1 28.5t13 4.5zM1292 -147q-2 -4 -41 -43q0 -4 14.5 -32t12.5 -36 q0 -2 -41 -14q-12 -82 27 -123q-8 -2 -40 -11.5t-50 -9.5t-33 6q-2 0 -9.5 14.5t-17.5 12.5q-6 -12 -14 -27q4 0 -62 -4q-41 -2 -61 4q-12 4 -12 13q0 4 3 11t3 9q0 12 -37 8v-26q-12 -2 -53 -15q-25 -4 -60 -4q-33 0 -103.5 5.5t-105.5 5.5q-43 0 -75 -7q-2 2 -15 27 q-20 0 -28.5 -12.5t-12.5 -14.5q-45 -12 -137 -12q-154 0 -330 27q-8 68 -8 153q0 61 6 184.5t6 184.5q0 51 -4 96q-29 385 0 756q4 55 -7 170t-7 160q16 37 41 96q-18 6 -41 27q-6 41 14 192q14 0 49 -7t48 -5q18 2 38.5 14t28.5 12q18 -2 39 -20.5t31 -20.5 q29 -4 66.5 18.5t41.5 22.5q39 6 86 -8q57 -18 66 -18q31 -2 63 -2q59 0 164 11t158 11q86 0 166 -20h82q74 12 137 12q23 -150 -14 -289q-41 -4 -86 -4q-6 0 -244 19q-29 2 -78 -4q-29 -6 -59 -11q-68 -4 -164 -4h-117q-115 0 -186 -8q0 -8 -13.5 -55t-13.5 -56 q-10 -90 -10 -172q0 -117 22 -268q20 -4 72 -20q35 -10 51 -11q45 0 58 113v-109q49 -4 141 5q106 8 147 8t130.5 -9.5t134.5 -9.5q43 0 77 6l29 -233l-29 -29q-47 -16 -127 -16q-49 0 -161.5 9t-163.5 7q-16 0 -70 -12q-10 0 -29.5 15.5t-37.5 11.5l-29 -27 q-31 0 -64.5 11.5t-50.5 11.5q-20 0 -49 -11q-14 -16 -41 -41q16 -127 12 -192q-2 -18 -18 -115q-14 -88 -14 -139q0 -66 20 -102q23 -12 53 -41q150 16 275 16q113 0 153 -16l13 -29q14 -2 15 8t5 10q2 -2 8 -4q2 -18 13 -41q18 -2 43 0l12 68q76 4 178 0q8 -2 15.5 -21.5 t54.5 -19.5l14 41q45 -6 137 -12zM963 305q-20 0 -70.5 3t-86.5 7t-22 4q33 2 97 -6zM508 57q-16 0 -16 56q0 55 16 55v-111zM96 1501q-4 2 2 20.5t6 24.5q0 16 -22 10q-6 -2 -6 -8q0 -14 20 -47zM1059 -231q8 -6 8 6q0 43 -23 49h-26q6 -4 20.5 -27.5t20.5 -27.5z" />
<glyph unicode="F" horiz-adv-x="1300" d="M928 1599q-70 16 -70 19q0 6 57 20q5 -14 13 -39zM709 1638q25 -2 26 -4q-57 2 -65 4h39zM412 1626q-23 0 -80.5 6t-34.5 6q20 0 65.5 -6t49.5 -6zM244 1626q23 -2 22 -2q0 -2 -35 -2q-33 0 -58.5 2t-4.5 2q60 2 76 0zM862 942q-2 -37 -12 -129q0 2 -7 34t-7 50 q0 12 2 21zM733 981q25 -2 27 -4q-25 0 -49 2q-49 2 -15 2h37zM39 1612q4 -2 4 -10q0 -14 -16 -41q0 -2 -2 20q-2 18 1 27.5t13 3.5zM51 1536q6 -2 6 -8q0 -10 -18 -31q0 14 -2 27q0 18 14 12zM57 1438q0 -8 -18 -19l-2 17q0 12 6 12q14 0 14 -10zM1391 1266 q-223 -57 -643 -39l-27 24q-16 4 -100 0q-92 -2 -119 -12q-6 -10 -25 -27q0 -102 -14 -217q33 -6 33 -10q0 -2 -7 -4q-43 -10 -26 -90q12 -10 26 -51q2 -31 -26 -117q0 -12 14 -76q51 0 141 -10q72 -8 115 -4q6 12 15 26q57 8 167 0l25 -26q39 -2 130 14.5t128 11.5v-26 q10 -2 15.5 8t23.5 6q8 -10 25 -26q-4 -31 -13 -205q-125 0 -207 12q-10 2 -21 -5t-3 -7q-27 4 -47 4q-29 0 -75 -9.5t-85 -9.5q-35 0 -140.5 7.5t-154.5 7.5q-23 -31 -53 -92q-12 -61 -12 -144q0 -57 8 -176t8 -178q0 -145 -41 -236q-16 2 -26.5 14.5t-12.5 12.5 q-25 4 -100.5 -1t-106.5 1q-16 184 0 193q12 -4 39 0v24h-26q-2 14 -11.5 40t-9.5 56q0 27 8 74q10 55 13 76q0 -6 -7.5 22.5t-5.5 40.5q2 10 17 107q10 74 10 112q0 25 -9.5 109t-9.5 131q0 33 5 57l26 64q2 18 -12 69.5t-14 59.5q-6 78 -5 174q4 162 5 174q2 84 0 103 q4 66 0 167l14 15q20 2 41 2q35 0 100 -10q59 -8 103 -7l65 27q53 8 180 -12q10 -2 21.5 5t3.5 7q25 0 90 -8q57 -8 78 -4q2 0 16.5 12t22.5 12q82 4 192 -12l51 -27q12 2 23.5 20.5t15.5 18.5q16 4 33 -10t19 -14q25 -4 47 2q31 10 43 10q4 -10 -6.5 -23.5t-6.5 -15.5 q43 -29 47 -51q2 -33 5 -66h-64q61 -41 64 -51v-24zM39 1239q4 -2 4 -14q0 -25 -16 -76q0 96 12 90zM57 1116q0 -8 -18 -18v16q-2 10 4 10q4 0 9 -2t5 -6zM39 995q0 -49 -6 -143q-6 -113 -6 -129q0 75 12 272zM39 686q4 -4 4 -16q0 -23 -16 -74q0 96 12 90zM27 467 q4 -2 4 -12q0 -20 -19 -66v49q1 35 15 29zM43 356q0 -8 -16 -18l-2 16q0 10 6 11q12 -1 12 -9zM16 303q0 -12 -16 -31l-2 25q0 16 8 16q10 0 10 -10zM117 182q25 -2 26 -4q-25 0 -51 2q-49 2 -14 2h39z" />
<glyph unicode="G" horiz-adv-x="1746" d="M1067 993q0 -8 -20 -20l-3 16q-2 12 7 12q16 0 16 -8zM1079 938q0 -8 -18 -20l-2 18q0 12 6 12q14 0 14 -10zM639 1067q-31 4 -66 8q-43 6 -16 6q39 0 82 -14zM1630 252q-6 -49 -46 -163t-62 -148q-33 -25 -82 -82q0 -20 -13 -56q-53 -31 -137 -82q-8 -18 -26 -40 q-23 -10 -62 -14.5t-61 -12.5q-4 -2 -20.5 -21.5t-18.5 -19.5q-78 -23 -154 -23q-113 0 -309 78q-41 6 -123 41q-20 31 -67 82q-37 23 -74 47q-49 31 -56 64q4 20 -6 65q-29 25 -69 82q-25 70 -27 184v183q4 94 -12 270q-20 20 -21 27q2 2 6 2q14 -2 15 12v29q31 260 26 340 q25 6 82 26v27q-20 8 -36.5 16.5t-16.5 20.5q0 10 12 45q6 16 41 36.5t42 32t26 74.5q12 47 41 60q14 6 47 6t47 8q8 4 -27 27q115 100 177 108q31 4 58.5 -11.5t37.5 -15.5q35 27 80 56l14 -15h27q6 4 8 21.5t20 19.5q33 4 66 -8q23 -10 43 -18q37 4 108 0q59 -10 177 -96 q29 -35 94 -95q31 -6 82 -41q-2 -20 0 -55q2 -4 20.5 -13t20.5 -14q51 -70 67 -135q-2 -23 0 -67q-29 -4 -67 -15q-2 -2 -7.5 -25.5t-46.5 -29.5l-55 29q-16 0 -30.5 -9.5t-36.5 -5.5q-29 6 -89 101q-66 102 -86 115.5t-47 17.5q-39 6 -51 10q-92 31 -180 31 q-258 0 -363 -219q-23 -45 -42 -200t-13 -237q0 -6 15.5 -58t13.5 -91l-29 -41v-27q-6 -63 0 -108l29 -27q4 -16 0 -54t0 -54q25 -33 53 -82q-2 -31 0 -97q92 -18 109 -40q6 -29 26 -68q37 -16 123 0q59 -14 115 -14q135 0 252 96q139 117 139 354q0 31 -2 68q-55 18 -98 18 q-35 0 -119 -18q0 -25 -7.5 -83.5t-7.5 -66.5v125q-6 31 -34 37q-57 8 -115 14v27q2 88 0 149v41q63 33 176 27q0 -14 14 -39q29 16 29 23q0 2 -2 4q10 4 27 41q16 0 39.5 6t29.5 6q18 -2 78 -31q53 -25 84 -22q31 20 68 41q41 6 137 0q2 -8 0 -21q-2 -4 12 -8 q-4 -23 -9 -35t-16.5 -17t-11.5 -9q0 -10 37 -19q0 -25 -12 -190q16 -8 16 -78q0 -51 -4 -86zM1094 231q0 -8 -21 -20l-2 18q0 12 8 13q4 0 9.5 -3.5t5.5 -7.5zM870 360q4 -2 4 -10q0 -14 -18 -43q0 18 -2 35q2 26 16 18zM1065 135q0 -12 -18 -33q0 -2 -3 25q0 18 9 18 q12 0 12 -10zM856 279q6 -2 6 -15q0 -20 -20 -65v49q0 37 14 31zM578 502q0 -8 -21 -19v19q0 10 6 10q15 0 15 -10zM88 952q0 -8 -20 -20l-2 16q0 12 6 13q16 -1 16 -9zM27 905q6 -2 6 -12q0 -14 -19 -43q0 -4 -2 22q0 18 2.5 27.5t12.5 5.5zM27 797q6 -2 6 -11 q0 -10 -19 -30q0 -2 -2 18q0 12 2.5 19.5t12.5 3.5zM18 719q0 -12 -18 -33q0 -2 -2 27q0 16 8 16q12 0 12 -10zM14 498q-16 0 -16 32q0 39 16 35q0 1 0 -67zM14 442q0 -39 -6 -116q-8 -90 -8 -101q0 39 6 117q8 90 8 100zM27 199q6 -2 6 -13q0 -14 -19 -43q0 -4 -2 23 q0 18 2.5 27.5t12.5 5.5z" />
<glyph unicode="H" horiz-adv-x="1527" d="M541 991q0 -8 -19 -18v18q-2 10 4 10q15 0 15 -10zM496 1077q-25 0 -82.5 6.5t-34.5 6.5q25 -1 117 -13zM965 438q27 -2 26 -4q-55 2 -65 4h39zM344 1044q0 -8 -18 -18v16q0 10 6 11q12 -1 12 -9zM1370 113q-2 -16 -14 -183q0 -4 -14.5 -44t-10.5 -74h25v-91 q-12 -4 -13 -8q2 -10 0 -18q-4 0 -105 -14.5t-116 -12.5q-16 2 -45.5 38t-32.5 54q0 2 25 66q4 18 4 39q0 25 -8 71t-8 72q0 14 12 156q10 133 10 211q0 119 -22 155q-2 4 -66 39q-20 2 -49 -14q-41 -25 -43 -25q20 2 -31 2t-71 -2q8 0 -19.5 6.5t-34.5 6.5 q-72 -18 -104 -13q-27 12 -90 25q-35 0 -107 -10q-88 -12 -116 -15v-38q-2 -16 -13 -27q0 12 -14 65q0 -6 -12.5 -28.5t-12.5 -24.5q-4 -57 -4 -129q0 -74 7.5 -230.5t7.5 -232.5q0 -102 -11 -178q-31 -8 -59 -16q-41 -12 -72 -13q-20 0 -39 5q-31 4 -65 12q-27 14 -31 49 t-8 68q16 4 16 16q0 6 -7 20.5t-7 20.5q0 14 25 20v27h-27q18 233 18 446q0 215 -18 455q-6 68 10 199q18 139 17 192l-27 52q-4 49 6 129q12 92 12 135q0 39 -6 75q10 12 27 27q18 6 97 10t85 2q10 -2 16.5 -24.5t9.5 -24.5t21.5 -8t18.5 -8q0 -8 -13 -49q-6 -27 0 -56 q6 -10 15 -22q10 -18 10 -43q0 -12 -12.5 -61.5t-12.5 -55.5q0 -12 8.5 -28.5t4.5 -36.5q0 -2 -18.5 -18.5t-20.5 -20.5q-2 -37 0 -39h26q0 -18 6.5 -42t6.5 -36q0 -2 -13.5 -24.5t-13.5 -28.5l27 -25q16 -57 26 -184q117 -4 236 -12q2 0 12 -19.5t12 -19.5q10 -2 45 17 t48 22q37 6 90 -3q27 -6 53 -10q84 8 235 13q18 41 39 104q4 35 -6 98q-10 72 -10 99q0 45 16 77q16 8 17 17q0 6 -4 8q-33 23 -33 145q0 41 6 64q2 8 28.5 32.5t24.5 59.5q-20 35 -53 92q31 10 80 25q59 18 100 18q16 0 29 -4q4 -2 13 -19.5t14 -19.5q14 0 38 -14 q2 -2 -6 -20.5t-8 -30.5q0 -8 2 -15l39 -12q-14 -43 -22 -229q-6 -172 -17 -176q18 -12 39 -39q4 -16 -14 -52q-4 -39 14 -182q-39 -20 -27 -131q12 -45 27 -104q2 -31 2 -64q0 -59 -14.5 -177t-14.5 -189q0 4 6.5 50t6.5 66q-4 2 -4 11q0 14 18 43v-209zM352 999q6 -2 6 -8 q0 -10 -18 -30q0 -2 -2 16q0 14 2 20t12 2zM1376 -76q0 -10 -20 -20q0 -2 0 16q0 12 6 12q14 0 14 -8zM344 928q0 -8 -18 -21l-2 19q0 10 6 10q14 0 14 -8zM705 438q-25 0 -82.5 6.5t-34.5 6.5q20 0 66.5 -6.5t50.5 -6.5zM1356 -332q4 -2 4 -10q0 -14 -17 -41q0 2 -1 20.5 t1 24.5q3 12 13 6zM612 242q27 -2 27 -4q-25 0 -49 2q-51 2 -17 2q21 4 39 0zM1227 -410q25 -2 26 -4q-57 2 -65 4h39zM340 451q0 -41 -6 -119q-8 -90 -8 -103q0 41 6 119q8 93 8 103zM549 178q0 -147 -12 -147q-2 2 -2 16q0 10 14 131zM344 182q0 -10 -18 -30q0 -2 -2 24 q0 16 8 17q12 -1 12 -11zM539 -14q0 -12 -17 -31l-2 25q0 16 8 16q11 0 11 -10zM326 -96q-16 0 -15 35q0 35 15 30q0 1 0 -65zM651 582q0 2 2 20q0 6 -14 6z" />
<glyph unicode="I" horiz-adv-x="589" d="M0 1067q-2 -23 -2 -35q-2 29 0 70q2 80 2 78v-113zM20 989q0 -8 -20 -20v18q0 12 6 12q14 0 14 -10zM33 934q0 -12 -19 -35q0 -2 -2 27q0 18 8 18q13 0 13 -10zM418 -201q4 -25 4 -47q0 -61 -33 -162q-150 -20 -278 15q0 115 14 209q-20 2 -55 14h55q6 66 -2 172l-12 176 q-4 74 6 197q10 141 10 205q0 43 -2 86q0 8 -10 73q-10 59 -11 97q0 31 7 53l28 26q4 20 4 43q0 45 -22.5 143.5t-22.5 157.5q0 51 13 103q8 31 33.5 44t50.5 26v40q-10 2 -56 13q-12 4 -12 12q0 4 5 30.5t7 57.5q8 4 15.5 -7t25.5 -7q8 2 41 33.5t58 35.5q33 6 80 -5 t59 -36q14 -31 12 -204q-2 -160 -12 -242l-29 -70q0 -23 14.5 -38t14.5 -17q4 -25 -4 -94q-10 -84 -11 -103q10 -80 15 -249q-4 -57 1 -189.5t-1 -200.5q0 -8 -19 -153q-12 -111 -10 -154q13 -35 29 -84zM33 543q0 -12 -19 -33q0 -2 -2 25q0 18 8 18q13 0 13 -10zM14 481 q6 -2 6 -14q0 -20 -20 -68q0 90 14 82zM14 356q4 -2 4 -10q0 -14 -18 -45q0 18 -2 37q2 26 16 18zM29 272q0 -158 -13 -157q-2 4 -2 18q1 16 15 139zM29 63q6 -2 6 -14q0 -23 -21 -69q1 91 15 83zM14 -47q6 -2 6 -16q0 -27 -20 -82q0 104 14 98z" />
<glyph unicode="J" horiz-adv-x="1339" d="M1214 1286q0 -12 -18 -33q0 -2 -2 25q0 18 8 18q12 0 12 -10zM1188 1067q0 -8 -21 -20v18q0 12 7 12q14 0 14 -10zM1196 801q6 -2 6 -15q0 -23 -20 -69v53q0 37 14 31zM1182 567q-16 0 -17 33q0 39 17 35v-68zM1202 530q0 -8 -20 -18l-2 16q0 12 6 13q16 -1 16 -11z M1188 434q0 -8 -21 -18v16q0 12 7 12q14 0 14 -10zM1147 63q0 -8 -21 -20l-2 18q0 12 6 13q17 -1 17 -11zM1126 608q4 -12 4 -33q0 -37 -15 -115.5t-15 -99.5q0 -29 5 -92t5 -96q0 -55 -10 -100q-18 -20 -41 -56q4 -31 0 -82q-4 -10 -34 -29.5t-36 -25.5q-43 -57 -84 -115 q-51 -63 -108 -92q-88 -43 -156 -43q-12 0 -19.5 2t-15.5 16.5t-28 12.5q-27 -2 -27 -14q0 -8 11 -24.5t11 -22.5q0 -14 -67 -15q-72 0 -161 20.5t-126 41.5q-113 66 -123 82q2 27 -14 69q-33 12 -68 27q-4 20 -14 55q10 4 27 15q2 2 14 26q27 -4 70 0q14 27 41 55 q18 4 22 0q2 -2 0 -14q-2 -10 4 -14q4 4 13.5 -2t15.5 -11q8 18 41 56q2 -25 14 -56q59 -47 234 -47q94 0 137 19q43 43 96 69v27q20 6 55 29q8 10 13.5 40.5t13.5 41.5l27 14q2 14 2 37q0 27 -9 117q-8 82 -6 120q10 158 11 426q-2 311 2 426q-12 -10 -13 82q0 164 13 193 h43v41h53q-8 68 0 69q10 4 24 4q74 0 168 -45q-18 -129 -12 -221q16 0 16 -12q0 -8 -8 -20.5t-8 -8.5q-2 -8 -1 -15t-13 -11q0 -8 6 -38t8 -18q-2 -2 -14 -67q2 -25 18 -168q14 -115 8 -176l-26 -29v-27q-8 -80 0 -151zM674 2q27 -2 28 -4q-27 0 -53 2q-53 2 -16 2h41z M922 1528q-2 4 0 22q2 6 -15 6zM688 -287q-8 4 -6 16.5t-23 12.5v-29h29z" />
<glyph unicode="K" horiz-adv-x="1654" d="M1354 1233q0 -8 -21 -21l-2 19q0 10 6 10q17 0 17 -8zM543 1315q0 -8 -21 -21l-2 19q0 12 8 12q4 0 9.5 -3t5.5 -7zM981 709q0 -12 -18 -33q0 -2 -2 24q0 18 8 19q12 0 12 -10zM322 1315q0 -8 -19 -21l-2 19q0 12 6 12q15 0 15 -10zM1018 635q4 -2 4 -10q0 -14 -18 -45 q0 18 -3 36q3 27 17 19zM502 1067q0 -8 -21 -20l-2 18q0 14 6 14q17 0 17 -12zM307 1260q0 -12 -18 -33q0 -2 -2 24q0 18 8 19q12 0 12 -10zM385 1143q-16 16 -16 24t16 4q25 -6 25 -24q0 -8 -11 -8q-4 0 -14 4zM1126 428q6 -2 7 -8q0 -12 -19 -33l-2 19q-2 14 0 20 q4 8 14 2zM541 942q0 -12 -19 -33q0 -2 -2 27q0 16 8 16q13 0 13 -10zM1567 -410q-74 -8 -187 -8q-141 0 -157 23l-27 82q-2 8 14 55q-90 63 -166 199q-61 121 -122 241q-43 45 -91 125q2 16 -6 53q-18 8 -41 27q-10 18 -24 68q-10 41 -28.5 56t-43 16t-43.5 12 q-23 -18 -116 -124t-103 -110q-16 4 -41 0q-8 -8 -8 -24q0 -23 -6 -32t-37 -22q-43 -18 -45 -18v-27l26 -14q0 -367 -26 -371q6 -14 26 -55q6 -33 0 -76q-6 -31 -12 -61q-43 -4 -104 -19q-53 -12 -82 -12q-41 0 -90 16v27l-13 29q16 0 17 35q0 37 -17 32q0 55 -10 154.5 t-10 146.5q0 45 6 84l27 56q6 37 6 86q0 25 -19 231q-2 29 6.5 84t8.5 72q0 12 -2 22q-18 10 -19 19q0 4 6 8q4 88 13 82v262v41q0 -2 -8.5 30.5t-4.5 51.5q0 4 41 43q2 12 -13 45t-15 37v108q2 2 28 15q-2 10 -21.5 28.5t-19.5 26.5q-6 27 2.5 57.5t24.5 38.5 q-16 29 -14 41q55 0 120 21q57 16 115 34q23 -10 53 -26q0 -78 -6 -236q-2 -20 -6 -41q0 -4 -20 -53q-14 -37 -9 -70l41 -14q4 -23 7 -94q0 -72 -5 -72q0 2 -2 15q12 -12 15 -27q-23 -141 -23 -236q0 -100 23 -176h69q29 59 33 64q23 35 49 45q20 -2 56 0l12 28q-12 47 0 68 q12 23 96 41q6 10 4 41q-4 51 -4 43q45 41 45 25q0 -6 -2 -13q16 -2 27.5 -14t13.5 -12q14 -2 14 14q0 18 -15 39.5t-28 15.5q14 14 26.5 28.5t125.5 164.5v26q33 16 67.5 36t43.5 46q-4 23 0 56q31 8 67 26q8 33 29 84q8 10 33.5 14.5t33.5 12.5q41 106 41 110h70 q8 -16 27 -55h28q6 16 15 41q-43 12 -43 21v2q8 10 104 10q80 0 131 -4q-6 -8 -2 -21q4 -16 2 -22q-8 -18 -54 -43t-54.5 -37t-8.5 -35q-2 -14 -8 -22q-29 -10 -67 -41q-4 -6 6 -15l10 -8l-4 -4q-25 -12 -45 -64q-27 -61 -37 -73.5t-35.5 -22.5t-34.5 -18q-16 -14 -29.5 -49 t-23.5 -47q-61 -61 -125 -123q-88 -88 -96 -140q-8 -49 18 -77q35 -39 37 -45q4 -12 -1 -41t1 -43q25 -8 56 -41q-2 -16 0 -41q35 -14 81 -56q8 -18 6.5 -60t8.5 -63q25 -8 55 -28q20 -27 39 -86q14 -45 29 -92q-16 2 -17 -4q0 -4 4 -11h54q6 -33 28 -82q20 -6 41 -14 q12 -23 20.5 -82t20.5 -82h15q20 -10 32 -35q20 -45 23 -47q23 23 26 13q8 -14 8.5 -42t6.5 -40q16 -6 41 -27q14 -39 41 -111zM522 223q6 -2 6 -14q0 -23 -20 -70v54q0 36 14 30zM522 86q6 -2 6 -14q0 -23 -20 -70v53q0 37 14 31zM522 -106q6 -4 6 -11q0 -16 -20 -45 q0 18 -2 35q2 27 16 21zM152 1364q-6 4 -13 8q-31 14 -43 19q2 0 19.5 -19.5t24.5 -21.5t14 -2q14 -2 18 0q5 4 -20 16z" />
<glyph unicode="L" horiz-adv-x="1634" d="M1638 -354q-20 -20 -55 -41q-16 -4 -43 -4q-33 0 -109.5 8t-107.5 8q-41 0 -148.5 -15.5t-164.5 -15.5q-31 0 -58 4q-43 10 -125 27q2 2 9.5 15.5t5.5 13.5q-16 2 -51 -19q-41 -23 -46 -22q-57 -10 -165 -11q-137 2 -144 33q2 18 -6 45q-6 6 -27.5 7.5t-27.5 7.5 q-20 16 -23 59q-6 76 -6 78q12 4 49 8q23 2 47 21q4 16 15 41h-41q4 2 4 4q0 8 -45 8q10 -4 10 -29q0 -23 -10 -24q-14 -4 -17 6l-2 10q-4 0 -10 -4v41q29 0 8.5 90t20.5 90v27l-29 26q-12 53 0 207q0 2 16 100q14 90 13 93l-29 28v109l43 14q2 -2 8 -15t19 -13v124 q-14 6 -29 2q-14 -6 -27 -2q2 25 8.5 75t6.5 63q0 25 -15.5 96.5t-15.5 114.5q0 18 2 36q29 233 29 261q-2 33 -16.5 65.5t-14.5 42.5q0 23 45 57q33 25 68 41h82q2 -2 14 -26q8 -2 96 -15q-18 -188 -18 -215q0 -72 18 -155q-14 -4 -18 -14.5t-8 -14.5q-25 16 -29 14 q12 -57 29 -165q-8 0 -23 -7l-6 -20q8 -2 14 -2q10 0 12.5 16.5t14.5 12.5l14 -41q2 -27 -8 -93q-8 -74 -8 -110q0 -25 2 -45l29 -27q10 -41 0 -123q-6 -41 -27 -137q-23 -104 -29 -111q4 -6 22.5 -29.5t18.5 -25.5q6 -20 -11 -64t-15 -46h26v-123q0 -6 -9 -52.5t-9 -74.5 q0 -23 4 -39q18 -12 41 -41q39 0 125 -17q78 -12 96 -10q6 12 14 27h41v29q12 2 15 -3q0 -2 -2 -10q-2 -10 0 -16q16 -2 32.5 6t22.5 8q35 -2 39 -35q2 -16 2 -34h29q-16 -45 -15 -54q27 0 55 13q4 8 5 18q0 16 -9.5 39.5t-9.5 26.5q35 -4 125 0q10 8 23 14q18 14 45 12 q6 -12 14 -26q47 -2 127 -9q66 -6 106 -6q12 35 41 27q10 -2 11 -17q0 -14 -11 -38l-14 -27q25 -29 29 -27q-14 -12 -41 -28q6 -12 12 -27h55v-55zM256 1300q0 -8 -18 -18l-2 16q-2 12 6 13q14 -1 14 -11zM242 1190q0 -12 -19 -33q0 -2 -2 25q0 18 8 18q13 0 13 -10z M256 1067q0 -10 -18 -20l-2 18q0 12 6 12q14 0 14 -10zM16 1309q6 -2 7 -9q0 -12 -19 -32q0 -2 -2 18q-2 12 0 19q4 10 14 4zM209 1020q6 -2 6 -8q0 -12 -18 -33q0 -2 -2 18q-2 12 0 19q4 10 14 4zM31 1198q6 -2 6 -14q0 -20 -21 -68v51q1 37 15 31zM238 883q-47 4 -48 10 q2 2 7 4l26 68q-6 -2 -6 -15q1 -20 21 -67zM37 1040q0 -8 -21 -20l-2 18q0 12 6 13q4 0 10.5 -3.5t6.5 -7.5zM238 731q-2 -23 -2 -33q-2 27 0 68q2 78 2 76v-111zM16 883q-16 0 -16 55t16 55q0 1 0 -110zM250 649q6 -4 6 -16q0 -23 -18 -66q0 88 12 82zM16 758q6 -2 7 -8 q0 -12 -19 -33l-2 18q-2 14 0 21q4 8 14 2zM856 -94q14 -2 14 -15q0 -18 -28 -26q-6 16 -6 26q0 19 20 15zM45 676q-18 18 -18 26q0 6 18 3q6 -2 11 -10.5t3 -14.5t-14 -4zM242 504q0 -12 -19 -33q0 -2 -2 25q0 18 8 18q4 0 8.5 -2t4.5 -8zM141 580q4 0 4 -5q0 -10 -18 -36 q-8 18 -8 26q-1 15 22 15zM113 375q-23 4 -23 39q0 18 23 14q47 -8 47 -43q0 -12 -23 -12q-10 0 -24 2zM242 186q0 -12 -19 -32q0 -2 -2 24q0 18 8 19q13 -1 13 -11zM319 2q27 -2 29 -4q-27 0 -53 2q-53 2 -16 2h40zM16 -25q-10 66 -10 101q0 31 10 22q16 -12 17 -92 q-1 -37 -17 -31zM141 -121q-12 63 0 55q16 -10 17 -38q-1 -17 -17 -17zM1475 -299q-10 8 -11 18q0 6 3 14.5t3 10.5q0 12 -36 12q-6 -16 -15 -43q36 0 56 -12zM498 580q25 0 24 20q0 20 -24 21v-41zM1350 -258q-2 4 0 13t0 12q-2 4 -13 2q-12 -2 -12 -13q0 -10 25 -14z M485 428q6 -2 9 -4q0 -6 -37 -8q4 -10 14 -41q92 14 92 16q0 -6 -78 37zM719 -299q-6 6 -6 12q0 4 2 11.5t2 9.5q0 8 -27 8l-14 -29q31 -6 43 -12zM539 -258q0 4 2 20q2 6 -15 7z" />
<glyph unicode="M" horiz-adv-x="1945" d="M1151 1028q-12 6 -27 14q10 76 15 56q6 -25 12 -70zM1389 555q6 -2 6 -14q0 -27 -21 -82q1 104 15 96zM1047 811q0 -12 -21 -33q0 -2 -2 25q0 18 8 18q15 0 15 -10zM1374 444q4 -2 4 -10q0 -14 -18 -45q0 18 -2 37q2 26 16 18zM1407 326q0 -10 -18 -21l-3 19q0 12 7 12 q14 0 14 -10zM1389 279q6 -2 6 -11q0 -16 -21 -45q0 18 -2 37q3 27 17 19zM965 645q0 -8 -21 -20q0 -2 0 18q0 12 6 12q15 0 15 -10zM1790 1554q-10 -27 -41 -96q-10 2 -24.5 14.5t-16.5 12.5q-8 2 -16 2q-14 0 -32 -7t-22 -7q8 -6 11 -23q0 -27 2 -33q51 -4 125 -28 q-16 -150 -19 -154q-12 -25 -106 -55v-56q61 -29 125 -69q4 -12 4 -31q0 -25 -8.5 -63.5t-8.5 -42.5h-43q4 -18 0 -44q23 -10 56 -26v-154h-27q-8 -8 0 -41q35 -23 35 -288q0 -137 -8 -240q0 -12 -15 -111q-14 -86 -12 -110q2 -23 14.5 -37t12.5 -19q6 -27 6 -57 q0 -41 -13 -96q-20 -78 -20 -82q-82 -23 -117 -23q-33 0 -51 31q-31 47 -68 74l-43 14q-6 18 15 41q4 23 4 43q0 23 -6 56.5t-6 50.5q0 23 8 45q18 0 18 6q0 4 -4 8l-29 29q4 14 15 82q25 14 28 14q12 0 -43 41q2 2 0 43q0 -8 -2 -8q-4 0 -10 20q4 90 12 223q0 14 17 91 q12 70 12 90q-16 74 -41 209q-25 -12 -57 -43q-10 -18 -12.5 -61.5t-14.5 -63.5q-4 -8 -28 28q-16 -20 -41 -55q-12 -29 -27.5 -97.5t-28.5 -97.5q-29 -35 -69 -98q-6 -20 -6 -62t-9 -63h-26q-8 -45 -43 -137q-18 -10 -41 -29q2 -18 0 -41q-10 -6 -97 -14q31 -20 56 -29v-26 q-152 -14 -160 -15q-92 0 -119 41q-12 20 -22 88q-12 76 -19 95q-27 29 -55 82q-2 18 8 37.5t6 31.5q-4 6 -57 15q-33 111 -107 268q-90 190 -114 258h-29q-2 -4 -14.5 -21.5t-12.5 -19.5q-27 -100 -14 -361q0 -8 7 -27.5t7 -13.5q-8 -23 -12 -22q-2 2 -2 8v-35 q0 -14 14 -20q-4 -41 0 -125q-31 -55 -28 -70q14 -6 28 -14q0 -338 -28 -444h-41q-76 -49 -123 -50q-43 0 -127 50v41q6 23 10 88q4 53 6 96q-2 6 -2 10q14 49 15 98q0 35 -19 138q-16 90 -10 168q0 12 20 135q12 90 9 155q-2 23 -13 86q-8 53 -8 86t6 64l27 43q4 41 -4 108 q-10 80 -10 113q0 20 2 41q0 8 18 59q12 43 8 66l-41 43q-4 27 11 49q16 31 16 33q8 49 -12 223q39 -6 80 -14q47 -6 71 0q8 2 21.5 27.5t19.5 27.5q29 -2 84 0q-8 0 -8 -2q0 -4 22 -12q4 -10 5 -21q0 -12 -8.5 -32.5t-10.5 -28.5q41 -35 47 -41q16 -16 37 -57 q35 -57 82 -166q-2 -25 0 -70q4 -10 29.5 -28.5t27.5 -26.5q-4 -20 0 -56q-8 -4 -26 -8q-8 -2 -17 -20q16 2 29 2q82 0 82 -88q0 -33 -12 -80q23 -14 47 -27q27 -18 26 -37q0 -20 -32 -47q39 -23 84 -69q-4 -20 0 -56q25 -14 55 -41q10 -25 11 -95.5t1 -72.5q20 -4 43 -14 q4 -6 15 -47q8 -29 26 -35q29 4 84 0q20 16 41 41q8 18 8 55t6 56q23 29 56 84q-2 20 0 55q27 23 55 55q8 18 8 51t6 48q41 53 97 137q8 18 8 50t6 48q2 2 15.5 7t13.5 7q-4 23 0 56q27 6 55 12q8 25 6 78t8 76h13q8 4 16 35.5t14 35.5t33 0t35 -2q6 12 26 27q-4 6 -10 16 t-6 19q0 4 4 8q12 6 27 14l-4 2q0 -2 59 -2q47 -41 49 -41l35 68q-27 -4 -70 0q-12 6 -12 22q0 20 12 47q-14 10 -36 11q-39 0 -48 -25l15 -55h-27q6 98 15 117q4 4 81 77q35 -4 97 -14q0 -18 14 -41q6 -2 12 -2t22.5 10.5t35.5 5.5q22 -18 55 -43zM1320 134.5 q-9 19.5 -9 29.5q0 8 8 4q31 -20 31 -51q0 -8 -4 -8t-10.5 3t-15.5 22.5zM874 487q4 -2 5 -8q0 -14 -19 -35q0 14 -2 29q2 20 16 14zM1374 -137q0 -14 2 -31q-2 -18 -16 -12v28q-8 2 -20.5 -1t-20.5 1q-27 29 -12 29q6 0 15 -2t52 -12zM1401 -291q-16 0 -17 37q0 37 17 33 v-70zM1485 -387q-16 0 -17 39q0 16 17 16q35 0 35 -33q0 -30 -35 -22zM1171 -63q0 -12 -20 -33q0 -2 -2 24q0 18 8 19q14 0 14 -10zM1393 -328q0 -12 -19 -32q0 -2 -2 24q0 18 8 19q13 -1 13 -11zM389 598q18 0 19 -6q0 -6 -33 -23l-2 23q0 6 16 6zM1208 -360l-43 -15 q0 18 -2 37q2 25 17 19q14 -27 28 -41zM791 -152q-29 29 -13 29q6 0 13 -2q16 -4 16 -20q0 -11 -16 -7zM721 -166q25 -2 27 -2q-29 -2 -39 -2q-35 2 -65 3t-5 1h82zM1735 279q-18 23 -41 55h-15q2 -31 15 -70q4 -4 10 -4q15 1 31 19zM1720 -82l-12 41h-43l14 -55q8 0 41 14z M471 1110q2 -10 2 29q0 14 -14 14zM221 1223q-2 10 -12 26q-18 8 -55 29q22 -18 67 -55zM1096 264q16 -6 24 -6q12 0 13 8q0 31 -37 39q2 -10 0 -41zM471 862q6 -4 14 -4q18 0 19 14q0 20 -45 31q6 -21 12 -41zM104.5 1174.5q-16.5 -17.5 -16.5 -23.5q2 -4 4 -4q6 0 19 6 q39 43 24 43q-4 0 -9 -2t-21.5 -19.5zM250 -346q-6 4 -6 12q2 10 0 12q-4 6 -23 3q-16 -2 -16 -9q0 -8 45 -18z" />
<glyph unicode="N" horiz-adv-x="1896" d="M1540 1602q0 -12 -18 -33q0 -2 -2 24q0 18 8 19q12 0 12 -10zM1743 1307q-16 0 -17 36q0 37 17 33q0 1 0 -69zM1763 1272q0 -8 -20 -21l-2 19q0 12 6 12q4 0 10 -3t6 -7zM1757 1182q0 -39 -6 -113q-8 -86 -8 -94q0 39 6 112q8 87 8 95zM1778 774q0 -10 -21 -20l-2 18 q0 12 6 12q17 0 17 -10zM1763 717q0 -12 -20 -33q0 -2 -2 25q0 18 8 18q14 0 14 -10zM823 1604q0 -8 -20 -21l-2 19q-2 12 6 12q16 0 16 -10zM1757 629q6 -2 6 -11q0 -16 -20 -45q0 18 -2 37q2 27 16 19zM905 1450q0 -8 -20 -18v18q0 10 6 10q14 0 14 -10zM1550 836 q0 -156 -12 -156q-2 2 -2 18q0 7 14 138zM1057 1243q0 -12 -19 -33q0 -2 -2 25q0 18 8 18q13 0 13 -10zM1743 545q6 -2 6 -10q0 -16 -18 -46q0 -2 -2 23q-2 18 0 27q4 12 14 6zM1155 1063q0 -8 -20 -21l-2 19q0 12 6 12q16 0 16 -10zM1763 193q0 -8 -20 -21l-2 16q0 12 6 13 q16 0 16 -8zM817 1001q-18 0 -18 56q0 55 18 55v-111zM1114 760q0 -8 -20 -21l-2 19q-2 12 6 12q16 0 16 -10zM614 1229q0 -8 -18 -19l-2 17q-2 12 6 12q14 0 14 -10zM803 905q-16 0 -17 35q0 39 17 35v-70zM1550 1321q0 10 -25.5 -36t-17.5 -103q14 -6 29 -15 q-2 -88 -14 -303v-125q-2 -2 -27 -14v-27q14 -6 14 -14q-2 -25 -2 -29q16 4 17 -32q0 -37 -17 -37q18 -63 19 -113q0 -35 -19 -149q6 -35 15 -97q0 4 -2 4q-6 0 -13 -45h29q-6 -33 -29 -125q-14 6 -22 7q-12 0 -12 -13q0 -37 34 -49q0 -20 4.5 -86.5t4.5 -101.5 q0 -106 -35 -117q-10 -2 -11 -6q0 -10 52 -21q-6 -4 -13 -43q-6 -31 -43 -41q-23 -6 -59 -6q-117 0 -176 35q-27 16 -27 37q0 14 19.5 41t21.5 33q-66 12 -137 67q-4 117 -14 111q6 -4 6 -8q0 -8 -35 -4q-4 12 -12 26h-15v41q-23 35 -55 84q-70 92 -195.5 278.5 t-191.5 274.5q0 -23 -7 -77t-7 -60q0 217 -70 317q-23 14 -55 41q-2 18 -15 56q-6 12 -41.5 33.5t-40.5 35.5v29q-18 4 -43 12q-6 -205 -26 -608q-20 6 -21 -17q0 -10 4.5 -30.5t4.5 -26.5t-3 -8q16 0 17 -55q0 -55 -17 -56q8 -31 29 -112l-43 -13q-2 -4 0 -43q14 2 17 0 q0 -2 -3 -10q-2 -10 0 -16q14 -37 15 -68q0 -14 -9.5 -63t-5.5 -90q0 -6 16.5 -44t16.5 -67q0 -14 -4 -29q-12 -6 -29 -26q-10 2 -129 4q-82 4 -118 22q14 41 14 45v2q0 -2 -2 -4q-2 14 -6 13q-12 -2 -21 0q-2 23 -12 82q-6 49 -6 77q0 27 4 50q20 25 41 67l-27 29 q-2 8 -2 16q0 12 9.5 35t7.5 45q-12 6 -29 14v140q14 193 14 649q0 16 6 162q2 84 -6 143q2 41 0 111q8 4 13 2v-2q0 2 2 14q2 14 -15 55q8 4 24.5 50.5t16.5 60.5l-26 12q-10 23 -11 55q-2 43 -4 56q4 0 28 7t42 7q2 0 39 -13.5t43 -13.5q16 20 55 41q63 4 96 -28 q-2 -23 0 -56q20 -2 43 -12q6 -14 5.5 -41.5t7.5 -42.5q20 -8 43 -26q-4 -25 0 -70q33 -74 110 -111h15q-4 -20 0 -55q27 -4 55 -14q8 -16 7 -54t5 -57q2 0 43 -33.5t41 -36.5q12 -39 56 -110q4 -4 -6.5 -13.5t-10.5 -17.5q0 -6 3 -12t19.5 -10t20.5 -17h29q0 -4 0 35 q0 14 14 21q0 -6 -2 -60q-2 -39 0 -59q4 -31 14 -47q25 -8 56 -27q6 -12 6 -41t7 -41t42 -32.5t43 -39.5q12 -29 0 -81v-29h41q92 -170 152 -193q16 4 43 0q27 39 55 97q0 8 -14 24q-6 8 -15 17q-10 43 -6 124q8 100 6 125q6 135 0 416q-2 23 -8 57.5t-6 51.5q0 47 43 84 q-51 68 -43 69q16 2 69 111q-63 51 -63 119q0 29 8 88q6 2 27 0q10 0 14 14h98q57 0 97 -14q2 0 10 -12.5t16 -14.5q4 -27 2 -119q-2 -76 13 -116q0 -2 14 -9.5t14 -17.5zM614 426q0 -8 -18 -18l-2 16q0 12 6 12q14 0 14 -10zM809 233q0 -8 -21 -20q0 -2 0 18q0 12 7 13 q14 -1 14 -11zM829 158q6 -2 7 -11q0 -16 -19 -45q0 -2 -2 23q-2 18 0 27q4 12 14 6zM596 283q4 -2 4 -11q0 -14 -18 -45q0 -4 -2 23q0 18 3 28.5t13 4.5zM608 199q6 -2 6 -11q0 -16 -18 -45q0 -2 -2 23q-2 18 0 27q4 12 14 6zM629 123q0 -10 -21 -21v19q0 12 6 12 q4 0 9.5 -3t5.5 -7zM291 1569h-96v-41h81q-4 2 -4 4q1 10 19 37zM748 725q-2 4 0 20q2 8 -15 9zM471 987q-8 4 -6 16.5t-23 12.5v-29h29z" />
<glyph unicode="O" horiz-adv-x="1732" d="M1507 1262q0 -8 -18 -19v17q-2 12 4 12q14 0 14 -10zM1372 1372q0 -8 -20 -20l-2 18q-2 12 6 12q16 0 16 -10zM1583 1147q6 -2 6 -8q0 -12 -18 -33q0 2 -1 17.5t1 19.5q2 8 12 4zM1604 1085q0 -8 -21 -20v18q-2 10 6 11q15 -1 15 -9zM1583 1038q6 -2 6 -8q0 -12 -18 -33 q0 2 -1 17.5t1 19.5q2 8 12 4zM1604 975q0 -8 -21 -19v17q0 12 6 12q15 0 15 -10zM1616 770q0 -12 -19 -33q0 -2 -2 25q0 18 9 18q12 0 12 -10zM1624 655q-16 0 -16 37q0 35 16 31v-68zM1604 483q0 -8 -21 -18v16q0 12 6 13q15 -1 15 -11zM1612 342q-16 0 -17 55q0 53 17 54 v-109zM1604 307q0 -8 -21 -20l-2 18q0 12 6 12q4 0 10.5 -3t6.5 -7zM1561 211q0 -12 -19 -33q0 -2 -2 25q0 18 8 18q13 0 13 -10zM1460 436q-20 -29 -41 -67q-4 -39 13 -78q16 -45 16 -72q0 -31 -19.5 -99.5t-35.5 -92.5l-13 -5q-14 -6 -14 -8q-8 -18 -8 -50t-6 -46 q-12 -27 -49 -53q-53 -37 -60 -43q-16 -31 -55 -82q-45 -39 -105 -59q-16 -6 -127 -35l-28 -29q-170 -37 -260 -37q-49 0 -80 10q-10 4 -18.5 28t-10.5 28q-31 2 -123 0q-14 31 -41 67q-33 -6 -94 0q-14 23 -41 56q-92 76 -110 100q-25 31 -68 145q-25 37 -55 109 q-4 18 -4 41q0 33 10 96q10 57 8 82q-14 63 -41 205q8 4 27 12q-6 86 0 260q27 2 69 15q-4 20 4.5 34.5t8.5 18.5q-14 -4 -15 6q0 33 2 22q-8 -4 -8 5q0 35 62 49v14q-39 -6 -123 -27q0 29 14 82q18 6 41 27q6 23 -14 123v41q8 6 32 2q29 -4 37 -2q20 18 53 41q0 14 5.5 62 t9.5 46v29q6 4 12 4t15.5 -5t13.5 -5q8 0 14 6q4 29 27 68q4 2 10 2q8 0 18.5 -8.5t12.5 -8.5q61 61 123 96v27q29 8 90 4q55 -6 88 10h12l14 -41h41q-8 4 15 27q-6 2 -41 12q-27 6 -27 13q0 8 27 16q39 14 53 14q55 4 102 -16q37 -18 76 -39v-27q18 -6 48 11.5t55 17.5 q10 0 21 -2t23.5 -26.5t19.5 -28.5t29.5 -5t35.5 -7q-4 -14 -9 -29q-2 -6 9 -12v-15q25 2 69 0q49 -43 123 -108q-4 -12 -14 -27q-63 -25 -64 -25l13 -15q12 -15 24 -42q16 8 41 12v29q8 2 14 2q10 0 21.5 -9t17.5 -7q18 -45 41 -123q4 -41 -6 -105q-10 -74 -10 -98 q0 -23 4 -43q20 -27 41 -67q2 -27 -7 -70t-9 -66q0 -14 2 -28q12 -6 26 -15q-2 -23 -2 -43q0 -23 4 -59.5t4 -56.5q0 -29 -6 -60zM424 1352v55q-43 0 -55 12q4 -8 0 -20q-4 -16 -4 -21q0 -18 30 -26q13 -4 29 0zM1188 793l-14 217q0 2 -19.5 20.5t-21.5 20.5 q-68 158 -152 221q-100 78 -270 65l-29 -26q-14 -2 -66 0q-39 2 -69 -15q-8 -18 -29 -41h-67q-18 -41 -68 -122q-18 -8 -41 -27q-33 -74 -55 -465q-2 -20 3 -48t5 -34q0 -25 -23 -41q35 -72 35 -82q0 -16 -47 -82h27q10 -27 26 -67q8 -29 12.5 -94.5t16.5 -95t55 -68.5 q33 -27 68 -56q-6 -27 -14 -55q49 2 108 0q2 0 14 -41q123 -14 175 -14q66 0 112 14q20 25 55 55q23 -4 68 0q4 2 69.5 73t67.5 77q-2 25 0 68q0 2 27 14q0 57 9 141t9 125q0 39 -4 76q16 0 17 14q0 10 -8.5 26.5t-8.5 12.5q4 55 0 108.5t0 96.5zM662 1221q0 -8 -21 -19v17 q0 12 6 12q15 0 15 -10zM758 963q0 -8 -21 -21l-2 19q-2 12 6 12q17 0 17 -10zM565 1083q0 -8 -18 -18l-2 18q0 10 6 11q14 -1 14 -11zM737 915q0 -35 -6 -104q-8 -84 -8 -88q0 37 6 106q8 82 8 86zM518 973q0 12 14 10q61 -4 62 -33q0 -16 -25 -16q-16 0 -33.5 8t-17.5 31z M729 688q0 -8 -18 -18l-2 16q-2 12 6 12q14 0 14 -10zM518 764q6 -2 6 -16q0 -27 -18 -78q0 102 12 94zM764 313q-16 0 -16 37t16 33v-70zM512 606q0 -8 -20 -18l-3 16q0 12 7 12q16 0 16 -10zM881 170q0 -8 -21 -20l-2 18q0 14 6 14q17 0 17 -12zM539 510q0 -8 -21 -18v18 q0 10 6 10q15 0 15 -10zM553 279q0 -8 -21 -19l-2 16q0 12 7 13q16 0 16 -10zM594 184q0 -8 -21 -20l-2 18q-2 12 7 13q16 -1 16 -11z" />
<glyph unicode="P" horiz-adv-x="1681" d="M225 1595q18 0 19 -6q0 -10 -33 -20l-2 20q0 6 16 6zM266 1511q18 0 19 -6q0 -12 -33 -20q2 4 0 20q-2 6 14 6zM182 1485q-23 8 -22 39q0 25 22 16q6 -2 20.5 -21.5t14.5 -31.5q0 -8 -10 -8q-9 0 -25 6zM145 1378q0 -10 -18 -20l-2 18q0 12 6 13q14 -1 14 -11zM1628 1034 q-35 -12 -43 -26q-10 -39 -13 -105.5t-16 -105.5q-4 -12 -83 -140q-35 -55 -72 -84q-20 -16 -96 -57q-43 -35 -127 -84q-23 -6 -50 -6q-18 0 -54 4t-50 2l-29 -29q-20 -4 -47 -4q-35 0 -94 9.5t-68 9.5q-82 4 -294 -29q-14 -10 -29 -27q-6 -23 -12 -233q-4 -201 -2 -229 l28 -58q0 -23 -14 -38t-14 -17q4 -76 0 -197q-61 0 -142 7q-102 6 -139 8v350q-45 -2 -45 8q0 2 4 6h41q14 23 29 56q2 23 -13.5 103.5t-15.5 92.5q-2 43 8 92q12 59 35 64q2 0 2 4q0 8 -16 37q-20 -12 -21 82q0 72 11.5 151.5t23.5 89.5l14 13q-16 16 -57 28q31 172 31 449 q0 127 -17 141l29 29q-16 2 -16 8q0 4 43 18q0 -18 14 -41q6 -2 27 0q20 4 20 11q0 2 -4 4h55v194h29v29q39 2 39 -14q0 -6 -10.5 -23.5t-10.5 -23.5q0 -10 23 -9q25 2 100 41q70 37 125 29q66 -10 49 -45q-18 -41 6 -53q6 -2 78 5t78 9q10 20 29 43q18 4 28.5 -12.5 t12.5 -16.5q68 18 141 41q4 2 3 19.5t9 23.5q4 -6 15 -69q35 10 34 26q0 8 -6 15q8 4 40 -14.5t59 -12.5q16 12 41 27q-10 -55 -11 -66q0 -55 68 -59q14 0 14 9t15 5l12 -29q-20 16 -21 -4q0 -14 9 -39q59 -14 153 -55q8 -18 29 -43h12q18 -31 12 -76q-8 -51 2 -77 q27 -10 58 -29q6 -43 14 -113zM84 1288q8 4 8 -4l-22 -53q-43 2 -41 0q-6 -12 -2 -41q6 -31 2 -43q-18 0 -19 33q0 39 19 94q14 2 55 14zM49 1126q0 -8 -20 -20l-2 18q-2 12 6 13q16 -1 16 -11zM20 1040q0 -8 -20 -18v18q0 10 6 11q14 -1 14 -11zM160 872q0 -10 -21 -20v18 q0 12 6 13q15 -1 15 -11zM14 950q4 -2 4 -10q0 -14 -18 -45q0 18 -2 37q2 26 16 18zM43 866q18 0 18 -6q0 -10 -32 -20l-2 20q0 6 16 6zM35 537q0 -8 -21 -21l-2 19q0 12 6 12q17 0 17 -10zM20 479q0 -8 -20 -18v18q0 10 6 10q14 0 14 -10zM29 432q6 -2 6 -16q0 -27 -21 -82 q1 106 15 98zM14 264q0 -172 -12 -172q-2 2 -2 17q0 -11 14 155zM18 31q0 -12 -18 -33q0 -2 -2 25q0 18 8 18q12 0 12 -10zM1276 1442q29 -10 29 18q0 23 -43 25q6 -4 8 -8q0 -6 -35 -7q0 -2 8 -14t6 -14h27zM1389 1274q-23 4 -56 14q-12 -18 -28 -43q39 -27 28 -26h41 q-4 2 4 24q5 17 11 31zM1079 1470q8 -2 15 -2q12 0 12 9q0 27 -39 34zM1327 1018q0 45 -17.5 138t-19.5 147q-37 8 -73 14q-49 12 -66 26q-8 8 -8 35t-6 35q-139 -27 -205 -27q-61 0 -105 15q6 16 15 41q10 -4 12 -4t0 6q-4 10 2 12q-8 2 -57 19q-39 14 -62 14 q-12 0 -23.5 -5t-6.5 -26q4 -23 8 -45q-18 2 -21.5 12.5l-5.5 16.5q-10 2 -49 -10q-25 -10 -49 -19l-15 -41q14 -2 41 -14h-139q-4 8 -8 35q-2 8 -20 20q4 -25 0 -70l-41 -14v-41q6 -6 20 -2t21 2q37 -14 28 -141q0 -12 -10 -105q-8 -76 -8 -120q0 -33 4 -56l16 -24 q14 -23 13 -31q-27 -16 -58 -43q6 -12 0 -41q27 -27 58 -57l48 6l64 8q29 -29 41 -27q6 12 14 27q47 0 141.5 -14.5t131.5 -14.5q20 0 37 2q6 0 28.5 19.5t26.5 21.5q33 -4 98 0q51 16 109 80q49 57 72.5 117t23.5 123zM276.5 1283.5q4.5 19.5 4.5 33.5q-2 16 -15 12 q-20 -8 -20 -51q0 -20 12 -21q4 0 9 3.5t9.5 23zM420 797q16 0 -84 4q-63 4 -84 -4l-14 -29v-55q31 8 98 14q2 20 14 41q25 -47 43 -41v27q23 -4 25 4q2 2 -2 18q-2 15 4 21zM1128 1153q0 -12 -20 -33q0 -2 -2 25q0 18 8 18q14 0 14 -10zM1100 1040q0 -8 -21 -18v18 q0 10 6 11q15 -1 15 -11zM877 1223q0 -8 -21 -19l-2 17q0 12 6 12q17 0 17 -10zM1085 956q0 -12 -18 -32q0 2 -2 14t0 20q0 8 6 9q14 -1 14 -11zM897 1161q0 -20 -3 -70.5t-5 -74.5q-2 -29 -4 6q0 25 6 80t6 59z" />
<glyph unicode="Q" horiz-adv-x="1740" d="M1559 1094q0 -8 -19 -19l-2 17q0 12 6 12q15 0 15 -10zM1585 1026q0 -12 -18 -33q0 -2 -2 25q0 18 8 18q12 0 12 -10zM1602 930q0 -8 -21 -21l-2 19q0 12 6 12q17 0 17 -10zM1581 883q6 -2 6 -15q0 -23 -20 -67v51q0 37 14 31zM1608 621q6 -2 6 -11q0 -16 -19 -43 q0 -4 -2 21q-2 18 0 26q5 13 15 7zM1602 532q0 -10 -21 -20l-2 18q0 12 6 13q17 -1 17 -11zM1608 498q6 -2 6 -11q0 -16 -19 -45q0 -2 -2 23q-2 18 0 27q5 12 15 6zM1559 174q0 -8 -19 -20l-2 18q0 12 6 12q15 0 15 -10zM1608 -272q-70 -66 -109 -138q-45 0 -125 15 q-12 6 -23.5 33.5t-18.5 33.5t-68.5 38t-67.5 32q-39 0 -102 -47q-78 -57 -90 -64q-123 -53 -302 -53q-174 0 -290 53q-23 23 -68 56q-39 6 -111 41v28q-4 14 -36 35q-39 25 -45 33q-37 45 -89 153q-59 129 -49 177q0 2 21.5 20.5t21.5 28.5q0 6 -57 33v303q8 137 27 399 l-27 12q6 57 27 193q6 37 69 139q20 10 41 27q-4 16 0 41q31 18 82 55v41q45 12 111 41q0 18 14 41q8 4 28.5 1t26.5 -1q4 -18 27 -55q-6 8 14 28q8 23 -14 41q14 18 41 41q20 -2 55 0l15 29q59 20 151 26q86 4 205 -41l14 -28q6 0 22.5 8t33.5 6q31 -18 67 -41q25 4 70 0 l67 -82q12 -8 36 -8t35 -6t78.5 -104.5t72.5 -114.5q-4 -23 0 -70q0 -2 20.5 -13t20.5 -14q4 -25 -5.5 -62.5t-9.5 -47.5l29 -14q-8 -61 -8 -136q0 -74 12 -220t12 -218q0 -53 -4 -100l-26 -53q4 -51 0 -152q-14 -47 -41 -152q23 4 41 -14q-8 8 -15 8q-14 0 -12 -49 q43 -25 108 -82q0 -16 15 -41q23 4 55 0q8 -6 14.5 -34.5t12.5 -34.5zM1155 279q4 23 -14 149q29 14 28 182q0 137 -17 295t-38 197q-10 20 -50 48t-46 36q-4 2 4 14l8 12q-145 109 -205 111q-10 0 -17 -9t-24 -5v26h-84l-26 -26q-20 -6 -67.5 -6t-67 -7.5t-45.5 -31.5 q-35 -33 -41 -37q-135 -96 -150 -254q-8 -188 -14 -379q0 2 -9.5 -31t-5.5 -51l29 -41q2 -20 -13.5 -61t-15.5 -50q0 -25 16.5 -124t25 -123.5t44 -77.5t52.5 -60q12 4 41 0q6 -4 8 -21t6 -20q12 -8 34.5 -8t35.5 -6q23 -25 67 -55q23 -6 47 -6q39 0 90 14q35 10 70 21 q25 -4 70 0q35 18 34 51q0 37 -45 88q-37 41 -73 65q-20 0 -56 15q-12 10 -15 33.5t-11 35.5q68 57 137 123v27q16 -2 41 0q100 -49 111 -82v-27q18 -14 56 -23.5t54 -17.5q18 36 41 97zM735 985q0 -8 -20 -20q0 -2 0 18q0 12 6 12q14 0 14 -10zM721 874q0 -8 -21 -20l-2 18 q0 12 7 13q16 -1 16 -11zM700 827q6 -2 7 -8q0 -12 -19 -33q0 -2 -2 19q-2 12 0 18q4 10 14 4zM508 950q-16 0 -16 56q0 55 16 55v-111zM502 915q0 -8 -21 -18l-2 16q0 12 6 13q17 -1 17 -11zM496 786q-16 0 -17 35q0 39 17 33v-68zM700 621q6 -2 7 -11q0 -16 -19 -43 q0 -4 -2 21q-2 18 0 26q4 13 14 7zM715 457q-16 0 -17 35q0 39 17 32q0 1 0 -67zM481 580q6 -2 6 -15q0 -27 -20 -82v60q0 43 14 37zM500 420q0 -12 -19 -33q0 -2 -2 27q0 16 8 16q13 0 13 -10zM514 242q0 -8 -18 -19l-2 17q0 12 6 12q14 0 14 -10z" />
<glyph unicode="R" horiz-adv-x="1636" d="M1522 934q0 -8 -21 -19l-2 17q0 12 6 12q17 0 17 -10zM1522 852q0 -8 -21 -18v16q0 12 6 12q15 0 15 -10zM1507 756q0 -8 -18 -19l-2 19q0 10 6 10q14 0 14 -10zM1249 430q0 -8 -20 -20l-2 18q0 10 6 10q16 0 16 -8zM1303 238q0 -8 -19 -19l-2 17q-2 12 6 12q15 0 15 -10 zM1384 115q0 -8 -18 -19l-2 17q0 12 6 12q14 0 14 -10zM1454 18q0 -8 -20 -18v18q0 10 6 11q14 -1 14 -11zM1202 287l-24 -11q-25 -10 -31 -10q-2 0 -2 2q2 6 16 19q8 4 27 14q6 2 10 2q0 -2 2 -6q-4 -8 2 -10zM1407 -383q-10 -2 -18.5 -14.5t-10.5 -12.5q-16 -4 -123 11 q-125 16 -135 16q2 20 0 55q-27 25 -55 68q-2 14 8 28.5t10 24.5q0 6 -4 17.5t-33.5 21.5t-37 20.5t-7.5 32t-4 33.5q-23 25 -55 68q-12 25 -16 55q-6 41 -11 55q10 2 41 41q-76 18 -119.5 103.5t-84.5 169.5h-29q0 18 -12 41q-25 12 -109 12h-117q-20 0 -34 2 q0 -20 -1 -38.5t-14 -31.5v70h-82q-18 -12 -41 -41q-8 -29 -4 -82q6 -66 4 -82q-2 -215 -26 -629q-18 -2 -31.5 8.5t-36.5 6.5v-29q-45 -14 -78 -12h-73q-18 14 -41 41q-2 10 -2 18q0 12 9 41t7 49q-20 59 -41 150q-8 145 14 246q12 20 27 55q4 61 -12 190q-18 141 -19 207 q0 43 4 80q0 2 17 53q12 43 10 58q-18 14 -41 53q-6 59 14 190q12 88 27 178q4 41 -11.5 91.5t-15.5 60.5q-2 41 11 117q16 104 16 114q10 4 24.5 15.5t16.5 11.5q12 4 24 4q18 0 42 -14.5t30 -16.5q-20 0 27 15q20 -8 55 -15l27 27q33 8 75 8q43 0 136 -12q82 -12 116 -8 q6 0 47 13t50 13l26 -26q23 -6 76 0t74 0l28 -29q25 -4 101 -8q55 -2 90 -19q14 -25 41 -55q18 2 55 0q25 -8 53 -59q20 -37 41 -76h29q-2 -18 0 -55q4 -12 32.5 -40t35.5 -42q20 -57 20 -119q0 -59 -35 -195q-4 -14 -14 -94q-8 -53 -27 -84q-27 -18 -67 -55 q-23 -41 -82 -109q-51 -25 -150 -81q25 -74 49.5 -147t18.5 -155q16 -4 26.5 4.5t14.5 10.5q4 -10 20.5 -15.5t20.5 -11.5q10 -41 26 -110l-18 2q-10 2 -10 -7q0 -20 14 -20q6 0 16.5 7t12.5 5t40 -64.5t42 -72.5q8 -43 41 -123l26 -14q6 -29 -14 -84q-25 -72 -27 -80 q31 4 70 0zM1501 -246q-29 4 -52.5 8.5t-21.5 6.5t48 0q0 20 1 38.5t13 28.5q-4 -2 -4 -10q0 -14 4 -28zM682 369q6 -2 6 -15q0 -23 -18 -67q0 88 12 82zM682 137q-2 -23 -2 -35v70q2 76 2 74v-109zM674 59q0 -12 -19 -32q0 -2 -2 26q0 16 9 17q12 -1 12 -11zM682 -55 q6 -2 6 -17q0 -27 -18 -78q0 103 12 95zM465 190q0 -35 -6 -104q-8 -82 -8 -86q0 35 6 104q8 82 8 86zM477 -82q6 -2 6 -10q0 -16 -18 -45q0 -2 -2 22q-2 18 0 27q4 12 14 6zM477 -178q6 -2 6 -8q0 -12 -18 -33q0 4 -1 18.5t1 20.5q2 8 12 2zM1133 1092h-41q12 10 41 14 q-16 51 -33 102q-25 68 -49 76q-16 -4 -41 0q-8 29 -41 68q-41 14 -80 14q-31 0 -92.5 -14.5t-100.5 -14.5q-31 0 -114.5 18.5t-132.5 18.5q-35 0 -66 -8q-78 -18 -78 -162q0 -39 8 -112q6 -66 4 -170q-4 -178 -4 -185q51 -12 123 -26q0 35 6 104q8 82 9 86v-190q-4 0 69 4 q43 2 68 -4q14 -12 41 -29q6 14 12 29h29q-8 6 -13 8v0q12 -6 39 -23q10 8 23 17q20 12 45 10q8 0 34.5 -14.5t47.5 -12.5q18 20 41 41q20 -2 55 0q14 18 41 41q104 61 131 131q19 46 19 183zM997 342q-59 -39 -69 -55q6 -14 0 -41h28q10 6 33 43t23 51q0 4 -4 4 q-5 0 -11 -2zM682 1065q6 -2 6 -14q0 -23 -18 -68q0 88 12 82zM455 1247q0 -12 -19 -33q0 -2 -2 27q0 16 8 16q13 0 13 -10zM469 1194q0 -12 -18 -33q0 -2 -2 25q0 18 8 18q12 0 12 -10zM682 942q6 -2 6 -8q0 -12 -18 -33q0 2 -1 17.5t1 19.5q2 8 12 4zM457 1126 q0 -8 -21 -20v18q-2 10 6 11q15 -1 15 -9zM465 1092q0 -154 -12 -154q-2 2 -2 18q0 15 14 136z" />
<glyph unicode="S" horiz-adv-x="1687" d="M1587 352q0 -8 -20 -20q0 -2 0 18q0 12 6 12q14 0 14 -10zM1614 285q0 -8 -19 -21l-2 19q-2 12 4 12q4 0 10.5 -3t6.5 -7zM1602 174q0 -8 -21 -20l-2 18q0 12 8 12q4 0 9.5 -3t5.5 -7zM770 909q-16 0 -16 35q0 39 16 35v-70zM1587 131q0 -8 -20 -18v18q0 10 6 10 q14 0 14 -10zM549 813q-16 0 -17 55q0 55 17 56v-111zM1485 264q-20 -190 -31 -235q-25 -121 -80 -205q-12 -18 -51 -53t-59 -43q-23 0 -68 -15q-8 -18 -29 -41q-23 -14 -57 -16q-45 -4 -66 -10q-39 -25 -96 -56q-23 -4 -57.5 5.5t-38.5 9.5q-223 -2 -283 2 q-145 8 -254.5 53t-314.5 193q35 57 68 114q53 82 84 90q16 4 28 4q33 0 60.5 -30.5t50 -30.5t65.5 -10q8 -27 29 -56q27 -12 79 -11t73 -3q37 -27 96 -55q16 -2 34.5 13.5t20.5 15.5q25 4 62.5 -12.5t46.5 -16.5q61 -2 221 82q12 -4 41 0q10 4 65.5 60t57.5 65q12 39 12 84 q0 74 -27 135q-47 106 -186 135q-147 14 -293 31l-29 26q-29 -4 -81 0q-53 12 -179 74q-135 63 -151 92q0 20 -15 56q-27 16 -67 53q-37 59 -49 180q-10 102 -21 205q14 6 27 14q74 274 207 359q6 2 166 96q29 4 38 -14.5t29 -14.5q10 20 29 41q29 12 123 14q98 2 231 -21.5 t221 -60.5q12 -6 18.5 -22t12.5 -19.5t16 -3.5q12 0 29 8.5t21 8.5q20 -2 63 -41q31 -29 62 -55q-4 -10 -29 -68q-8 -18 -28.5 -38.5t-24.5 -31.5l12 -41q-20 -18 -55 -55q-102 41 -342 111l-41 26q-45 6 -90 6q-174 0 -287 -73q-125 -82 -125 -230q0 -29 6 -59 q8 -55 80 -117q66 -59 127 -76q74 -20 207 -28q145 -12 219 -27q37 -8 123 -41l14 -28q29 2 82 -13q8 -25 27 -55q25 0 69 -14l111 -179q8 -23 8 -55v-20q0 -27 4 -47zM592 43q-16 -2 -17 8q0 16 17 21q16 4 16 -2q0 -9 -16 -27zM152 -66q41 0 41 13q0 14 -41 14v-27z" />
<glyph unicode="T" horiz-adv-x="1490" d="M1409 1163q0 -8 -20 -20l-3 18q0 12 7 13q16 -1 16 -11zM1409 1081q0 -8 -20 -20l-3 18q0 12 9 13q4 0 9 -3.5t5 -7.5zM1223 1047q23 -2 24 -5q0 -2 -39 0q-35 0 -62.5 2.5t-4.5 2.5q66 2 82 0zM989 854q-16 0 -16 35q0 39 16 35v-70zM1004 649q-16 0 -17 56q0 53 17 53 v-109zM995 612q0 -8 -18 -18l-2 18q0 10 6 11q14 -1 14 -11zM344 1198q6 -2 6 -10q0 -16 -20 -45q0 18 -2 37q2 26 16 18zM995 530q0 -12 -18 -32q0 2 -2 14t0 20q0 8 6 9q14 -1 14 -11zM350 1094q0 -8 -20 -19v19q0 10 6 10q14 0 14 -10zM1004 319q-16 0 -17 33q0 39 17 35 v-68zM1389 1516q4 -12 -15 -152q-199 -29 -231 -29q-61 0 -125 15q-8 2 -35 22.5t-35 18.5v-27q-39 -16 -74.5 -34.5t-48.5 -61.5q-4 -10 41 -29h-41q10 -61 27 -178q-45 -23 -41 -27q55 -41 41 -207q-2 -14 -16 -90q-12 -61 -11 -102l27 -41v-27q0 -27 -2 -53q2 -98 2 -113 q-2 -18 -17.5 -84.5t-15.5 -105.5q0 -31 6 -57l27 -27q12 -121 -14 -262q0 -4 -17 -35q-14 -23 -10 -47l27 -14q20 -31 20 -60q0 -47 -61 -92l-27 -27h-96q4 0 -27 6.5t-43 8.5q4 -4 6 -8q0 -6 -32 -7q-18 27 -15 27h-14q0 68 14 289q0 -4 -14 166q-6 72 2 194l12 176 q4 70 -2 203q-8 158 -8 213q0 94 10 162h-41v14h41q-8 51 -7 156.5t-7 159.5q-178 20 -397 14q-20 -6 -39 -10q-39 -10 -58 -4q-20 18 -55 41q8 100 0 178q8 23 12 22q2 0 2 -8l13 41q16 -2 71 -10q45 -8 72 -8t49 6q12 12 43 26q20 2 43 2q51 0 156.5 -14t142.5 -14 q6 0 30.5 8t41.5 8q14 0 24 -4q14 -20 29 -41q20 -2 60 25.5t49 29.5q29 4 60.5 -11t35.5 -15q29 -4 110 4q96 12 121 12q20 0 31 -4q20 -27 55 -55q10 -4 23 -4q10 0 29.5 3t27.5 3q40 0 58 -55zM1010 270q0 -8 -21 -20l-2 18q0 12 6 13q17 -1 17 -11zM989 223q6 -2 6 -16 q0 -27 -18 -80q0 -8 -2 35q0 31 2 48t12 13zM1024 -225q0 -8 -20 -19l-3 17q0 12 7 12q16 0 16 -10z" />
<glyph unicode="U" horiz-adv-x="1744" d="M1575 1399q0 -12 -19 -33q0 -2 -2 25q0 18 9 18q12 0 12 -10zM1597 1188q-16 0 -16 33q0 39 16 34q0 1 0 -67zM1597 1024q-16 0 -16 33q0 39 16 35v-68zM1618 989q0 -8 -21 -20l-2 18q0 12 9 12q4 0 9 -3t5 -7zM1602 934q0 -12 -19 -33q0 -2 -2 25q0 18 8 18q13 0 13 -10 zM1602 797q0 -12 -19 -33q0 -2 -2 27q0 16 8 16q13 0 13 -10zM1612 670q0 -57 -6 -166q-8 -121 -9 -150q1 37 15 316zM743 1167q0 -8 -20 -20v18q-2 10 6 11q14 -1 14 -9zM518 1366q6 -2 6 -8q0 -12 -18 -33q0 2 -1 17.5t1 19.5q2 8 12 4zM551 1276q0 -12 -19 -33 q0 -2 -2 25q0 18 9 18q12 0 12 -10zM758 1059q0 -10 -21 -21l-2 19q0 12 6 12q17 0 17 -10zM1575 238q0 -12 -19 -33q0 -2 -2 24q0 18 9 19q12 0 12 -10zM518 1188q6 -2 6 -8q0 -12 -18 -33q0 2 -1 17.5t1 19.5q2 8 12 4zM743 948q0 -8 -20 -20q0 -2 0 18q0 12 6 12 q14 0 14 -10zM737 819q-16 0 -16 33q0 39 16 35v-68zM752 670q-16 0 -17 32q0 39 17 35q0 1 0 -67zM756 621q0 -12 -19 -33q0 -2 -2 24q0 18 8 19q13 0 13 -10zM1475 1448q-16 -14 -56 -29q-4 -86 4 -176q8 -127 11 -164q4 -141 0 -205l-27 -55q-2 -29 12.5 -60.5 t14.5 -35.5q2 -29 -8.5 -134.5t-6.5 -152.5q16 -131 15 -164q-2 -35 -31 -98q-33 -78 -37 -92q4 -23 0 -68l-29 -14q-6 -18 -2 -43q4 -23 2 -25h-41q2 -25 0 -55q-20 -8 -53 -27q-8 -33 -29 -69q-16 2 -40 0q-4 -18 -13 -41q-14 4 -41 0q-14 -25 -41 -53q-12 -6 -34.5 -1 t-34.5 1q-12 -20 -27 -41q-8 -2 -19.5 14t-21.5 12q-8 -4 -23.5 -33.5t-28.5 -32.5t-24 -3q-12 0 -38.5 8t-49.5 6q-6 -12 -14 -27q-156 0 -258 27l-29 29q-6 2 -25.5 0t-27.5 0t-96 58t-97 65q-4 25 -26 67q-27 10 -68 41q-29 33 -65 115q-33 76 -45 131q-10 45 -11 90 q0 25 6.5 84t4.5 98q-12 59 -27 137q-4 63 10 166q16 117 17 148q0 31 -13.5 121t-13.5 112q0 14 14 82q0 -2 -2 -4q-2 0 2 60v38q8 59 17 117q12 72 24 62q-6 14 -14 26q-29 53 -14 152h151q14 -25 41 -56q33 2 82 0v-40h-29q-4 -18 9 -33q20 -20 20 -23q-6 -12 -14 -26 q-2 6 -4 6q-4 0 -11 -33q27 -6 27 -72q0 -80 -27 -106q-4 -4 -4 -12q0 -33 23 -33q4 0 10 4q18 -35 18 -53q0 -10 -6 -15l-12 -8q2 -8 0 -20q-23 0 -22 -43q0 8 22 -134q-8 -31 -14 -81q0 -4 13 -48.5t13 -48.5q6 -70 -14 -162q-25 -113 -27 -139q-4 -55 28 -207.5 t54 -187.5q4 -8 28 -14.5t28 -12.5q10 -29 41 -69q37 -8 96 -27q16 -20 41 -41h108q0 -18 15 -41q16 2 41 0q10 23 41 55q18 8 55 8.5t53 4.5q47 14 103 69q51 49 75 95q20 37 50 146.5t32 154.5q0 18 -41 149q-2 25 10 103q16 92 17 102q8 117 -14 260q6 -6 10 -6t3 9t1 11 q2 70 0 205q0 10 -17 80q-14 59 -10 84q20 25 41 53q2 12 2 27q0 27 -10 86q-8 51 -6 65q20 18 41 41q33 -4 178 0q2 -55 4 -69q6 -43 23 -68q20 -8 41 -26v-27q16 4 41 0zM518 805q6 -2 6 -8q0 -12 -18 -33q0 4 -1 18.5t1 20.5q2 8 12 2zM741 551q0 -12 -18 -33q0 -2 -2 27 q0 16 8 16q12 0 12 -10zM741 442q0 -12 -18 -32q0 -2 -2 24q0 18 8 19q12 -1 12 -11zM518 588q-16 0 -16 55q0 53 16 53q0 1 0 -108zM752 395q4 -2 4 -10q0 -14 -19 -43q0 18 -2 35q3 26 17 18zM532 559q6 -2 7 -14q0 -20 -21 -68v51q0 37 14 31zM537 346q0 -12 -19 -33 q0 -2 -2 27q0 16 8 16q13 0 13 -10zM553 252q0 -8 -21 -21l-2 19q0 12 9 12q4 0 9 -3t5 -7zM594 156q0 -8 -21 -19l-2 17q0 12 7 12q16 0 16 -10zM1296 1597q-4 -14 -12 -41q39 6 39 27q0 16 -27 14zM1311 711q0 14 2 28q-2 16 -17 13q-14 -2 -14 -15q0 -20 29 -26z M246 1188q-8 8 -3 24.5t-24 16.5v-41h27zM219 -96q12 20 12 33q0 16 -26 8q-6 -2 -6 -6q0 -12 20 -35z" />
<glyph unicode="V" horiz-adv-x="1806" d="M1702 1053q4 -2 4 -11q0 -14 -16 -43q0 -2 -2 23q-2 16 1 26.5t13 4.5zM1667 926q0 -12 -18 -33q0 -2 -2 25q0 18 8 18q12 0 12 -10zM1462 999q4 -2 4 -10q0 -14 -16 -43q0 -2 -2 23q-2 16 1 26t13 4zM1622 760q-16 0 -16 37q0 35 16 30q0 1 0 -67zM1454 911 q0 -10 -18 -30q0 -2 -2 24q0 16 8 17q12 -1 12 -11zM1595 653q-16 0 -16 37q0 35 16 31v-68zM1430 793q0 -8 -21 -19l-2 17q0 12 6 12q17 0 17 -10zM1389 698q0 -6 -19 -18l-2 18q0 10 6 11q4 0 9.5 -2.5t5.5 -8.5zM1374 659q0 -12 -18 -32q0 -2 -2 26q0 16 8 17 q12 -1 12 -11zM1530 508q4 -2 4 -10q0 -14 -18 -43v34q0 27 14 19zM1356 602q4 -4 4 -10q0 -10 -17 -31q-2 -8 -2 29q1 18 15 12zM799 1026q4 -2 4 -10q0 -14 -19 -43q0 18 -2 35q3 26 17 18zM1317 496q4 -2 4 -11q0 -14 -18 -43v35q0 25 14 19zM856 858q0 -10 -18 -31 q0 -2 -2 25q0 16 8 16q12 0 12 -10zM1442 195q0 -8 -19 -19v17q-2 12 4 12q15 0 15 -10zM1397 109q4 -2 4 -11q0 -14 -19 -43v35q1 27 15 19zM651 813q4 -2 4 -10q0 -14 -16 -43q0 -2 -2 22q-2 16 1 26.5t13 4.5zM1477 1532q-2 -12 -27 -35.5t-27 -30.5q-10 -23 -12 -61.5 t-14 -58.5l-27 -13q-6 -16 -1 -53t1 -53q-18 -16 -41 -41q-4 -16 0 -53t0 -54q0 -4 -18.5 -26.5t-20.5 -26.5q0 -25 -14 -80q-18 -14 -39 -39q4 -31 0 -94q-18 -20 -41 -53q2 -20 0 -66q-6 -23 -41 -84t-39 -88q4 -20 0 -53q-25 -25 -53 -68q-4 -47 -27 -145l-12 -14 q12 8 14 -19q2 -23 -2 -35h-39q-20 -96 -79 -254q-59 -164 -80 -251q-10 -2 -66 -11q-45 -8 -72 -8t-49 6l-12 27q-16 2 -41 27q-25 51 -39 139q-16 119 -27 153l-26 13q-8 18 -8 47.5t-6 46.5q-29 47 -66 133q4 23 0 66q-31 49 -68 133q4 33 0 94q-18 16 -39 39q2 20 0 53 q-6 29 -36 80q-37 57 -43 80q0 33 -15 106q-18 25 -39 66q-2 16 6.5 39.5t6.5 27.5q-25 23 -54 66q-8 31 0 68l15 26q-23 8 -54 39q-10 31 -10 102v43q-2 31 -5 41.5t-25.5 29t-26.5 24.5q-12 27 -39 120v27q125 -16 279 0l14 -41q0 6 4 6q8 0 8 -22q0 -29 -26 -49 q25 -6 53 -27q4 -14 -6.5 -31.5t-6.5 -36.5q18 -10 39 -26q18 -31 27 -82q10 -76 14 -90l27 -27q25 -94 27 -147q0 -12 -9.5 -25.5t-5.5 -28.5q20 -4 41 -12q12 -31 14.5 -75t12.5 -72q39 -86 92 -252q-4 -37 0 -107q18 -8 41 -26q10 -20 10 -66q-2 -51 2 -67 q27 -47 68 -134q18 4 39 15q8 14 9 40.5t5 39.5q29 43 66 118q-2 20 0 54q25 23 53 53q-6 45 0 145q6 29 40 83.5t40 76.5q4 16 0 48t0 46q25 27 53 66q8 23 20 139q10 94 33 115q2 2 39 12q-18 16 -18 47q0 39 32 109q39 80 39 84q-4 31 0 80q16 10 41 26q35 33 47 33 q2 0 15.5 -6t27.5 -6q18 0 43 6q12 12 39 26q98 12 99 -69q0 -17 -4 -37zM1229 141q0 -8 -19 -18l-2 16q0 12 6 13q15 -1 15 -11zM1376 -4q0 -8 -20 -21l-2 19q0 10 6 10q16 0 16 -8zM1350 -59q0 -8 -21 -19v19q0 10 6 10q15 0 15 -10zM752 487q0 -8 -21 -18l-2 16 q0 12 6 13q17 -1 17 -11zM1176 8q0 -8 -19 -18v16q-2 12 4 12q15 0 15 -10zM1081 100q0 -10 -18 -30q0 -2 0 24q0 16 8 17q10 -1 10 -11zM791 381q0 -8 -19 -19l-2 17q0 12 6 12q15 0 15 -10zM1323 -152q0 -8 -20 -18l-3 16q0 12 7 13q16 -1 16 -11zM1290 -211q4 -2 4 -10 q0 -14 -18 -43v35q0 26 14 18zM1270 -311q0 -8 -21 -19v17q0 12 6 12q15 0 15 -10zM1241 -379q0 -10 -18 -31q0 -2 0 25q0 16 8 16q10 0 10 -10zM1030 -311q0 -8 -18 -19l-2 19q0 10 6 10q14 0 14 -10zM1036 -356q6 -2 6 -9q0 -12 -18 -32q0 4 -1 18t1 21q2 8 12 2z M1317 1346q-2 4 0 13t0 11q-2 4 -14 2t-13 -10q0 -12 27 -16zM346 614q27 -8 27 11q0 27 -27 28v-39z" />
<glyph unicode="W" horiz-adv-x="2435" d="M1776 1118q0 -12 -19 -33q0 -2 -2 25q0 18 8 18q13 0 13 -10zM1702 1167q27 -2 29 -4q-27 0 -54 2q-53 2 -16 2h41zM1757 1057q6 -2 6 -10q0 -16 -20 -46q0 18 -2 37q2 27 16 19zM1743 987q6 -2 6 -10q0 -16 -18 -45q0 -2 -2 22q-2 18 0 27q4 12 14 6zM1542 1077 q0 -8 -20 -20v18q0 12 6 12q14 0 14 -10zM1720 856q0 -14 -18 -35q0 -2 -2 27q0 18 8 18q4 0 8 -2t4 -8zM1513 967q0 -8 -18 -21l-2 19q-2 12 6 12q14 0 14 -10zM1681 690q0 -10 -20 -20l-2 18q0 12 8 12q4 0 9 -3t5 -7zM1667 649q0 -8 -20 -20l-2 16q0 12 6 12q16 0 16 -8z M1638 537q0 -8 -18 -19l-2 17q0 12 6 12q14 0 14 -10zM2324 1583q-8 -84 -40 -262q-18 -31 -41 -84q4 -23 0 -70q-20 -25 -43 -55q2 -33 0 -96q-25 -47 -56 -125q-10 -41 -14 -107q-4 -74 -12 -114q-6 -31 -42 -107t-42 -101.5t-6 -80.5t-9 -84q-18 -29 -41 -70 q-8 -31 -12 -86q-2 -47 -14 -80q0 -2 -13.5 -7t-15.5 -7q-8 -29 -8 -77t-6 -74q-25 -53 -56 -140q6 -43 0 -125q-16 -12 -41 -41q-70 -4 -116 -4q-47 0 -105 4q-53 160 -125 471q-25 49 -55 125q-2 41 -14 123l-27 29q-12 47 -20.5 132t-20.5 130q-18 27 -43 70q4 29 0 84 q-18 20 -41 55q-6 23 -8 94q-2 59 -18 84q-6 8 -28 16.5t-28 12.5q-18 -23 -43 -55q4 -29 0 -84l-41 -41q14 -8 13 -41q0 -33 -13 -41q14 -4 15 -21q0 -37 0 -35q-10 -2 -29 41q4 -29 0 -84q-18 -14 -41 -41q-14 -37 -20 -120q-4 -90 -9 -101l-26 -14q-14 -37 -19 -94 q-4 -70 -10 -99q-25 -41 -55 -112q-6 -23 -6 -54v-24q0 -33 -7 -59l-28 -29q4 -25 0 -68l-27 -14q4 -29 0 -84q-20 -53 -55 -152q-27 4 -55 4q-25 0 -71 -5t-71 -5q-33 0 -67 6q12 18 14 70l-41 41q-2 18 7 32.5t5 37.5l-26 26q-8 27 -8 70t-7 70q-18 33 -41 81 q-12 49 -13 142.5t-15 148.5q0 4 -20.5 15.5t-20.5 13.5q-16 37 -17 94q-2 68 -10 98l-29 29q-27 102 -55 236q0 14 8.5 23t6.5 18l-29 28q-29 111 -55 277h-97q37 8 84 14q-12 37 -16 89t-12 89l-27 29q-33 119 -43 192q-4 25 14 84q102 -14 262 0q20 -20 43 -55 q4 -20 -6 -41.5t-8 -42.5l27 -12q14 -39 28 -180q-2 -74 15 -222l26 -14q10 -27 33 -135q20 -100 23 -127q2 -14 -7.5 -23.5t-7.5 -19.5q25 -39 58 -111q-4 -43 0 -125q25 -41 55 -110q12 -78 41 -221q25 8 55 28q-2 20 0 56q25 35 56 96q10 35 13 90t13 90q20 23 43 55 q-4 33 0 97q18 10 41 28q18 41 19 121q2 94 8 127q25 35 55 98q-2 41 14 125l29 13q2 12 -7 16t-9 14q0 4 2 13l26 26q8 27 8.5 70t6.5 70q20 57 55 178q25 2 105.5 14t103.5 14q47 -190 110 -387q6 -43 27 -125l29 -14q4 -25 -6.5 -70t-8.5 -55q0 -2 33 -57.5t37 -65.5 q41 -123 41 -235v-29q20 -8 41 -27q10 -23 10 -61q2 -53 4 -63q18 43 29 40q-8 -4 -8 -28q0 -96 49 -248q10 8 39 10q23 2 31 19q16 29 18 90q2 78 8 102q23 49 55 139q6 61 29 207q20 49 41 125q-4 39 0 111q18 16 41 41q10 33 9 98.5t5 95.5q29 61 70 166q2 4 16 99 q10 72 25 81q16 -10 55 -14q23 20 56 41q18 4 36 4l115 -18q4 -10 0 -19q0 -2 14 -8zM768 981q0 -8 -20 -20l-3 18q0 10 7 10q16 0 16 -8zM1126 618q0 -12 -18 -32q0 2 -2 16q-2 12 0 19q0 10 6 10q14 -1 14 -13zM1169 496q0 -8 -20 -21l-2 19q0 12 6 12q16 0 16 -10z M1176 379q-16 0 -17 37q0 37 17 33v-70zM1341 227q6 -2 7 -8q0 -12 -19 -33q0 -2 -2 19q-2 12 0 18q4 10 14 4zM719 821q6 -2 6 -8q0 -12 -18 -33q0 -2 -2 19q-2 12 0 18q4 10 14 4zM1225 289q0 -8 -21 -21q0 -2 0 19q0 12 6 12q15 0 15 -10zM1335 123q0 -8 -20 -21l-2 19 q0 14 6 14q16 0 16 -12zM1245 213q6 -2 6 -10q0 -16 -20 -45q0 18 -2 37q2 26 16 18zM1485 -72q0 -12 -19 -32q0 -2 -2 24q0 18 9 19q12 -1 12 -11zM1028 315q0 -12 -18 -32q0 -2 -2 24q0 18 8 19q12 -1 12 -11zM1042 260q0 -12 -18 -33q0 -2 -2 25q0 18 8 18q12 0 12 -10z M678 559q-16 0 -16 35q0 39 16 35v-70zM1057 205q0 -12 -19 -33q0 -2 -2 25q0 18 8 18q13 0 13 -10zM1071 135q0 -8 -18 -18l-2 18q0 10 6 10q14 0 14 -10zM1085 82q0 -8 -20 -21l-2 19q0 12 6 12q4 0 10 -3t6 -7zM657 496q0 -8 -20 -21l-2 19q0 12 6 12q16 0 16 -10z M20 1133q0 -8 -20 -21l-2 18q0 12 6 13q16 0 16 -10zM1114 12q0 -8 -20 -20l-2 18q0 10 6 10q16 0 16 -8zM35 1077q0 -8 -21 -20l-2 18q0 12 6 12q17 0 17 -10zM1425 -285q6 -2 7 -14q0 -23 -21 -70v54q0 36 14 30zM1126 -31q0 -12 -18 -32q0 2 -2 14t0 20q0 8 6 9 q14 -1 14 -11zM47 1034q0 -12 -18 -33q0 2 -2 15q-2 12 0 20q0 8 6 8q14 0 14 -10zM1141 -98q0 -8 -21 -21l-2 19q0 10 6 10q17 0 17 -8zM623 434q4 -2 4 -10q0 -14 -19 -45q0 18 -2 37q3 26 17 18zM59 979q0 -12 -18 -33q0 -2 -2 25q0 18 8 18q12 0 12 -10zM1169 -197 q0 -8 -20 -18l-2 16q0 12 6 13q16 -1 16 -11zM1356 -395q27 -2 28 -4q0 -2 -53 0q-51 2 -16 4h41zM76 883q0 -8 -21 -19l-2 17q0 12 6 12q17 0 17 -10zM1182 -252q0 -12 -19 -33q0 2 -2 15q-2 12 0 20q0 8 6 8q15 0 15 -10zM102 801q0 -8 -18 -21l-2 19q0 12 6 12 q14 0 14 -10zM129 702q0 -12 -18 -32q0 -2 -2 24q0 18 8 19q12 -1 12 -11zM158 592q0 -6 -19 -19l-2 19q-2 12 4 12q4 0 10.5 -3t6.5 -9zM172 539q0 -8 -20 -21l-2 19q0 12 6 12q4 0 10 -3t6 -7zM199 412q0 -12 -19 -33q0 -2 -2 24q0 18 8 19q13 0 13 -10zM240 289 q0 -14 -19 -35q0 -2 -2 27q0 18 8 18q4 0 8.5 -2t4.5 -8zM309 -31q0 -12 -18 -32q0 -2 -2 24q0 18 8 19q12 -1 12 -11zM350 -168q0 -14 -18 -35q0 -2 -2 27q0 18 8 18q4 0 8 -2t4 -8zM367 -238q0 -8 -21 -20l-2 18q0 12 6 13q17 -1 17 -11z" />
<glyph unicode="X" horiz-adv-x="1710" d="M911 1268q0 -8 -20 -19l-2 17q0 12 6 12q16 0 16 -10zM516 1638q27 -2 29 -2q-61 0 -72 2h43zM670 1290q4 -2 4 -10q0 -14 -19 -45q0 -6 -2 22q0 18 3.5 28.5t13.5 4.5zM1329 586q0 -8 -20 -21v19q0 12 6 12q14 0 14 -10zM1622 113q0 -10 -20 -21v19q0 12 6 12q4 0 9 -3 t5 -7zM1532 -381l2 -2q0 -2 -8 -11t-8 -16q-143 -18 -195 0q-4 2 -41 41q-10 2 -18.5 -12t-10.5 -14q-18 2 -55 0q-25 31 -39 73q-18 57 -31 80q-35 35 -84 97q-14 25 -28.5 70.5t-26.5 68.5q-37 43 -110 182q-14 6 -29 14q-16 37 -55 111q-23 0 -70 -14q-12 -6 -67.5 -86 t-57.5 -95q-2 -12 7 -24t5 -19h-41q-18 -14 -41 -40q-12 -25 -16 -62q-4 -2 -82 -22q4 -158 -55 -238q-16 -8 -43 -27q0 -16 -15 -43q-47 -41 -155 -41q-61 0 -150 15q2 8 2 14t-9 11t-7 16q2 8 27.5 22.5t27.5 20.5q12 25 27 86q12 55 29 80q29 16 69 55q10 16 15.5 51 t13.5 47q4 6 21.5 14.5t19.5 14.5q23 35 50.5 105.5t47.5 103.5q29 25 70 69q0 23 14 70q23 12 55 41q104 156 99 223q-2 25 -41 72t-43 67q2 16 0 41q-27 18 -70 58q-6 6 -2 20t2 21q-18 18 -43 41q0 25 -12 69q-33 20 -70 58q-6 12 -1 41.5t1 42.5q-4 10 -33.5 52 t-35.5 44h-29q-10 14 -15.5 40.5t-14.5 46t-47 61.5t-48 61q-14 41 -55 125q115 10 170 10q102 0 149 -23q35 -16 47 -65q16 -76 23 -88q14 -27 68.5 -76t70.5 -78q12 -37 43 -110h12q-4 -25 0 -72q16 -2 43 -12q8 -8 8.5 -34t5.5 -35t28.5 -22.5t27.5 -21.5q-4 -12 0 -41 q35 -2 96 14q31 74 70 166q20 18 43 43q-4 18 0 41q16 0 41 15q10 37 43 110q23 20 55 58q10 20 13.5 54t13.5 56q31 25 69 70v28q23 16 41 17q8 0 25.5 -5t30.5 -5q14 0 30 6q2 2 9.5 15t17.5 13q29 0 95.5 -14t99.5 -14q-33 -86 -82 -166l-29 -14q4 -12 0 -41 q-18 -10 -41 -29q-27 -61 -98 -180q-18 -10 -41 -29q2 -14 0 -43q-29 -53 -70 -125q-35 -33 -84 -96q0 -25 -14 -70q-41 -49 -80 -96q-51 -68 -45 -127q2 -27 67 -111q78 -98 86 -112q12 -35 41 -111h29q-4 -20 0 -57q25 -14 55 -41q16 -25 35 -77t35 -77q29 -23 70 -69 q6 -10 6 -35t8 -35l27 -14q2 -12 -8.5 -25.5t-10.5 -19.5q0 -4 5 -12.5t33 -13.5t39 -14.5t39 -76t42 -74.5zM600 371q-2 4 0 20q2 8 -14 8z" />
<glyph unicode="Y" horiz-adv-x="1474" d="M1581 1421q0 -8 -20 -20l-2 18q0 12 6 13q16 -1 16 -11zM745 1395q0 -8 -20 -21l-2 19q-2 12 6 12q16 0 16 -10zM633 1143q0 -8 -21 -21l-2 19q0 12 6 12q17 0 17 -10zM1135 418q0 -8 -21 -19l-2 17q0 12 6 12q17 0 17 -10zM1143 371q0 -43 -6 -127q-8 -98 -9 -111 q0 45 7 129q8 97 8 109zM1436 1485q-29 -10 -29 -15q0 -27 -14 -81q-23 -14 -56 -43q2 -12 0 -41q-23 -25 -55 -70q-6 -37 -29 -98q-23 -12 -55 -41q-8 -35 -29 -99q-27 -35 -69 -98v-41q-4 -23 -37 -65q-41 -49 -45 -60q-16 -45 -57 -139q-51 -63 -111 -168 q-10 -45 -16 -123q-4 -78 2 -113l28 -43q4 -53 -14 -307q-2 -20 -14 -235q-51 4 -166 26q-12 -18 -29 -41q-12 4 -41 0q8 20 27 70q-6 2 -13 2q-12 0 -24 -9t-19 -7q-14 6 -14 98q0 2 14.5 55.5t14.5 55.5q8 168 -15 475q4 49 0 139q-4 18 -40.5 58t-43.5 53 q-18 37 -36.5 99t-32.5 95q-12 6 -29 14q-25 41 -45 101q-18 53 -37 108q0 2 -13 7.5t-15 7.5q4 23 0 55q-6 12 -42 33.5t-41.5 34t-2.5 41.5q0 20 -13 30l-12 15v28q-10 20 -29 56q-16 27 -41 69q-2 12 -14 41q-6 10 -29 70l-26 14q-14 33 -15 70q-6 23 -14 55q35 6 84 14 q37 4 106 -4q78 -8 103 -24v-27q8 -27 47 -78q41 -57 49 -75q12 -29 21.5 -70t21.5 -70q23 -23 55 -69q0 -27 15 -84q33 -41 84 -125q8 -20 11 -61.5t15 -63.5q6 -10 35 -27.5t35 -30.5q10 -31 29 -81h41q18 47 57 124q4 6 21.5 13.5t19.5 13.5q10 20 14 56t15 57 q18 14 41 41q-4 20 0 55q20 18 41 43q8 45 43 125q31 6 69 29q-10 20 -14 69q4 23 33 60q33 45 36 51q10 23 15.5 57.5t13.5 54.5q10 2 94 17q70 14 101 14q18 0 26 -4q27 -12 38.5 -55t19.5 -84zM934 481q0 -158 -12 -157q-2 4 -2 18q0 6 14 139zM1128 106q6 -2 7 -14 q0 -23 -21 -69v53q0 36 14 30zM920 287q6 -2 6 -11q0 -16 -21 -45q0 18 -2 37q3 27 17 19zM1149 -12q0 -8 -21 -21l-2 19q-2 12 7 12q16 0 16 -10zM934 203q6 -2 6 -15q0 -20 -20 -67q0 90 14 82zM924 29q0 -14 -19 -35q0 -2 -2 26q0 18 8 19q4 0 8.5 -2t4.5 -8zM948 -76 q-16 6 -16 41q0 16 16 15q20 -4 21 -33q-1 -31 -21 -23z" />
<glyph unicode="Z" horiz-adv-x="1505" d="M1475 1255q4 -2 4 -10q0 -14 -19 -43v35q1 26 15 18zM1460 1174q6 -2 6 -9q0 -12 -18 -32q0 4 -1 18t1 20q2 9 12 3zM1413 1071q0 -8 -20 -20l-2 18q0 14 6 14q16 0 16 -12zM537 1276q0 -12 -19 -33q0 -2 -2 25q0 18 8 18q13 0 13 -10zM1106 573q-12 -2 -14 5q-2 6 3 13 t11 9q16 4 16 -2q0 -9 -16 -25zM532 1202q6 -2 7 -14q0 -23 -21 -68v51q0 37 14 31zM1466 -104q0 -8 -18 -19v19q-2 10 4 10q14 0 14 -10zM1475 -150q4 -2 4 -10q0 -14 -19 -45v37q1 24 15 18zM1311 -231q-63 -25 -64 -35q0 -6 8.5 -28.5t14.5 -47.5q-43 -37 -56 -53 q-41 4 -102 0q-76 -6 -104 -6q-45 0 -93 6q-8 0 -49 14t-61 12l-27 -26q-49 -14 -149 -15q-57 0 -221 17q-150 14 -230 10q-10 0 -58 -14.5t-65 -12.5q-12 12 -41 27v29q4 -10 9 -11q10 0 18 37l-41 27q2 18 2 96q-2 61 12 96q8 23 53.5 65t55.5 58q14 25 26.5 81.5 t28.5 82.5q61 47 123 94q10 16 18.5 79t22.5 85q27 18 68 56q2 18 14 55q18 29 53 94h29q8 37 41 111q39 37 94 108q12 23 18.5 69t22.5 68q8 12 57 39q43 20 43 41q0 10 -9 24.5t-9 18.5l123 191q-16 25 -53 55h-164q-10 29 -29 68q-18 6 -41 14q-8 -20 -27 -82 q-51 4 -102 4t-145.5 -6t-145.5 -6q-70 0 -139 8q6 74 14 246q23 2 86 10q55 6 88 6q31 0 58 -4q31 -18 67 -41q25 -2 75 8.5t83 10.5q23 0 47 -5q6 -27 14 -55q16 -4 27 -4q23 0 23 16q0 6 -5.5 21.5t-3.5 21.5q0 2 12.5 11.5t14.5 15.5q33 0 117 -8q70 -8 102 -4 q35 16 55 12q20 -18 54 -41q29 -10 57 -12h53q4 6 54 67q68 -12 80 -16t57 -25q2 -31 2 -100q-4 -90 -17 -119q-4 -10 -32.5 -27.5t-34.5 -25.5q2 -20 0 -55q-12 -6 -23.5 -14.5t-85.5 -149.5q-2 -4 0 -19.5t0 -21.5q-39 -37 -96 -109q-6 -33 -27 -82q-16 0 -41 -14 q-4 -6 -45 -98q-31 -72 -51 -80q-20 4 -55 0q2 -10 16.5 -29.5t12.5 -38.5h-15q-25 -51 -67 -114q-57 -82 -70 -105q-4 -27 -27 -82q-8 -12 -57 -45q-41 -29 -41 -49q0 -6 9.5 -16t6.5 -25q-2 -14 -32.5 -41.5t-34.5 -40.5v-28h-29q-2 -2 -37 -82q-25 -57 -45 -68 q16 -27 15 -41q23 0 53.5 -4t38.5 -4q25 0 36 19.5t21 84.5v-96q41 6 178 0q14 -2 60 -16q39 -12 49 -11q8 0 49 8.5t66 8.5q23 0 36 -4l8 -13q9 -14 19 -14l14 27q37 14 86 14q74 0 160 -27q8 -33 8 -53q0 -33 -22 -16q25 -6 82 -12zM1378 -219q27 -2 29 -4q-25 0 -53 2 q-51 2 -17 2h41zM1133 -27q-12 0 -23 2q10 2 18 -2q12 -4 -8 -14q53 4 81 8t16 6q-16 2 -84 0zM1214 -109q-31 12 -30 19q0 4 18 8q25 4 25 -6q-1 -9 -13 -21zM743 307q0 -8 -20 -20v18q-2 10 6 10q14 0 14 -8zM997 -82q14 -2 15 -14q0 -20 -29 -27q0 14 -2 29q2 14 16 12z M647 182q0 -8 -18 -18l-2 18q0 10 6 11q14 -1 14 -11zM797 18q0 -12 -19 -32q0 -2 -2 26q0 16 8 17q13 -1 13 -11zM983 1448l2 20q0 6 -16 7zM764 1542q-6 4 -4 16.5t-23 12.5v-29h27zM942 -219q-6 4 -6 14q2 10 2 12q-4 4 -23 3q6 0 -41 -29h68zM655 -260q-2 57 0 55 l-26 27q4 -4 4 -12q0 -10 -9 -33l-10 -23q16 4 26.5 -4t14.5 -10z" />
<glyph unicode="^" horiz-adv-x="835" d="M676 1432q8 -4 -8 -21v14q0 11 8 7zM571 1487q10 -4 -6 -14q0 16 6 14zM682 1251q10 -4 -6 -12q0 16 6 12zM637 1087q-35 2 -42 5.5t-38 62.5t-33 70q2 10 0 26q-14 37 -69 125q-4 4 -15 6q-2 18 -12 56q-14 18 -35 49q0 16 -14 49q-4 6 -16.5 11t-18.5 9 q-33 -27 -54.5 -79t-41.5 -101q0 -2 -10.5 -13t-10.5 -13q0 -4 1 -14.5t-1 -14.5q-23 -20 -55 -61q2 -12 0 -35l-14 -6q-6 -33 -35 -99q-23 -31 -41 -30q-10 0 -10 6q0 2 4 4q-23 2 -76 8q8 23 41 82q16 39 55 117q16 16 35 43q-2 6 0 20q8 4 21 12q0 20 12 56q12 8 29 22 v21q14 20 34 55v27q16 16 35 49v20q10 16 21 35q12 2 26 6q-2 10 0 21q8 6 35 14q41 6 62 -14q8 -27 22 -70q6 -12 26.5 -41t26.5 -42t14.5 -39.5t14.5 -41.5q18 -20 41 -63q-2 -12 0 -35q16 -16 41 -47q39 -63 84 -166l14 -41q0 -10 -9 -15.5t-44 -5.5zM373 1294 q8 -6 -8 -14v10q0 8 8 4zM254 1231q10 -4 -6 -12q0 14 6 12z" />
<glyph unicode="_" horiz-adv-x="1302" d="M1206 1038q4 0 -90 19h103q0 -2 -2 28q0 10 16 15q16 4 16 -13q0 -39 -13.5 -44t-29.5 -5zM926 1057q29 -2 30 -4q0 -2 -57 0q-57 4 -18 4h45zM1116 764q-8 4 -42 8t-34 14q0 6 12.5 16.5t12.5 14.5t-8 4h-2h16q49 0 49 -24q0 -6 -4 -21q-4 -10 0 -12zM721 1057 q-84 -8 -84 -6t10 6q29 12 74 28v-28zM502 1071q-39 45 -25 45q4 0 11.5 -3t19.5 -23.5t2 -20.5q-4 0 -8 2zM1057 719q-10 0 -74 -10q-51 -6 -57 -4q-10 4 -6 16q6 18 4 20q-2 10 -27 9q-4 0 -8 -29q-4 -20 -51 -16q-37 23 -88 45q-8 0 -33 -16l-25 -15h-147l-15 45 q8 8 43 29q-8 0 21 -8.5t39 -6.5q14 2 46 21.5t42 21.5q74 14 145 -14l31 -29q12 -2 36.5 8.5t41.5 10.5q12 0 24 -4q23 -31 58 -74zM457 793q-6 -20 -29 -58q-29 -27 -39 -26q-2 0 -8 6t-14 6q-6 0 -13 -2v74q4 2 31 14q16 -8 33 -10q25 0 39 -4zM326 719q-25 -2 -74 -14 v45q2 6 31 14q8 0 43 -45zM180 793q-4 -10 -16 -43q-35 -4 -35 -9q2 -4 21 -6q-6 4 -28 0t-30 0v29l-30 16q-29 15 -29 21q0 4 14 6q31 2 70 -4q49 -10 63 -10z" />
<glyph unicode="`" horiz-adv-x="563" d="M412 1419q-16 -4 -39 -14q-57 -49 -82 -49t-51 22l-13 27q-18 4 -20 -6q0 -4 4 -10q-4 2 -10 4q6 12 12 26q4 14 0 27q-4 8 -26.5 14t-26.5 13q0 20 -13 51q-20 16 -52 19t-66 7q18 6 53 15q-35 29 -107 131q23 12 66 41q61 -29 147 -47q72 -16 99 -37q41 -31 71 -115 l27 -14v-78q8 0 21 -6q0 -3 6 -21zM94 1327q-2 0 -13 18.5t-11 26.5q0 10 12 6q29 -8 29 -37q-1 -20 -17 -14z" />
<glyph unicode="a" horiz-adv-x="1341" d="M688 694q0 -12 -18 -32q0 -2 -2 26q0 16 8 17q12 -1 12 -11zM684 623q4 -2 4 -11q0 -16 -18 -45q0 18 -2 37q2 25 16 19zM702 532q0 -8 -18 -18l-2 16q0 12 6 13q14 -1 14 -11zM128 786.5q-11 26.5 -3 26.5q2 0 6 -3t14.5 -28.5t4.5 -25.5q-2 0 -6.5 2t-15.5 28.5z M1184 -82q2 -55 -4 -156q-8 -113 -9 -168q-6 0 -92 -16q-59 -10 -96 -10q-43 0 -70 12q-10 4 -23 34t-18 34q-143 -72 -292 -72q-80 0 -207 18q-25 -4 -68 0q-33 27 -82 68q-61 49 -123 160q-70 125 -69 229q0 23 4 43l26 15q10 14 14.5 46.5t12.5 47.5q29 18 68 53 q6 27 28 68q14 -2 39 0q23 25 68 55q23 -4 67 0q27 20 56 41q23 4 47 4q39 0 99.5 -16.5t82.5 -16.5q35 0 95.5 15.5t103.5 15.5q23 0 45 -2v33q0 12 14 20q8 -6 8 -12q0 -4 -2 -8t-2 -7q0 -8 23 -14q-18 35 -41 94q-2 12 -2 27q0 16 4 49t4 49q0 23 -6 39q-16 12 -41 39 h-41q-31 20 -80 41q-27 2 -55 -10q-35 -16 -41 -17q-12 0 -23.5 13.5t-30.5 13.5q-43 2 -110 -27q-45 -20 -92 -41q-35 -14 -60 -14t-51 17q-33 20 -65 38q4 10 14 41q-4 6 -68 27q0 57 7 57q2 -2 6 -4q18 10 10 15q-8 4 -19 2q-8 -2 23 -2v41q61 18 123 38q131 41 133 41 q6 -2 19.5 -20t35.5 -18q6 0 9.5 18t3.5 20q29 0 83 7.5t66 7.5h68q2 -2 14 -27q20 -2 23 13l4 14q23 6 41 -15q25 -27 26 -26q20 4 53 0l15 -27q18 -6 59 -5t62 -9q12 -6 16 -34t12 -34h39q33 -59 68 -119q33 -68 33 -133q0 -37 -13 -118q-8 -72 -6 -103l27 -26 q4 -16 4 -37q0 -25 -8 -64q-8 -45 -9 -49q-4 -55 3 -156q6 -71 10 -141zM332 514q-12 0 -23 2q10 2 19 -2q12 -4 -9 -14q53 4 81 8t14 6t-82 0zM35 162q-16 0 -17 55q0 53 17 53q0 1 0 -108zM913 582q0 2 2 20q0 6 -14 6zM901 -55q6 41 6 69q0 25 -5 54.5t-5 52.5t4 55 q-10 2 -29 -41l-12 68q-51 0 -111.5 8t-84.5 8q-23 0 -48 -4l-26 -27q-10 -2 -166 -10q-57 -2 -92 -31q-10 -8 -17 -36q-8 -39 -10 -43q-23 -59 -22 -93q0 -41 39 -63q53 -25 104 -47q-35 -27 -27 -27q20 -6 62 -2q45 4 61 2l27 -28q63 -16 147 0q18 18 41 40q31 10 54 7 q37 -6 43 -7q39 78 38 191q2 -4 15.5 -48t13.5 -48zM688 180q0 -12 -18 -33q0 -2 -2 27q0 16 8 16q12 0 12 -10zM358 68q27 -2 29 -5q-59 2 -68 5h39z" />
<glyph unicode="b" horiz-adv-x="1284" d="M371 1556q-23 -6 -23 23q0 31 23 33v-56zM385 1501q0 -35 -14 -344q0 37 14 344zM1143 166q2 -14 2 -33q0 -80 -41 -209q-39 -119 -72 -157q-35 -16 -82 -56q0 -18 -14 -41q-12 4 -41 0q-8 -20 -29 -41q-18 -6 -53 -2q-41 4 -55 2l-29 -28q-41 -10 -80 -11q-80 0 -168 45 q-61 37 -123 76h-55q-18 -47 -41 -96q-20 -12 -112 -18t-123 4q-6 12 -27 28q6 51 6 115q0 57 -7 176t-7 176q0 123 22 207q31 41 27 41l-41 96q-4 23 14 84q4 55 -2 174q-6 145 -6 201q0 86 8 148q-16 0 -16 14q0 20 16 41q0 23 -5 81t-5 89q0 49 10 78q18 8 41 26 q2 16 0 41q-2 4 -55 15q0 84 41 206q43 -12 78 -16q25 -2 65 0q49 2 78 2q2 -18 0 -55h-29v-27h56q-18 -127 -19 -282q0 -201 33 -310q18 -2 55 0q25 31 68 70q25 -2 70 0q12 2 67 39q47 31 84 28q23 -2 48.5 -27.5t33.5 -27.5q10 -2 23.5 15.5t31.5 13.5q12 -18 29 -41 q6 -2 15.5 6t25.5 6q41 -2 78 -37q31 -29 59 -59q8 4 41 14q-2 -16 0 -41l29 -14q4 -8 53 -152q2 -12 2 -22q0 -20 -9 -57t-5 -58q0 -2 19.5 -13t21.5 -15q4 -10 4 -25q0 -20 -9.5 -57t-9.5 -41q0 -6 3.5 -56.5t3.5 -81.5q0 -82 -21 -84q-4 0 -4 -6q0 -16 33 -61zM909 248 q2 4 -18 28q-12 12 -25 27v27q2 -8 4 -8q4 0 11 22q0 10 -27 180q27 16 12 68q-18 10 -41 29q-2 4 -26 69q-14 37 -41 53q-20 2 -56 15q-14 12 -20 53q-4 33 -25 33q-10 0 -24 -4l-15 -56q-137 0 -233 -55v-82q-14 6 -14 23v32q-10 -6 -24.5 -13t-29.5 -1q-6 -10 -28 -41 q8 -29 14 -82q-12 -49 -29 -110q-2 -35 6.5 -89.5t8.5 -76.5q-18 -45 -15 -68l29 -28q0 -12 -8 -41t-8 -48q0 -10 2 -20q4 -18 33 -51q35 -43 36 -47q6 -29 27 -68q14 -10 47 -18q43 -8 49 -11q131 -45 160 -45q18 0 33 4q10 25 28 56q12 10 74 43q51 27 64 53q4 8 4 14 q0 10 -11.5 25.5t-7.5 30.5q8 6 20.5 13t20.5 13q2 10 0 78q0 35 43 74zM662 -219q-8 4 -6.5 15t-22.5 11v-26h29zM840 455q-16 0 -17 34q0 39 17 35q0 1 0 -69zM825 440q6 -2 6 -10q0 -16 -18 -45q0 -2 -2 23q-2 18 0 26q4 12 14 6zM391 571q0 -8 -20 -20v18q0 10 6 11 q14 -1 14 -9zM674 221q-29 59 -19 60q2 -2 7 -5q10 8 16 9q8 0 8 -13q0 -18 -12 -51zM403 487q0 -12 -18 -32q0 -2 -2 24q0 18 8 19q12 -1 12 -11zM702 84q23 -2 25 -4q0 -2 -39 0q-35 0 -63.5 2t-6.5 2q68 2 84 0z" />
<glyph unicode="c" horiz-adv-x="1298" d="M1247 -193q-33 -57 -105.5 -117.5t-130 -80t-241.5 -27.5q-2 2 -14 27q-25 4 -49.5 -5.5t-42.5 -9.5q-55 8 -107 27q-4 12 -12 27q-33 0 -94 14l-119 105v26h-27q-6 12 -6 39t-6 41q-29 27 -68 80q2 18 0 53q-18 23 -39 53q-37 162 -14 320q18 41 41 104q-4 31 0 95 l92 198q12 12 46 19.5t46 19.5q6 6 14.5 43t26.5 51q10 8 33 8.5t33 4.5q25 27 67 53q14 2 24.5 -6t16.5 -8t13 2q18 14 37 26q35 27 67 27q20 0 54 -13.5t40 -13.5q41 2 119 0q-2 -6 14 -26q-39 -27 -26 -27q16 -2 29.5 12.5t23.5 26.5q39 -20 119 -66v-26q14 -8 46 -7 t46 -8q39 -18 39 -65q0 -27 -25 -39h-14q-4 -16 6 -32.5t10 -29.5q0 -8 -3 -20t-79 -78q-6 4 -25.5 1t-27.5 -1t-15 26.5t-11.5 26.5t-212.5 80q-18 0 -60 -18q-47 -20 -59 -23q-18 -2 -48 6.5t-32 8.5q-16 -18 -39 -41q-98 -59 -129 -158q-23 -63 -31 -227q-6 -18 -10 -37 q-8 -35 -4 -55l27 -27q4 -66 14 -146q16 -8 39 -26q4 -27 26 -68q16 -14 59.5 -26.5t61.5 -26.5q8 -23 27 -53q16 18 39 41q10 2 33.5 -13.5t42.5 -15.5q8 0 16 2q-10 16 -10 21q0 10 24 6q33 -4 27 -8q-10 -6 -19 -11q-10 -10 19 -22q-78 -8 -78 -21q2 -4 10 -6l15 -39 q59 14 65 13q0 27 15 67q10 10 39.5 15.5t39.5 11.5q23 23 107 80q10 16 24 39q45 -39 56 -52q4 -6 39 -67h26q-4 -20 0 -54q6 0 21 9q4 1 18 -9zM178 649q0 -8 -18 -18v16q-2 12 4 12q14 0 14 -10zM803 -121q0 -8 -21 -18v16q0 12 6 12q15 0 15 -10zM27 418q4 -2 4 -10 q0 -14 -19 -43v34q1 27 15 19zM18 303q0 -8 -18 -18l-2 18q0 10 6 10q14 0 14 -10zM0 166q-2 -23 -2 -33q-2 27 0 68q2 76 2 71v-106zM12 98q6 -2 6 -10q0 -14 -18 -41q0 2 -1 20.5t1 24.5q2 10 12 6zM45 -14q0 -8 -18 -19l-2 17q0 12 6 12q14 0 14 -10zM98 -121 q0 -8 -18 -18l-2 16q0 12 6 12q14 0 14 -10z" />
<glyph unicode="d" horiz-adv-x="1400" d="M887 1530q0 -63 -6 -180q-6 -135 -7 -162q1 84 13 342zM700 1522q0 -12 -18 -33q0 -2 -2 24q0 18 8 19q12 0 12 -10zM702 1249q0 -8 -20 -20v18q-2 10 6 10q14 0 14 -8zM893 1004q0 -8 -19 -21q0 2 -2 18q-2 12 5 13q4 0 10 -3t6 -7zM702 1167q0 -8 -20 -20v18 q-2 10 6 11q14 -1 14 -9zM702 1071q0 -8 -20 -20q0 -2 0 18q0 12 6 12q14 0 14 -10zM436 1147q-129 12 -82 14q16 0 32 -3zM1243 123q0 -8 -27.5 -36t-27.5 -32q-4 -31 17.5 -45t23.5 -24q16 -68 -15 -355q-106 -18 -245 0q-8 39 -27 109h-41q-8 -18 -27 -41q-4 -2 -19 0 t-21 0q-31 -8 -111 -59q-70 -47 -123 -50q-12 0 -108.5 17.5t-108.5 23.5q-14 25 -41 56q-16 -2 -41 0l-137 108q-8 16 -9 43t-5 39l-27 27q-47 176 -47 430q0 78 6 143q0 6 13.5 56.5t13.5 54.5q0 -8 -5 102q-2 59 19 103q16 2 41 12q10 10 10 41t4 41q12 27 51 35 q47 12 55.5 18t14.5 36t14 34q25 12 58 8q51 -8 39 -8l14 41q45 16 131 16q88 0 127 -16l14 -27q18 -6 68 -8q35 -2 55 -19q2 -16 15 -41q23 -16 57 -24q51 -10 65 -17q16 61 9 175q-12 172 -13 188q0 74 17 129q20 49 14 53q-33 29 -27 164q2 2 27 14q143 -4 231 -26 q0 2 -4 -254q-4 -152 4 -252q6 -51 13 -100q8 -76 2 -119q-12 -27 -27 -82q-2 -49 19 -168q20 -125 20 -188q0 -59 -12 -107l-27 -29q-2 -23 20.5 -100.5t20.5 -89.5zM102 1004q0 -8 -20 -21l-2 18q-2 12 6 13q16 0 16 -10zM47 907q0 -8 -20 -20q0 -2 0 18q0 12 6 13 q14 -1 14 -11zM33 852q0 -8 -19 -18l-2 16q0 12 6 12q15 0 15 -10zM27 778q6 -2 6 -10q0 -16 -19 -45q0 -2 -2 22q-2 18 0 27q5 12 15 6zM14 696q0 -166 -12 -166q-2 2 -2 17q0 -7 14 149zM41 342q4 -2 4 -10q0 -16 -18 -45v37q0 24 14 18zM1051 559q12 14 12 23q0 12 -25 6 q-8 -2 -8 -6q1 -9 21 -23zM969 190q2 16 -13 56q-4 20 -4 43q0 29 11 86q8 51 6 76q-12 6 -27 14q0 84 -14 176q2 0 -27 14q0 -2 -2 -26q0 -6 -12 -15q4 23 0 68l-27 14q-35 53 -58.5 63.5t-119.5 18.5v-41q0 -16 -12 -26q-10 25 -11 61q-2 23 -36 23q-18 0 -50 -2 q-117 -10 -180 -150q-55 -121 -55 -293q0 -47 4 -90l27 -70q2 -25 -7.5 -67.5t-7.5 -54.5q27 -20 56 -54q4 -14 -7.5 -25.5t-7.5 -15.5q8 -10 41 -16t41 -12q23 -31 55 -68q25 -10 125 -6q106 4 148 20q14 23 41 54q2 0 55 14q12 68 41 205zM887 477q-16 0 -17 37 q0 37 17 33v-70zM702 676q0 -8 -20 -21v19q-2 10 6 10q14 0 14 -8zM907 442q0 -8 -20 -18v16q0 12 6 13q14 -1 14 -11zM682 629q6 -4 6 -15q0 -23 -18 -67q0 88 12 82zM702 512q0 -8 -20 -20v18q-2 10 6 10q14 0 14 -8zM887 328q6 -2 6 -9q0 -12 -19 -32q0 -2 -2 18 q-2 12 0 19q5 10 15 4zM901 260q6 -2 6 -16q0 -25 -20 -80v59q0 43 14 37zM676 430q0 -8 -21 -20l-2 18q0 10 6 10q17 0 17 -8zM659 375q0 -12 -18 -33q0 -2 -2 25q0 18 8 18q12 0 12 -10zM907 115q0 -8 -20 -19v17q0 12 6 12q14 0 14 -10zM700 88q0 -12 -18 -33q0 -2 -2 25 q0 18 8 18q12 0 12 -10z" />
<glyph unicode="e" horiz-adv-x="1234" d="M977 109q0 -8 -19 -19l-2 16q0 10 7 11q14 0 14 -8zM987 55q0 -10 -16 -28l-2 22q0 16 6 17q12 -1 12 -11zM1098 281q-8 -35 -16.5 -68t-35 -47t-141.5 -14q-74 0 -270 8q-172 8 -223 6q-61 -10 -152 -27q12 -82 51 -227q4 4 6 4q4 0 7 -6l4 -6q6 0 20 47v-78 q43 -20 115 -49q18 2 51 0l12 -27q14 -2 33 -2q119 0 246 66q23 25 51 51q31 -6 51 -12q12 2 39 0q23 -8 101 -115q-63 -88 -242 -166q-20 -16 -49 -37q-45 -12 -138 -18q-100 -6 -143 6q-23 16 -49 37q-31 0 -90 12q-14 16 -37 39q-72 41 -97.5 64.5t-68.5 87.5 q-33 31 -76 90q2 23 0 63q-16 35 -39 88q0 10 15 76q-18 2 -21.5 14.5t-5.5 24.5q12 -6 12 51q0 -20 -12 25q0 -6 6 23.5t6 39.5q0 -6 -7 4t-5 21q18 125 33 182q25 104 57 162q16 8 37 24q23 49 51 103h25q4 18 27 49q16 4 49 14q4 12 14 25q100 41 240 24q2 6 0 21 q-2 4 14 6q35 4 117 -8t123 -31q20 -23 51 -51h24q-2 -16 0 -37q31 -6 78 -27q10 -8 14.5 -36.5t11.5 -40t36.5 -31t38.5 -31.5q47 -82 47 -227q0 -61 -9 -127q0 8 2 8q5 0 11 -20zM629 127q23 -2 22 -2q-25 -2 -35 -2q-33 2 -59.5 3t-3.5 1h76zM602 -37q-27 0 -86 5t-41 7 q23 2 73 -5t54 -7zM653 -494q-23 0 -80 6.5t-34 6.5q20 0 65 -6.5t49 -6.5zM844 393q-12 76 -19 101q-10 43 -32 77q-53 80 -101 103q-63 29 -151 28q-27 0 -52 -4l-14 -24q-20 2 -63 0q-33 -10 -88 -78q-61 -76 -62 -147q0 -88 113 -93q18 0 55 12.5t45 12.5 q18 0 26.5 -11.5t12.5 -13.5q57 -16 178 0q56 19 152 37zM451 559q-10 0 -21 2q8 2 16 -2q10 -2 -8 -12q47 4 75 7t15 5q-14 2 -77 0z" />
<glyph unicode="f" horiz-adv-x="917" d="M844 1266q6 -2 6 -11q0 -16 -21 -45v35q1 27 15 21zM829 795q6 -2 7 -9q0 -12 -19 -32q0 -2 -2 18q-2 12 0 19q4 10 14 4zM608 670q0 -168 -10 -168q-2 2 -2 16q-2 27 5 86.5t7 65.5zM623 365q-16 0 -17 55q0 55 17 55q0 1 0 -110zM803 877q-4 0 -42 -5.5t-54 -7.5 q-2 -2 -15 -28q-20 -2 -56 6t-40 8l-29 -29q-51 -12 -125 -12q-8 -76 -8 -174q0 -59 6 -203q4 -125 2 -190q-6 -164 -10 -328t10 -295q-16 -2 -55 -14v-15q-20 -6 -51 -6q-33 0 -86 8q-66 12 -70 13q0 25 -14 82q12 -2 14 2q2 2 0 12t0 14h15q-14 25 -29 56q-2 29 18.5 51 t22.5 31q6 33 -8 32q-2 0 -4 -4q-2 0 -1 10.5t-4 10.5q-4 -2 -10 -6q14 219 0 276l-28 27q-2 16 13 72.5t15 66.5l-14 14q2 61 2 123q4 80 27 98v27q-23 59 -43 221q-70 20 -138 29v35q-2 12 -14 20q4 35 14 125q57 6 74 10q49 14 64 45q20 43 12 142q-10 106 2 149 q4 16 34.5 37t35.5 31v84q14 6 106 61q70 41 115 49q33 6 65 7q37 0 90 -9q76 -10 95 -12q12 -10 26 -27q12 -33 4 -96q-4 -61 -18 -84h-27q-2 0 -14 -20.5t-14 -20.5q-25 -10 -76 -8t-76 -6l-14 -29q-23 -4 -56 -26q-12 -27 -18 -90q-6 -66 4 -105q14 -63 107 -70h157 q18 -63 27 -165h84zM614 344q0 -8 -18 -20l-2 18q-2 12 6 12q14 0 14 -10zM629 289q0 -8 -21 -21l-2 19q0 12 8 12q4 0 9.5 -3t5.5 -7zM629 94q0 -12 -21 -33q0 -2 -2 25q0 18 8 18q15 0 15 -10zM614 25q0 -12 -18 -33q0 2 -2 14t0 21q0 8 6 8q14 0 14 -10zM614 -72 q0 -8 -18 -20l-2 18q-2 12 6 13q14 -1 14 -11zM629 -170q0 -12 -21 -33q0 -2 -2 27q0 18 8 18q15 0 15 -12zM526 -229l25 -2q-27 -2 -39 -2q-35 2 -64.5 3t-5.5 1h84zM608 1487q14 20 15 31q0 16 -27 10q-14 -2 -14 -10q-1 -15 26 -31z" />
<glyph unicode="g" horiz-adv-x="1425" d="M1257 473q-16 0 -16 53t16 54v-107zM1257 418q6 -2 7 -12q0 -23 -21 -68v51q2 37 14 29zM1262 276q0 -12 -19 -32q0 -2 0 24q0 18 8 19q11 -1 11 -11zM1278 211q0 -8 -21 -21l-2 19q0 10 7 10q16 0 16 -8zM1257 43q-16 0 -16 37q0 35 16 31v-68zM1243 -49q-16 0 -14 35 q0 35 14 30q0 1 0 -65zM1257 -131q-16 0 -16 37q0 35 16 31v-68zM1264 -178q0 -8 -21 -19v17q0 12 6 12q15 0 15 -10zM1243 -276q6 -2 6 -11q0 -10 -18 -30q0 14 -2 28q0 19 14 13zM1231 -344q6 -2 6 -14q0 -25 -20 -80v57q0 43 14 37zM1124 311q2 -27 -12 -53 q-14 -33 -14 -41q-6 -61 0 -200.5t0 -200.5q0 8 2 10q4 0 10 -23q-4 -31 1 -80t-1 -81l-27 -39q4 -74 -12 -215q-12 -6 -29 -13q-6 -33 -26 -94q-23 -8 -53 -26q2 -16 0 -41q-2 -10 -98.5 -82t-114.5 -78q-25 -8 -72 -8q-55 -2 -76 -7l-27 -26q-27 -6 -141 10 q-106 18 -141 31q-18 6 -49 39t-43 41q-33 8 -95 41q-39 31 -38 53q-2 33 -2 65q31 29 81 68q16 -4 39 0l27 68q20 2 53 0q8 -4 14.5 -27t12.5 -27q20 2 55 0q8 -18 27 -41q55 -35 55 -34q10 -10 37 -60q16 10 41 27q-16 4 -21 20q0 4 -6 6q100 -16 88 -16q31 0 72 16 q8 4 9 21.5t5 19.5q35 10 80 41q8 12 4 39l-4 27q23 -2 53 0q18 8 42 58t26 77q2 18 -10 78q-14 72 -17 82q-18 2 -53 0q-8 -2 -16 -26.5t-10 -26.5q-14 -8 -45 -9h-9q-27 0 -41 -6q-43 -31 -120 -65q-16 -2 -37 -2q-84 0 -197 45q-104 43 -155.5 93t-92.5 134 q-47 100 -41 184q0 2 13.5 33t13.5 35l-27 12q-4 10 -12 68q-23 119 0 254q0 6 19.5 44t19.5 50q2 18 -16 78q-16 53 -11 82q18 10 41 26q-2 18 0 54q8 29 59.5 94t73.5 80q20 -2 54 0q16 20 41 41q16 2 24 -7.5t14 -7.5q12 4 56 39q37 27 65 29q23 2 97.5 -8.5t91.5 -18.5 q8 -4 8 -25.5t4 -27.5q14 -4 41 -27q39 12 41 13q12 -10 39 -39q66 -4 80 37q18 53 26 57q27 14 76 14q31 0 86 -7t68 -7q0 -6 -8 -16l-9 -9q0 -2 2 -4q29 -14 29 -155q0 -66 -10 -246q-8 -154 -4 -201zM856 391l-27 27q-2 27 13 47l14 20q2 14 -4 41q-8 37 -10 54h-66 q16 10 53 12q2 12 0 41q-18 10 -41 26q-43 59 -65 70q-53 12 -109 25v26h-133q-16 -4 -94 -67h-27q-10 -4 -16 -23q-6 -25 -10 -31q-23 -16 -53 -53q-20 -53 -21 -157q0 -37 21 -285q-4 -37 0 -107q20 -61 116 -125q104 -68 201 -67q23 0 43 4q16 18 41 41q12 -4 41 0 q14 6 29 35q23 41 24 45q16 8 39 26q25 39 27 131v138q6 23 10 45q8 41 4 61zM432 477q0 -10 -18 -31q0 -2 -2 25q0 16 8 16q12 0 12 -10zM614 406q0 -55 -6 -156q-6 -121 -6 -139q0 55 6 155q6 122 6 140zM418 356q0 -12 -17 -30l-2 24q0 16 9 17q10 -1 10 -11zM401 326 q0 -152 -12 -152q-2 2 -2 16q0 5 14 136zM420 131q0 -8 -19 -20q0 2 -2 18q-2 10 4 10q17 0 17 -8zM432 76q0 -12 -18 -33q0 -2 -2 27q0 16 8 16q12 0 12 -10zM432 -18q0 -10 -18 -31q0 -2 -2 24q0 16 8 17q12 0 12 -10z" />
<glyph unicode="h" horiz-adv-x="1540" d="M229 1300q0 -8 -20 -18v16q0 12 6 13q14 -1 14 -11zM868 662q6 -2 6 -9q0 -12 -18 -32q0 4 -1 18t1 20q2 9 12 3zM1419 -66q-4 -4 -19.5 -14t-21.5 -14q12 -18 27 -41q4 -23 -10 -41q-16 -25 -17 -27q-2 -20 13 -151q-14 0 -41 -8q-2 0 -13 -33l-14 -15q-20 -6 -47 -6 q-31 0 -82 8q-59 12 -64 13q0 125 27 289q4 14 12.5 12t8.5 4q0 8 -21 37q-23 63 -22 188q0 66 10 101l26 28q-4 23 -8 23q-4 -2 -6 -8v16q2 14 -4 14l-8 -4q6 55 12 111q6 70 0 108l-27 15q-18 51 -38.5 103t-57.5 75q-20 4 -55 14l-14 27q-49 18 -111 18q-127 0 -190 -59 q-12 -27 -41 -68q-25 -14 -56 -41q-6 -12 -2 -41q4 -31 2 -43l-28 -26q-6 -20 -7 -43q0 -25 11.5 -73t9.5 -77q0 -8 -7 -21.5t-7 -4.5q12 -49 14 -29q0 -88 -7 -218t-7 -188q0 -106 14 -213q-8 -4 -9 -14t-5 -12q-49 -27 -123 -27q-43 0 -123 12q-2 10 -2 21q2 2 -12 6 q8 37 26 111q-25 20 -24 18q0 4 12 10q2 0 5 8.5t21 4.5q-41 127 -40 294q0 98 14 201q-4 -39 -14 137q0 4 14 24.5t12 45.5q0 2 -20.5 39t-20.5 43l41 123v29q-12 -8 -26 67q0 -6 7 19.5t7 35.5q2 66 0 179q-14 20 -29 69q-2 37 15.5 128t13.5 147q0 4 -10 55q-8 45 -9 74 q0 20 5 37l26 26v66q0 20 55 30q16 4 35 4q25 0 73 -9t71 -9q18 -162 0 -604q0 -16 14 -82q16 4 27.5 -6t27.5 -8l41 41q20 -2 56 0q4 18 14 41q23 16 115 30.5t118 10.5q25 -4 66 -34t57 -34q20 -4 41 8t41 6l14 -28q16 -2 56 -15q0 -68 0 -67q8 -14 69 -56q78 -53 82 -55 v-27q0 2 3 -31.5t3 -51.5q0 -27 -6 -27q4 -14 -7 -26.5t-7 -28.5q25 -25 55 -82q2 -14 2 -29q0 -39 -21.5 -85t-21.5 -52q0 -10 13.5 -17.5t13.5 -9.5q4 -12 4 -29q0 -25 -9 -65.5t-9 -42.5q-7 -101 28 -234zM897 471q6 -2 6 -14q0 -23 -20 -70v53q0 37 14 31zM238 1253 q0 -41 -15 -356q1 34 15 356zM31 1253q6 -2 6 -16q0 -25 -21 -80v57q3 45 15 39zM889 311q0 -12 -21 -32q0 -2 -2 24q0 18 8 19q15 -1 15 -11zM690 471q6 -2 6 -10q0 -16 -20 -45v35q0 26 14 20zM696 352q0 -8 -20 -20v18q0 12 6 12q14 0 14 -10zM31 1034q6 -2 6 -16 q0 -25 -21 -80v57q3 45 15 39zM711 311q0 -8 -21 -20l-2 18q0 12 6 13q17 -1 17 -11zM889 -18q0 -8 -21 -21q0 -2 0 19q0 12 6 12q15 0 15 -10zM690 264q0 -35 -6 -104q-8 -84 -8 -88q0 35 6 104q8 84 8 88zM868 -53q6 -2 6 -8q0 -12 -18 -33q0 4 -1 18.5t1 20.5q2 8 12 2z M250 553q6 -2 6 -8q0 -12 -18 -33q0 2 -1 17.5t1 19.5q2 8 12 4zM223 401q-16 0 -16 35q0 39 16 35v-70zM690 2q6 -2 6 -14q0 -20 -20 -68v51q0 37 14 31zM37 600q0 -8 -21 -20v18q0 12 7 12q14 0 14 -10zM238 375q4 -2 4 -8q0 -14 -19 -35q0 14 -2 30q3 19 17 13zM16 553 q6 -2 7 -10q0 -16 -19 -45q0 -2 -2 22q-2 18 0 27q4 12 14 6zM801 -231l-66 8q-45 6 -16 6q14 0 31 -3zM676 -106q6 -4 6 -17q0 -27 -18 -80q0 103 12 97zM238 279q6 -2 6 -15q0 -23 -21 -69q1 92 15 84zM35 408q0 -12 -19 -33q0 -2 -2 24q0 18 9 19q4 0 8 -2t4 -8zM223 168 q4 -2 4 -10q0 -14 -18 -45q0 18 -2 37q2 26 16 18zM23 338q0 -8 -19 -19l-2 17q-2 12 6 12q15 0 15 -10zM37 283q0 -8 -21 -19v19q0 10 7 10q14 0 14 -10zM227 49q0 -12 -18 -33q0 -2 -2 25q0 18 8 18q12 0 12 -10zM16 127q-16 0 -16 55q0 53 16 54v-109zM223 -53 q4 -2 4 -10q0 -14 -18 -43q0 18 -2 34q2 27 16 19zM37 90q0 -8 -21 -18v18q0 10 7 10q14 0 14 -10zM242 -143q0 -12 -19 -33q0 -2 -2 24q0 18 8 19q13 0 13 -10zM23 35q0 -6 -19 -19l-2 19q0 10 6 10q4 0 9.5 -2t5.5 -8zM1337 168q16 -4 17 2q0 20 -31 25z" />
<glyph unicode="i" horiz-adv-x="747" d="M567 1362q-199 -4 -248 0q-2 20 -8 72q-6 45 -6 53q0 47 23 88q25 31 47 63q51 -10 178 -14q6 -12 14 -27q25 -16 25 -69q0 -27 -25 -166zM207 1348q6 -2 6 -9q0 -12 -18 -32q0 2 -1 17t1 19q2 9 12 5zM14 1292q-16 0 -16 35q0 39 16 35v-70zM221 1001q6 -2 6 -10 q0 -16 -20 -45v37q0 24 14 18zM29 946q-16 0 -17 35q0 39 17 35v-70zM215 731q0 -10 -20 -20v18q-2 12 6 12q14 0 14 -10zM14 920q4 -2 4 -11q0 -16 -18 -45q0 18 -2 37q2 27 16 19zM236 655q4 -2 4 -10q0 -14 -19 -45q0 18 -2 37q3 26 17 18zM20 786q0 -8 -20 -20l-2 18 q0 12 6 13q16 -1 16 -11zM227 580q0 -8 -20 -21q2 2 0 19q-2 12 4 12q4 0 10 -3t6 -7zM596 573q6 -23 6 -45q0 -25 -8 -61q-10 -49 -12 -59q-6 -41 -7 -97q0 -49 6.5 -161.5t6.5 -169.5q0 -72 -6 -127q-4 -92 -15 -263h-69q-4 8 -13 29q-20 0 -61 -14.5t-49 -14.5 q-18 0 -28.5 7.5t-27.5 7.5q14 274 -14 678q10 4 27 41h55v28q-25 14 -68 41q12 16 27 41q2 6 2 109q0 102 -2 112l-27 15q-23 59 -14 166q12 59 27 194q8 4 28 12q57 -16 95 -16q29 0 112 16q4 -41 4 -92q0 -41 -4 -127t-4 -131q0 -49 4 -92zM215 481q0 -8 -20 -18l-2 16 q0 12 6 13q16 -1 16 -11zM29 698q6 -2 6 -14q0 -23 -21 -70q1 92 15 84zM221 434q6 -2 6 -14q0 -27 -20 -82v59q0 43 14 37zM61 496q0 -8 -20 -21l-2 19q0 12 6 12q16 0 16 -10zM215 301q0 -8 -20 -18l-2 16q0 12 6 12q16 0 16 -10zM242 233q0 -8 -21 -20l-2 18q0 12 8 13 q4 0 9.5 -3.5t5.5 -7.5zM18 412q0 -12 -18 -33q0 -2 -2 24q0 18 8 19q12 0 12 -10zM221 186q6 -2 6 -10q0 -16 -20 -45v35q0 26 14 20zM221 -23q-16 0 -16 56q0 55 16 55v-111zM96 172q-35 -25 -26 -29q-70 23 -70 35q0 8 41 8q8 0 55 -14zM29 74q6 -2 6 -15q0 -20 -21 -67 q1 90 15 82zM498 1487q14 14 14 22q0 6 -12 7q-23 0 -23 -9q1 -8 21 -20zM416 -104v26q-12 2 -56 15q-4 -16 -14 -41h70z" />
<glyph unicode="j" horiz-adv-x="686" d="M524 1589q0 -156 0 -135q-2 -80 -28 -86q-14 -4 -68 14q-45 6 -84 2q-49 -4 -82 -2q0 8 -12 78q-8 59 -8 99q0 33 6 57q25 23 55 55q74 -12 166 -41q6 -20 27 -55q-2 12 2 14q2 2 11 0t15 0zM399 1298q-47 23 -47 25q4 4 21 4q18 0 20 -4l-2 -12q0 -9 8 -13zM193 954 q6 -2 6 -14q0 -23 -21 -70v54q1 36 15 30zM199 588q0 -8 -21 -21v19q0 12 6 12q15 0 15 -10zM193 291q6 -2 6 -10q0 -16 -21 -45v36q1 25 15 19zM524 -190l-28 -43q-4 -59 12 -173q16 -125 16 -182q0 -68 -14 -127l-82 -139q-12 -10 -48 -21.5t-48 -19.5q-2 -18 -15 -41 q-12 2 -41 0q-18 -18 -43 -41q-43 -12 -100 -12q-92 0 -106 -2q-12 31 -27 69v41q4 -4 41 -28l29 -13l-15 56q-43 -2 -41 0q-10 23 -10 57q-2 57 -4 66q45 4 93 7t73 21q6 23 27 56q16 -2 40 12q-2 20 0 55l29 29q4 12 4 26q0 23 -17.5 76t-15.5 90l29 15q-6 41 -6 96 q0 47 6 142t6 138q0 53 -6 93q0 2 -14.5 33.5t-14.5 35.5q-2 59 13 129q16 80 43 105q2 2 2 4q0 10 -29 22q2 20 0 56v98l-29 27q-2 8 -2 16q0 18 15.5 34.5t15.5 18.5q8 41 8 86t-10 123q-10 86 -12 121q16 6 39.5 16.5t29.5 12.5q31 6 68 14q37 2 62.5 -8t48.5 -21 q-2 14 4 15q2 0 12 -7.5t12 -7.5q0 -254 -14 -358q-14 -4 -14 -25q0 -20 14 -62t14 -50q6 -55 6 -115q0 -90 -20 -244q0 -47 -8 -47q-2 2 -6 4q14 -20 28 -41q4 -14 4 -147q-2 -129 -4 -141zM193 2q-6 98 0 193v-193zM207 -68q12 0 14 -6q0 -12 -43 -20q4 2 10.5 14t18.5 12 zM178 -123q6 -2 6 -8q0 -12 -18 -33q0 2 -1 17.5t1 19.5q2 8 12 4zM193 -190q6 -4 6 -11q0 -16 -21 -45v37q1 27 15 19zM178 -274q6 -2 6 -9q0 -12 -18 -32q0 2 -1 17t1 19q2 9 12 5zM41 -522q-6 2 -41 -15q-16 66 14 56q13 -21 27 -41zM469 1505l-14 -41q41 6 41 27 q0 16 -27 14zM385 -260q27 -6 27 4q0 18 -27 23v-27zM303 -356q10 12 10 20q0 12 -24 6q-6 -2 -6 -4q0 -8 20 -22z" />
<glyph unicode="k" horiz-adv-x="1341" d="M1270 874q0 -10 -19 -20l-2 18q0 12 6 13q15 -1 15 -11zM1141 868q-27 -51 -27 -55q-31 14 -31 25q0 2 2 4q19 8 56 26zM592 1198q4 -2 4 -10q0 -14 -18 -45q0 18 -3 37q3 26 17 18zM928 711q0 -8 -21 -21l-2 19q0 10 6 10q17 0 17 -8zM604 1034q6 -4 6 -18 q0 -27 -18 -78q0 102 12 96zM399 1186q4 -2 4 -10q0 -16 -18 -46q0 18 -2 35q2 27 16 21zM412 1061q6 -2 6 -14q0 -23 -19 -68q1 88 13 82zM604 868q6 -2 6 -16q0 -27 -18 -80q0 102 12 96zM963 387q8 -20 8 -35q0 -23 -23 -20q0 -4 -2 33q0 25 10 24q3 0 7 -2zM1210 -354 q-2 0 -4 -17.5t-10 -17.5q-6 0 -14 6l-6 -13q-7 -14 -9 -14q-12 -2 -24 -2q-41 0 -84 29q-25 0 -54.5 -11.5t-43.5 -11.5q-18 0 -39 11l-15 41h-26q4 16 0 41q-18 4 -43 14q-23 23 -52 109q-35 106 -45 124q-18 12 -41 41q4 14 0 41q-8 14 -48 47t-48 50q-6 45 -26 110 q-27 39 -62 39q-51 0 -117 -80q-39 -43 -77 -86q-51 -59 -60 -94q-6 -25 0 -49.5t12 -46.5q0 10 -6 -18.5t-6 -34.5q0 10 6 -13.5t6 -29.5q-10 -4 -12 -76v-117q-39 2 -90 -5t-70 -7q-49 0 -102 26q0 6 6 226q4 131 -6 215q-2 10 5 29.5t9 11.5q-18 117 -14 151q0 10 16 66 q12 47 11 71l-27 56q-4 25 -4 55q0 39 9 119t9 114q0 18 -10 94t-10 119q0 35 6 60.5t55 71.5l-28 67q-6 29 -2 84q4 66 2 82q0 6 -11.5 56.5t-15.5 80.5q2 2 41 27q2 20 -13.5 54t-15.5 52q0 10 2 19l27 26q8 -2 233 -14q-2 -10 -14 -17.5t-12 -9.5q-4 -14 -4 -36 q0 -39 14 -117q14 -96 16 -109q4 -47 5 -104q0 -53 -5.5 -165t-5.5 -169q0 -76 6 -139h-55v-53h55q0 -180 15 -289q33 14 96 41v26q20 4 55 29q-2 16 0 41l68 82q8 6 51 18q33 10 37 37q-2 31 8 82q6 10 41 15.5t43 13.5q-2 23 0 53q6 23 69.5 63.5t70 49t5 26t5.5 27.5 q35 -10 125 -41q-25 20 -25 43q0 10 10 12q12 4 43 -7t53 -7q2 0 18.5 12t22.5 15q-6 2 -6 4q0 6 47 10l15 -41q-4 -6 -19.5 -7t-21.5 -7q-10 -31 -29 -68q-16 -23 -61 -56.5t-62 -54.5q2 -14 0 -41q-6 -14 -45 -43q-45 -31 -52 -39t-7 -27.5t-6.5 -27.5t-19.5 -8t-20 -6 t-8.5 -20.5t-5.5 -20.5q-10 -16 -45 -43q-47 -35 -51 -39q45 -98 45 -133q0 -27 -18 -33q23 -2 26 -2q6 0 43 2q31 -86 82 -164l27 -14q-4 -20 0 -55q2 0 21.5 -6.5t19.5 -8.5q10 -8 16 -30q6 -29 13 -37q18 -8 41 -29q-2 -20 0 -55q12 -43 163 -205q-2 -6 -8 -41 q-2 -18 -18 -29q26 -10 69 -26zM399 854q0 -35 -6 -104q-8 -80 -8 -88q0 37 6 106q8 82 8 86zM403 600q0 -12 -18 -33q0 -2 -2 25q0 18 8 18q4 0 8 -2t4 -8zM418 530q0 -8 -19 -18l-2 16q-2 12 6 13q15 -1 15 -11zM610 -47q0 -6 -18 -19l-2 17q0 12 6 12q4 0 9 -2t5 -8z M592 -203q-16 0 -17 33q0 39 17 35v-68zM399 98q0 -47 -6 -139q-8 -104 -8 -121q0 51 14 260z" />
<glyph unicode="l" horiz-adv-x="729" d="M473 971q0 -8 -20 -21v19q0 12 6 12q14 0 14 -10zM481 827q-16 0 -16 35q0 39 16 35v-70zM487 696q0 -8 -20 -20l-2 18q0 12 8 13q4 0 9 -3.5t5 -7.5zM481 553q6 -2 6 -14q0 -23 -20 -68v51q0 37 14 31zM481 -272q-12 -29 -14 -56v-55q-16 -4 -41 -27q-14 2 -123 9 q-78 4 -110 18q-16 31 -56 70q-25 -2 -67 14q2 23 0 55q-20 8 -43 27q-14 31 -13 84q2 80 0 94q-8 86 -4 283q2 182 -10 280q6 27 14 43q-20 174 0 686q0 -8 -2 -8q-4 0 -12 23v274q2 53 14.5 70.5t55.5 25.5q4 0 96 -14h27q18 -6 55 0q4 -16 26 -41q0 -74 3.5 -203 t3.5 -184q0 -201 -33 -328q0 8 26 -26q-2 29 0 82l2 16q-2 0 -2 -223v84h-12v-84q8 -4 27 -12q-4 -61 0 -193q-4 -4 -15 4l-12 8q-6 -6 -6 -14t9 -20.5t9 -14.5q0 -8 -26 -4v-29q18 -10 18 -20q0 -4 -4 -6q18 43 27 41q-18 -178 -19 -326q0 -180 33 -225q4 -10 27 -27v-14 q33 -12 123 -12q4 -23 14 -84q37 0 37 -11q0 -6 -17 -6q-10 0 -20 4v-18q-2 -12 6 -12q4 0 8 2zM481 375q6 -4 6 -10q0 -16 -20 -46q0 18 -2 35q2 27 16 21zM487 270q0 -8 -20 -20l-2 18q0 12 8 13q4 0 9 -3.5t5 -7.5zM481 209q6 -2 6 -10q0 -16 -20 -45q0 18 -2 36 q2 27 16 19zM473 119q0 -8 -20 -21v19q0 12 6 12q14 0 14 -10zM481 72q6 -2 6 -11q0 -16 -20 -45q0 18 -2 37q2 27 16 19zM633 -80q6 -2 6 -10q0 -16 -21 -45q0 18 -2 37q3 26 17 18zM274 1143q-2 14 -7 51t-5 33q-6 -33 -14 -84h26z" />
<glyph unicode="m" horiz-adv-x="1957" d="M1391 991q-16 0 -15 13q4 10 15 12q27 6 39 6q10 0 10 -4q0 -6 -23.5 -18.5t-30.5 -12.5v2q1 0 5 2zM1110 893q-31 4 -59 6q-39 6 -15 6q37 0 74 -12zM1526 453q4 -2 4 -9q0 -10 -17 -28v24q1 19 13 13zM1526 342q4 -2 4 -12q0 -20 -17 -62q1 80 13 74zM815 905 q8 -6 -24 -49q0 68 12 62q6 6 10 6q2 0 2 -9q-2 -10 0 -10zM1116 483q0 -8 -18 -18l-2 16q0 10 6 11q14 -1 14 -9zM1128 272q0 -6 -18 -16l-2 16q0 10 6 11q14 -1 14 -11zM1110 195q4 -2 4 -15q0 -23 -16 -71q0 92 12 86zM338 942q4 -2 4 -12q0 -20 -16 -62q0 80 12 74z M1126 78q0 -10 -16 -31q0 39 4 39t8 -2t4 -6zM1784 109q-4 -33 -4 -72q0 -51 10 -145.5t10 -139.5q0 -68 -16 -121q-14 -18 -37 -49q-37 0 -111 12l-24 25q-16 2 -24.5 -6t-24.5 -6l-13 221q23 14 49 37q-18 8 -49 24q0 29 6 74q6 57 7 60l36 12q2 -2 7.5 -13.5t17.5 -11.5 q6 12 6 13q8 -2 19 0v36q-16 0 -74 -12q-8 23 -25 62q4 4 4 10q0 14 -16 39q4 -2 4 -11q0 -12 -16 -38q14 98 14 192q0 39 -2 78h25v12q-8 33 -25 74l-37 12q-2 8 -2 17q0 12 8.5 31.5t8.5 31.5q0 8 -3 18q-8 8 -24 37q4 0 -45 -6q-31 -4 -53 6q-18 29 -50 60q-6 2 -57 -2 t-65.5 -9.5t-42 -37t-41.5 -35.5h-25q4 -27 0 -62q-8 -6 -25 37q-68 -150 -73 -332q0 -80 12 -73q-6 -6 -37 -62l49 -73q18 4 49 0q-68 -29 -67 -43q0 -4 4 -21.5t4 -36.5q0 -14 -2 -33q-4 -8 -37 -24q39 -135 39 -187q0 -92 -127 -92q-45 0 -108 8q-2 29 -3 66q0 53 9 190 q8 123 6 185q0 14 -17 80q-12 55 -8 92l25 49q8 55 -17 154q-20 90 -45 129q-14 23 -41.5 36t-56.5 25q-74 37 -141 37q-57 0 -164 -37q0 -2 10 -35q6 -18 2 -39q-2 -8 -24 37q-41 -59 -86 -147q-2 -14 -2 -33q0 -35 12 -98q12 -72 14 -103q-2 2 -6 2t-4 -14q0 -25 10 -74 q-14 2 -14 -16q0 -20 14 -57q-2 -4 -19.5 -19.5t-17.5 -17.5q-2 -8 -2 -17q0 -16 13.5 -33.5t13.5 -21.5q2 -12 4 -80q2 -78 -4 -104q0 -4 -13.5 -18.5t-11.5 -30.5l15 -15q14 -14 10 -35q-10 -10 -25 -37q-53 -16 -104 -12q-51 6 -105 12q0 55 11 177q6 102 2 166l-25 49 q-10 115 37 258q-4 2 -20.5 57t-16.5 66q0 8 12.5 43.5t12.5 42.5q6 47 6 102q0 35 -6 141q-4 86 0 135q86 25 94 25q25 0 53 -12l12 -25q4 0 16.5 8.5t20.5 8.5q6 0 13 -5q8 -29 24 -61q10 -4 37 0t37 0v31q0 12 12 18q2 -18 12 -61v37q35 2 111 24v25q84 49 145 49 q43 0 62.5 -17.5t24.5 -19.5q23 10 73 12q4 -16 13 -37q8 -4 53 -14q35 -8 45 -22q4 -31 12 -62q49 -20 135 0q41 10 61.5 53t24.5 45q14 8 49 8.5t50 4.5l10 24q8 2 13 -11t24 -13q2 0 49 37q18 4 47 4q63 0 140 -20.5t95 -45.5q6 -27 25 -74l49 -36q20 33 25 24 q-2 -20 0 -61q18 -16 37 -35q4 -20 -9 -53q-8 -23 -16 -45q29 -6 74 -13q0 -45 10 -108q12 -74 14 -88q2 -23 -7 -55.5t-9 -45.5q0 -12 4 -22q16 -14 16 -21q0 -4 -4 -5.5t-24 -71.5zM520 600q4 -2 4 -8q0 -10 -16 -29v25q0 18 12 12zM532 477q-14 0 -14 33t14 29v-62z M526 446q0 -8 -18 -18l-2 16q0 10 6 11q14 -1 14 -9zM526 385q0 -8 -18 -18v16q-2 10 4 10q14 0 14 -8zM369 508q0 -8 -19 -19l-2 17q0 10 6 10q15 0 15 -8zM520 268q4 -2 4 -8q0 -10 -16 -29v27q0 16 12 10zM539 152q0 -8 -19 -19v17q-2 10 4 10q15 0 15 -8zM350 231 q0 -35 -6 -111.5t-6 -96.5q0 41 6 112q6 90 6 96zM1415 831q-6 4 -4 14.5t-20 10.5v-25h24zM1649 551q-4 -14 -13 -37q61 23 62 21q0 6 -49 16zM1489 647v19q2 6 -12 6zM1649 -184q6 -2 12 -2q12 0 12 14q0 33 -24 37v-49zM815 647v86q-27 4 -61 12q-8 -14 -13 -61 q12 -12 25 -37h49zM655 696v62h-49q2 -10 2 -35q0 -16 10 -27q-4 -12 5 -12t32 12zM313 672q4 2 9 4q0 6 -8.5 18.5t-12.5 14.5q4 -17 12 -37z" />
<glyph unicode="n" horiz-adv-x="1464" d="M836 653q0 -8 -19 -18l-2 18q0 10 6 11q15 -1 15 -11zM870 422q4 -2 4 -8q0 -16 -18 -45q0 16 -2 34q2 25 16 19zM856 289q-16 0 -16 35t16 30q0 1 0 -65zM877 254q0 -8 -21 -21l-2 19q0 10 6 10q17 0 17 -8zM670 422q4 -2 4 -8q0 -10 -19 -33q0 14 -2 29q3 18 17 12z M1311 -340h-41q2 -25 0 -53q-49 -18 -94 -19q-141 0 -142 133q0 29 8 60l29 26q0 10 -9 38t-9 46q0 10 4 23q20 10 41 27q2 20 -18.5 54t-22.5 40q-18 90 -19 190q0 164 45 330q-10 6 -26.5 6t-26.5 6t-16 34t-10 34q-31 51 -95 86q-70 39 -151 39q-25 0 -49 -4 q-41 -6 -99 -41q-63 -37 -73 -66v-26l-19 2q-14 4 -22 -17q-31 -84 -31 -272q0 -100 18 -103q0 -80 -7 -208.5t-7 -188.5q0 -104 14 -203q-100 -27 -82 -26q-20 -4 -41 -4q-18 0 -145 30q6 31 14 68q4 37 -14 119l14 94q6 45 7 86q0 47 -19 147q-16 94 -14 181l26 80 q0 14 -7 31.5t-7 21.5q2 10 41 94q-18 6 -31.5 75.5t-13.5 137.5q0 33 4 53q20 27 41 68q0 31 -12 31q-2 0 -2 -5v41q12 -4 41 0q10 4 36.5 33t41 33t18.5 4q-10 -8 -10 -10q2 -4 6 -6l4 2q10 0 -43 -43l12 -27q23 0 68 14q10 6 10 25l2 29h55q0 27 13 -133q33 6 94 26 q2 18 12 39q18 4 30.5 -11.5t22.5 -15.5q8 12 41 27l13 53q10 4 20 4q18 0 49 -15t39 -15q72 2 66 53q8 2 14 2q16 0 24.5 -13.5t14.5 -15.5q27 -8 84 -10q49 -2 78 -16q20 -10 46.5 -61.5t45.5 -59.5q16 4 41 0q16 -18 31 -64q10 -35 23 -70.5t26 -131.5q-20 -59 -21 -90 q0 -20 10 -21q6 2 11 4q-6 -53 -6 -108q0 -39 4 -114t4 -114t-2 -78q-16 0 -17 -8q0 -6 8.5 -13t8.5 -5q0 4 0 -27q0 -8 -15 -14q31 -187 15 -334zM135 782q-33 16 -33 33q0 18 33 33v-66zM870 8q6 -2 7 -14q0 -23 -21 -68v51q0 37 14 31zM870 -139q4 -2 4 -8q0 -10 -18 -33 q0 14 -2 28q2 19 16 13zM682 -6q6 -2 6 -8q0 -12 -18 -33q0 4 -1 18.5t1 20.5q2 8 12 2zM29 582q-2 -23 -2 -33q-2 27 0 67q2 76 2 72v-106zM670 -113q6 -2 6 -14q0 -27 -21 -80v57q3 43 15 37zM41 449q6 -2 6 -11q0 -16 -18 -43q0 -4 -2 21q0 18 2 27.5t12 5.5zM29 369 q0 -164 -13 -164q-2 2 -2 16q1 -6 15 148zM45 160q0 -12 -16 -33l-2 25q0 18 8 18q10 0 10 -10z" />
<glyph unicode="o" horiz-adv-x="1327" d="M1178 516q6 -41 -2 -106q-10 -100 -11 -107q-2 -47 4 -110q6 -70 7 -101q0 -51 -11.5 -108.5t-87.5 -164t-125 -138.5q-20 -14 -65 -26.5t-68 -27.5l-12 -26q-18 -6 -59 -6.5t-60 -6.5l-14 -26q-66 -12 -133 12l-13 27q-10 2 -20 2q-16 0 -44 -8.5t-42 -6.5 q-18 4 -62.5 39t-56.5 39q-14 -4 -41 0q-39 25 -66.5 75t-52.5 99q-35 41 -80 119q-16 66 -16 152q0 53 6 131q10 100 10 114h-12q-4 59 12 172l27 15q4 23 8 100q0 55 19 84q6 10 33.5 22.5t33.5 18.5q-2 14 0 39q18 6 39 14q16 33 53 78q6 6 21 2q14 -4 18 -2q10 4 35 34 t33 34q43 18 184 26q168 10 199 0q-10 -63 0 -67q16 -6 33.5 10t19.5 16q25 4 48.5 -6t45.5 -20q8 -61 13.5 -66.5t79.5 -25.5q2 -31 12 -66q18 -16 33 -16q6 0 12 3t8 3q14 0 41 -70l27 -14q-4 -31 0 -92q0 -2 18.5 -31t20.5 -35zM700 899q6 -2 7 23q0 20 -33 18 q-10 0 -10 -6q-1 -10 36 -35zM926 317q-12 43 -27 132q-2 18 7 43.5t9 39.5q0 10 -2 23q-72 80 -147 160q-12 6 -72.5 16t-72.5 10q-47 0 -146 -53q-47 -18 -106 -53q-70 -82 -70 -422q0 -61 4 -94q2 -8 25 -72q18 -51 14 -76q-10 -6 -27 -39q18 -6 33 0q10 6 21 13 q27 -72 34 -76q37 -8 72 -16l14 -27q14 -4 25.5 5t26.5 9l80 -26q10 0 78.5 22.5t82 30.5t27.5 45t25 47q16 0 38 12q6 12 2 41t-2 39q20 18 41 53q4 35 -7 100.5t-7 98.5zM475 608q-16 0 -16 35t16 31v-66zM475 422q-16 0 -16 37q0 35 16 30q0 1 0 -67zM514 223h-25 q-16 63 13 53v-12zM727 -41q27 -2 29 -4q0 -2 -54 0q-49 2 -14 4h39z" />
<glyph unicode="p" horiz-adv-x="1349" d="M1163 57q10 -72 11 -106q0 -61 -23 -111q-16 -8 -41 -26q2 -12 0 -41q-8 -20 -55 -39q-59 -23 -69.5 -30t-26 -41t-25.5 -40q-59 -41 -203 -41q-154 0 -231 41q-39 47 -82 94h-68q-4 -6 -8 -24q-2 -8 -18 -17v-53q2 -53 4 -104q6 -72 22 -127h41q-8 -6 -55 -13 q0 -31 7 -110.5t7 -120.5q0 -68 -14 -109q-16 -12 -39 -40q-117 0 -217 28v39q-14 53 -14 109q8 127 14 340q-4 29 -10 59q-8 49 -4 76l26 67q6 63 -10 166q-16 117 -16 174q16 43 16 70q0 25 -16 25l26 55q2 37 -8 113.5t-18 74.5q8 59 6 185q-2 119 8 182q-2 96 0 164v53 q29 10 57 18q41 12 70 13q18 0 35 -4q2 0 17 -12.5t24 -14.5q37 23 53 14q10 -4 19.5 -33.5t21.5 -33.5q14 4 41 0q53 37 106 73q70 43 125 48q35 2 108.5 -19.5t94.5 -21.5q6 0 22.5 9t28.5 9q8 0 17 -4q16 -6 33.5 -55.5t21.5 -53.5q16 -12 61 -21t60 -20v-26 q4 -8 27.5 -20.5t27.5 -20.5q2 -8 -7 -16.5t-7 -24.5l26 -27q20 -74 21 -139q0 -66 -21 -131q33 -27 33 -213q0 -177 -33 -195zM432 -336q0 -45 -6 -131q-8 -96 -8 -113q0 45 6 131q8 97 8 113zM879 938q-6 4 -4 16.5t-23 12.5v-29h27zM946 193q2 18 -10 81q-16 72 -16 82 q-2 33 2 84q2 59 2 78q0 61 -17 109q-23 63 -97.5 103t-170.5 40q-43 0 -86 -8q-170 -33 -217 -311q-2 -12 5 -22.5t9 -4.5q-6 -18 -26 -96q29 -2 28 -31q0 -12 -9 -46t-7 -44l29 -29q-2 -59 12 -176q18 -25 41 -53q-4 -29 0 -68q23 2 55 0v-26h41q4 -8 12 -29 q27 -2 32 18.5t10 22.5t12 2q8 0 28 -14h-22q12 2 20 0q10 -2 -12 -15q133 18 217 15q2 23 14 67q6 14 52 55q37 37 43 66q4 20 -5.5 43t-9.5 35q0 8 2 18q0 2 19.5 24t19.5 30zM858 618q0 -8 -20 -18v16q-2 12 6 13q14 -1 14 -11zM872 565q0 -8 -20 -20l-2 18q0 12 8 12 q14 0 14 -10zM731 735q-27 0 -87 7.5t-36 7.5q20 0 68.5 -7.5t54.5 -7.5zM870 483q0 -12 -18 -32q0 -2 -2 24q0 18 8 19q12 -1 12 -11zM879 424q6 -4 6 -16q0 -23 -19 -66q1 88 13 82zM872 252q0 -8 -20 -19l-2 19q0 10 6 10q16 0 16 -10zM438 539q0 -8 -20 -21l-2 19 q0 10 6 10q16 0 16 -8zM805 78q0 -8 -21 -21l-2 17q0 12 6 12q17 0 17 -8zM438 375q0 -8 -20 -19l-2 17q0 12 6 12q16 0 16 -10zM444 219q-16 0 -16 37t16 31v-68zM465 184q0 -8 -21 -18v18q0 10 7 11q14 -1 14 -11zM485 111q6 -2 7 -9q0 -12 -19 -30q0 2 -1 16t1 21 q2 6 12 2z" />
<glyph unicode="q" horiz-adv-x="1323" d="M1155 -393q-6 -14 -27 -27v-55q14 -6 15 -168q0 -229 -15 -338h-149l4 -2q-2 -4 -12 -4q-74 0 -88 47q-18 59 -15 164q6 121 0 164q0 -6 6.5 25.5t8.5 43.5q-16 72 -15 94q4 45 4 74q0 82 -38 82q-27 0 -115 -45q-172 -86 -262 -86q-27 0 -51 4q-37 23 -97 53 q-23 -4 -55 0q-12 6 -28.5 35t-24.5 35l-70 49q-41 31 -53 60q-8 23 -9 69.5t-6 67.5q-18 29 -40 67q-10 51 -5 129q4 90 5 103q0 2 -13 139q-10 94 -10 158q0 102 23 168q27 23 55 67q2 14 -8.5 25.5t-10.5 17.5t4 13q10 16 37 24q35 8 45 17q14 27 41 67h27q29 39 70 82 q10 6 39 2q33 -4 43 -2q45 20 122 41q23 0 74 -12q59 -12 76 -15v-26q20 -8 61 -13.5t62 -15.5q16 -20 41 -41q23 4 67 0q4 23 15 82q164 35 245 29q0 -2 9 -62q8 -47 6 -75q-6 -41 -10 -80q-8 -68 -5 -111l27 -55q0 10 0 -29q2 -16 0 -27q-31 -8 -12 -327l8 -66 q6 -55 4 -84q-20 -293 0 -436q2 -10 -5 -22.5t-7 -6.5q0 -28 12 -67zM883 207q2 12 -11.5 162.5t-15.5 152.5q16 39 12 53l-26 15q-82 211 -262 211q-31 0 -66 -6q-23 -18 -55 -41q-72 -31 -101 -52q-47 -33 -63 -86q-23 -72 -23 -307q0 -211 23 -278q6 -16 34.5 -44 t35.5 -38q2 -25 12 -55q61 -35 215 -35q57 0 86 8q2 0 6 12t8 15q18 -2 53 0q12 4 51.5 49t45.5 59q10 25 10 66q0 49 4 71zM446 317q4 -2 5 -8q0 -12 -19 -33q0 14 -2 29q2 18 16 12zM438 240q0 -8 -20 -19v19q0 10 6 10q14 0 14 -10zM446 195q0 -39 -6 -111q-8 -86 -8 -94 q0 39 6 110q8 87 8 95zM459 -25q6 -2 6 -8q0 -12 -19 -33q0 -2 -2 19q-2 12 0 18q5 10 15 4z" />
<glyph unicode="r" horiz-adv-x="1261" d="M1225 901q-20 -41 -68 -104q-55 -72 -82 -86h-14v-27q-12 -4 -25 -4q-31 0 -67 27q-43 29 -56 30q-20 4 -43 4q-82 0 -168 -47q-96 -51 -112 -125q2 -41 -2 -114l-27 -56q-12 -70 -12 -143q0 -70 15.5 -197t15.5 -190q0 -41 -5 -78q0 -6 -18 -63.5t-18 -81.5 q0 -31 22 -31q-14 -43 -14 -41q-35 -6 -72 -6q-20 0 -184 20q0 98 10 213q14 139 16 207q-14 0 -16 4q0 4 8 8t8 0v56l-26 26q-6 31 0 150q12 55 26 121q2 51 -16 162q-16 102 -10 176q12 147 0 243l14 15q152 16 164 16q51 0 106 -16v-68q18 -8 39 -29q55 39 111 78 q80 51 121 58q109 18 176 0l27 -27q39 6 108 0q27 -33 53 -68q2 6 7 7q4 -1 8 -19zM244 664q0 -8 -21 -21l-2 19q0 10 6 10q17 0 17 -8zM27 649q0 -8 -21 -20q0 -2 0 18q0 12 6 12q15 0 15 -10zM35 494q-16 0 -17 55q0 53 17 53q0 1 0 -108zM238 332q4 -2 4 -13 q0 -20 -19 -67q1 88 15 80zM20 467q4 -2 5 -10q0 -14 -19 -43v35q0 26 14 18zM27 365q0 -8 -21 -19l-2 16q0 12 6 13q17 0 17 -10zM41 311q0 -8 -21 -20l-2 18q0 12 9 13q4 0 9 -3.5t5 -7.5zM238 211q0 -45 -7 -131q-8 -96 -8 -113q1 51 15 244zM53 256q0 -8 -18 -18l-2 18 q0 10 6 10q14 0 14 -10zM35 143q-16 0 -17 33q0 39 17 35v-68zM250 -209q-16 0 -17 53q0 55 17 56v-109zM238 -236q4 -2 4 -8q0 -16 -19 -47q0 18 -2 37q3 26 17 18zM47 -141q-16 0 -16 37q0 35 16 30q0 1 0 -67zM35 -330q-2 -33 -4 -35q-2 121 4 142v-107z" />
<glyph unicode="s" horiz-adv-x="1396" d="M942 582q-33 0 -116 6t-60 6q-14 0 176 -12zM1260 168q0 -8 -21 -21l-2 19q0 12 8 12q4 0 9.5 -3t5.5 -7zM1272 113q0 -8 -19 -19l-2 19q0 10 6 10q15 0 15 -10zM1284 -8q0 -12 -18 -33q0 -2 -2 25q0 18 8 18q12 0 12 -10zM631 487q4 -2 4 -8q0 -12 -19 -33q0 14 -2 29 q3 18 17 12zM459 586q0 -10 -19 -31q0 -2 -2 25q0 16 8 16q13 0 13 -10zM1157 -82q-6 -29 -66.5 -122t-80.5 -107q-12 -8 -34 -8t-34 -7q-8 -16 -29 -41q-31 -18 -94 -39q-90 -29 -233 -28q-147 0 -254 28q-39 25 -107 54q-14 -2 -41 0q-14 8 -33.5 40.5t-33.5 41.5 q-39 12 -109 41q4 29 15 79q68 8 67 19q0 2 -4 2q-8 0 -37 -6q-4 12 0 41q18 4 41 12q18 29 53 82q29 -35 82 -82q18 2 54 0q23 -18 53 -41q27 -8 74 -12t75 -15q16 -18 41 -40q35 -8 109 -9q74 0 108 9q16 18 39 40q23 8 49.5 17.5t32.5 23.5q-4 12 0 41q20 14 41 41 q6 41 -10 88q-16 37 -31 74q-8 -2 -14 -2q-10 0 -8 12.5t-4 16.5q68 0 67 0q-27 27 -14 26q-123 -33 -215 -26l-56 26q-33 -8 -120 -12q-70 4 -123 27q-4 14 -13 26q-29 -4 -81 0q-25 6 -101 73t-88 89q-6 14 -6 42t-8 40l-27 14q-4 14 -4 31q0 29 15.5 71t15.5 46 q4 18 -6.5 28.5t-8.5 26.5l29 27q-2 20 0 67q4 14 43 59.5t51 49.5q25 -4 68 0q10 18 27 39h26q0 55 0 41q10 6 35 1t33 -1q0 2 0 -21q0 -10 14 -6l41 68q6 -2 37 -17q25 -12 43 -10q6 12 14 27q18 0 76 8q49 8 59 6q16 -2 32 -20.5t22 -20.5q31 -8 75 -8h74q31 -4 53 -18 q8 -25 29 -56q16 -4 25.5 6.5t15.5 10.5q20 0 61 -35q55 -47 60 -49q0 -35 -8 -35q-2 2 -6 8q-57 -111 -121 -162q-49 14 -150 53q-18 20 -41 41q-51 18 -139 19q-117 0 -205 -31q-102 -35 -115 -96q-6 -27 -6 -45q0 -27 17 -39q27 -18 30 -25q66 -100 248 -100q45 0 117 6 l14 -41q12 -2 23 -2q16 0 53 10q31 10 59 7q74 -8 164 -90.5t107 -153.5q6 -25 6 -84q2 -59 -6 -66q18 -65 12 -94zM428 -68q10 -14 10 -24q0 -16 -24 -17q-2 -12 -2 29q0 16 16 12z" />
<glyph unicode="t" horiz-adv-x="1083" d="M367 907q4 -2 4 -10q0 -16 -21 -49v39q1 28 17 20zM131 1155q6 -2 6 -16q0 -29 -20 -86v63q0 47 14 39zM950 -279q-2 -37 -14 -102q-10 -2 -18.5 -15.5t-10.5 -13.5q-20 -4 -45 -4q-127 0 -276 92q-39 20 -88 58q-4 29 -29 74q-20 4 -45 14q20 10 20 59q0 29 -12 119 q-10 80 -8 115q14 203 14 688q-47 8 -47 12q0 2 4 2q43 8 41 29q-2 49 2 59q-70 25 -159 74v160q47 6 145 14q16 68 18 141q4 49 0 142q-4 119 -4 172q18 6 45 14l15 14q68 -20 204 -14q20 -45 43 -117q4 -45 -12 -114q-16 -76 -16 -105q0 -18 20 -69q20 -57 23 -64 q76 0 190 -29q-2 -63 -14 -161q25 0 25 -7q-2 -4 -11 -8q-16 -8 -51 -10q-47 0 -65 -4q-37 -16 -103 -43v-115q-4 -53 -57 -90q-6 -4 -6 -10q0 -14 49 -35q8 -16 8 -70q0 -43 -3 -80.5t-5 -9.5q4 -37 0 -235v-117q0 -27 14 -102q0 8 -4 -52q-2 -37 4 -51q25 -57 205 -57 q6 -46 14 -148zM152 985q0 -12 -21 -35q0 -2 -2 29q0 18 8 18q15 0 15 -12zM371 592q0 -14 -21 -37q0 -4 -2 27q0 20 10 20q4 0 8.5 -2t4.5 -8zM336 438q-27 -6 -27 6q0 16 27 25v-31zM14 791q6 -4 6 -19q0 -27 -20 -84q0 109 14 103zM367 367q4 -2 4 -11q0 -16 -21 -49v39 q1 29 17 21zM145 600q0 -41 -6 -119q-8 -92 -8 -100q0 41 6 119q8 92 8 100zM356 270q0 -10 -20 -22l-2 20q0 12 6 13q16 -1 16 -11zM367 219q6 -2 6 -14q0 -23 -23 -74v55q3 41 17 33zM137 342q0 -12 -20 -35q0 -2 -2 27q0 18 8 18q4 0 9 -2t5 -8zM145 279q6 -4 7 -17 q0 -23 -21 -72v54q0 41 14 35zM145 131q6 -4 7 -18q0 -27 -21 -84v63q0 47 14 39zM131 -74q-16 0 -16 37q0 41 16 37v-74zM145 -176q-16 0 -16 37q0 41 16 37v-74z" />
<glyph unicode="u" horiz-adv-x="1550" d="M864 588q-2 -23 -2 -33q-2 27 0 68q2 76 2 71v-106zM676 788q-25 -6 -25 5q0 16 25 22v-27zM649 788q6 -2 6 -16q0 -25 -18 -78q0 100 12 94zM856 514q0 -8 -18 -20q0 2 -2 18q-2 10 4 10q16 0 16 -8zM664 668q6 -2 6 -13q0 -23 -21 -67v49q1 37 15 31zM649 494 q-16 0 -14 36q0 35 14 31q0 1 0 -67zM823 360q4 0 4 -6q0 -10 -16 -35q-8 14 -8 25q0 16 20 16zM850 307q6 -2 6 -12q0 -14 -18 -43q0 18 -2 37q0 24 14 18zM670 461q0 -8 -21 -21l-2 17q0 12 6 12q17 0 17 -8zM1386 426q-33 -12 -79 -39v-27q25 -4 53 -14q16 -39 14 -262 q-2 -207 -14 -301q-12 2 -31 -4q-2 -4 -10 -23q27 -20 55 -53q4 -27 -9 -55.5t-28.5 -36.5t-79 -19.5t-100.5 -11.5q-16 0 -24 2q-12 16 -41 41v68q-12 4 -27 12q-10 -16 -27 -39q-12 -8 -33.5 -9t-33.5 -5q-57 -27 -115 -56q-72 -33 -125 -24q-2 0 -63.5 18.5t-71.5 20.5 q-90 16 -136 64t-91 98q-25 14 -54 39q-16 35 -30 127q-20 119 -23 129q23 14 80 38q-6 8 -39 31q-25 16 -29 37q-2 14 -2 29q0 18 9.5 65t7.5 80l-27 41v27q14 6 12 14v27q-16 -4 -16 12q0 14 16 14q-4 41 -4 88q0 43 5.5 134.5t5.5 140.5q0 63 -7 119q14 4 54 14v12 q4 -2 41 -12v-27h12q2 4 6 35q2 14 23 19q31 6 59 -3q23 -6 47 -12q27 -88 27 -276q0 -195 -54 -205q12 -16 27 -41q31 -63 27 -254q-6 -23 -11 -45q-8 -43 -4 -64l29 -26q-14 -8 -14 -27q0 -16 14 -26l12 -13q-4 -20 0 -55q8 -14 57.5 -52t63.5 -40q16 2 41 0 q12 -27 27 -55q25 -6 50.5 11t41.5 17q31 -16 82 -28v28q25 0 80 12l-11 15q-8 8 -4 12q31 18 68 53q6 10 2 33q-4 27 -2 35l27 27q10 35 4 75q-6 45 -4 60l26 39q6 29 0 61q-6 31 -12 59q14 10 22 72q8 55 5 103l-27 67q-2 23 -2 45q0 31 10 109q8 66 4 114q0 4 -9 45 t-9 68q0 20 6 35q12 6 27 27q8 -2 26 -41q12 -2 41 0q6 4 8 16q2 20 4 25q94 -8 162 -41q0 4 6 -175q4 -109 -6 -174q0 -2 -14 -34.5t-12 -44.5q0 -10 19 -31t19 -23q-2 -18 0 -55zM682 406q0 -8 -18 -19l-2 16q0 12 6 13q14 0 14 -10zM850 160q6 -4 6 -15q0 -23 -18 -67 q0 88 12 82zM664 240q4 -2 4 -11q0 -14 -19 -43v35q1 27 15 19zM864 51q6 -2 6 -14q0 -27 -20 -80v57q2 43 14 37zM221 735q0 -35 -6 -102q-8 -84 -8 -86q0 35 6 104q8 82 8 84zM850 -70q6 -2 6 -8q0 -12 -18 -31q0 2 -1 16.5t1 20.5t12 2zM649 119q6 -2 6 -8q0 -12 -18 -33 q0 2 -1 17.5t1 19.5q2 8 12 4zM207 520q6 -2 6 -10q0 -16 -18 -43q0 2 -1 20.5t1 26.5q2 10 12 6zM20 641q-16 0 -16 33q0 39 16 35v-68zM227 231q0 -8 -20 -18l-2 16q0 12 6 13q16 -1 16 -11zM227 166q0 -8 -20 -21v19q-2 10 6 10q14 0 14 -8zM33 293q6 -2 6 -10 q0 -16 -19 -43q0 -4 -2 20q-2 18 0 27q5 12 15 6zM254 31q0 -8 -18 -19l-3 17q0 12 7 12q14 0 14 -10zM27 205q0 -8 -21 -19v17q0 12 6 12q15 0 15 -10zM47 133q12 -2 12 -10q0 -14 -26 -19q2 6 0 15.5t0 11.5q2 4 14 2zM39 18q0 -8 -19 -20q0 2 -2 18q-2 10 5 11 q16 -1 16 -9zM248 -256q-10 0 -23 2q12 2 21 -2q10 -4 -10 -14q53 4 80.5 8t13.5 6t-82 0zM51 -37q0 -12 -18 -33q0 -2 -2 25q0 18 8 18q12 0 12 -10zM1133 -55q6 8 6 16q0 14 -33 10q-10 -2 -10 -4q0 -8 37 -22z" />
<glyph unicode="v" horiz-adv-x="1312" d="M643 680q4 -2 4 -8q0 -10 -18 -33q0 14 -2 29q2 18 16 12zM633 604q0 -12 -19 -33q0 -2 0 25q0 18 9 18q10 0 10 -10zM621 551q0 -8 -19 -19l-2 17q0 12 6 12q15 0 15 -10zM750 332q-16 0 -17 33q0 37 17 32q0 1 0 -65zM588 477q6 -2 6 -8q0 -12 -19 -31q0 2 -1 16.5 t1 20.5q3 6 13 2zM555 379q0 -10 -20 -21q0 -2 0 17q0 12 6 12q14 0 14 -8zM1219 866q-25 -25 -54 -67q-6 -14 -1 -46t1 -46l-26 -15q-12 -20 -23 -59q-16 -53 -18 -62l-27 -12q-6 -14 -2 -47q4 -35 2 -47q-18 -23 -41 -53q4 -18 0 -54l-26 -14q2 -18 0 -53q-18 -23 -39 -53 q-10 -45 -41 -148q-14 -51 -54 -135q-18 -25 -67 -39q-4 -12 -4 -22q0 -12 10 -39t8 -48q-2 -4 -67 -200q-18 -2 -54 -13v-14q-8 -4 -16 -4q-10 0 -19.5 9t-17.5 9l-41 -26q-8 -2 -43 5t-51 7q-6 35 -27 109l-26 12q4 29 0 80q-29 43 -68 121q0 27 -12 80q-18 14 -41 41 q-12 35 -21.5 90t-21.5 82.5t-51 95.5q-12 39 -18.5 106.5t-20.5 108.5q-18 10 -41 26q4 23 0 66q-20 25 -41 55q4 23 0 66h-133q133 27 120 26q2 -4 5 -4q6 0 10 15q2 12 -2 16q-14 12 -53 41q-4 6 -15 53q-8 37 -24 41v27q2 16 25.5 39.5t39.5 27.5l27 -26q20 -2 55 2 q43 4 55 4q41 0 64 -20v-54q20 -12 41 -26q12 -43 19 -114t22 -114q25 -31 53 -82q2 -23 -13.5 -40t-13.5 -25q25 -10 54 -29q6 -14 2 -45q-6 -33 -2 -47q25 -18 53 -53q2 -8 2 -15q0 -10 -7 -21t-7 -20q0 -4 19.5 -20t19.5 -18q8 -14 8 -52.5t6 -56.5q45 -76 53 -80h27 q16 10 35.5 25.5t31.5 42.5q14 35 20.5 94t18.5 92q18 10 41 29q2 6 15 80q0 18 -11 37q-8 12 -4 28h27q0 37 14 121q18 -29 27 -27q-2 10 12 27v109q6 2 14 0q10 -4 13 -5q8 0 14 17q16 47 31 127q18 113 22 129q66 10 174 26q8 0 27.5 -7t13.5 -7l54 -12q4 -39 0 -109z M535 332q4 -4 4 -10q0 -10 -17 -31q0 -2 -2 18q-2 12 1.5 19.5t13.5 3.5zM676 135q0 -8 -21 -18l-2 16q0 12 6 12q17 0 17 -10zM31 510q0 -12 -19 -33q0 -2 -2 27q0 16 8 16q13 0 13 -10zM59 403q0 -8 -20 -18l-2 16q0 12 8 13q4 0 9 -2.5t5 -8.5zM80 358q4 -2 4 -8 q0 -10 -18 -33q0 14 -3 29q3 18 17 12zM125 215q0 -8 -19 -18l-2 18q0 10 7 10q14 0 14 -10z" />
<glyph unicode="w" horiz-adv-x="2029" d="M1571 756q0 -10 -19 -21l-2 17q0 12 6 12t10.5 -2t4.5 -6zM1546 635q0 -8 -20 -21v19q-2 10 6 10q14 0 14 -8zM1520 555q0 -8 -21 -18l-2 16q0 12 8 12q4 0 9.5 -2t5.5 -8zM1487 430q4 -2 4 -8q0 -10 -18 -33q0 14 -3 29q3 18 17 12zM1434 256q4 -2 4 -8q0 -14 -19 -43 v35q1 24 15 16zM1413 145q0 -10 -20 -20q0 -2 0 16q0 12 6 13q14 -1 14 -9zM975 303q0 -8 -21 -20l-2 18q0 10 6 10q17 0 17 -8zM516 762q6 -2 6 -8q0 -12 -18 -33q-2 -8 -2 29q0 18 14 12zM1937 961q-6 -18 -14 -19q-16 -2 -25 -8q0 2 5 -80q2 -51 -5 -80q-18 -23 -40 -53 q4 -27 0 -80q-25 -33 -54 -78q-12 -37 -20 -107.5t-19 -105.5l-26 -14q-31 -76 -41 -119q4 -23 0 -65l-27 -15q2 -35 -12 -106q-20 -16 -41 -39q0 -39 -12 -121q-6 -23 -119 -291h-213q-18 20 -41 53q4 41 0 119q-4 23 -33 69t-33 64q4 37 0 107q-23 29 -53 80q2 20 0 53 q-16 86 -60 206t-85 179q-16 -2 -41 -14q-2 -6 -54 -119q-14 -31 -18 -96q-6 -74 -20 -117q-25 -31 -54 -80q4 -35 0 -107l-26 -26q-10 -27 -54 -172l-36 -144q-29 -68 -105 -67q-35 0 -84 12l-26 27q-6 0 -14.5 -9.5t-14.5 -9.5q-4 0 -10 4v15q-18 8 -23 10v0q8 -6 10 -8 q12 -6 15 -6q2 2 -17 16q-25 18 -24 74q0 76 -2 86q-8 6 -19.5 13t-19.5 13q-8 23 -8 54v20q0 27 -7 45q-23 31 -53 94q0 45 -12 134q-18 10 -41 26q-6 16 -5 52t-7 53q-18 14 -41 41q0 41 -13 118q-23 33 -53 95q2 23 0 65q-23 37 -53 107q4 31 0 92q-4 16 -27.5 49 t-25.5 45q2 23 0 66q166 31 252 26q18 -14 41 -39q8 -53 26 -147h66q-16 -4 -66 -13q0 -45 12 -133q25 -35 54 -92q4 -23 -5.5 -61.5t-7.5 -44.5q25 -25 54 -68q2 -35 12 -106q20 -47 53 -158q0 -2 8.5 11.5t3.5 27.5q18 -33 19 -47q0 -6 -4 -6q-14 -2 -15 -27q0 -25 9 -25 q4 0 6 25l12 -39q12 -4 29.5 4t17.5 17q-2 4 -6 6h12q10 37 41 133q23 29 54 92q0 45 12 133q18 25 41 53q6 41 26 131q8 23 34 75t32 73q12 74 39 172q16 -2 41 0v41q49 4 172 0q8 -20 41 -133l53 -187l27 -26q-4 -27 0 -80q0 -2 18.5 -24.5t20.5 -28.5q0 -41 12 -119 q23 -29 53 -80q6 -18 0 -51t0 -56q8 -29 37 -86q35 -66 43 -86q23 6 53 27q23 37 33 111q14 104 21 127l26 14q20 59 41 119q6 33 2 76q-6 43 -2 57q29 61 66 160q6 27 2 67q-4 43 -2 51q18 16 39 41q-4 25 0 66q12 27 48 46t72 19l39 -24q41 -2 133 -14zM958 248 q0 -12 -16 -31l-2 25q0 16 8 16q10 0 10 -10zM543 563q-16 0 -15 35q0 35 15 31v-66zM934 156q0 -8 -19 -19l-2 19q0 10 7 10q14 0 14 -10zM643 289q0 -8 -20 -19v17q0 12 6 12q14 0 14 -10zM881 -43q0 -8 -19 -18l-2 16q0 12 6 12q15 0 15 -10zM836 -168q4 -2 4 -10 q0 -14 -17 -43q0 -2 -2 22q-2 16 1.5 26.5t13.5 4.5zM756 -260q27 -2 28 -4q0 -2 -53 0q-49 2 -14 4h39z" />
<glyph unicode="x" horiz-adv-x="1497" d="M1403 -393q-121 -14 -201 -15q8 0 -13.5 -6t-27.5 -6q-37 0 -59 21q-6 6 -36 45t-67 94q4 20 0 53q-14 27 -69 82q-63 61 -78 80q-4 20 -27 53q-16 6 -65 27q-106 -129 -189 -268q-18 -41 -38.5 -84t-55.5 -64v-27q-20 -8 -57 -8q-41 0 -131 11.5t-119 11.5 q51 51 121 133q6 12 5 34.5t7 32.5q12 4 27 15q8 18 12 57q4 33 13.5 47.5t34 17.5t34.5 11q-2 14 0 41l27 12q49 72 98 142q74 109 76 139q4 53 -39 102q-33 37 -68 74q2 14 0 39q-16 10 -41 26q0 16 -12 54q-12 20 -98 135q-59 82 -91 147h54q-23 23 -13 27 q-43 14 -65.5 27.5t-54.5 40.5v26q16 10 67 12q16 -12 39 -26q-8 -2 5.5 -8.5t21.5 -3.5q94 16 106 16q43 0 68 -16q4 -29 14 -68h12q41 -20 91.5 -112.5t70.5 -102.5q10 -4 61.5 -10t51.5 -9q-6 -4 -45 -8q-14 -2 -55 -12q49 -66 81 -66q20 0 49 31l58 62q-12 2 -33 7 l-20 5q31 8 94 27q-4 33 0 94q2 10 31.5 29.5t33.5 23.5q20 25 82 147q35 0 113 7.5t100 7.5q12 0 82 -15q-4 -31 -26 -79q-31 -8 -68 -27q-10 -18 -9 -55t-5 -52h-27q-23 -51 -80 -147q-18 -8 -41 -27q-12 -20 -19 -54t-20 -54q-57 -59 -120 -133q-14 -47 0 -109 q23 -25 53 -65q29 -63 106 -189q29 -16 68 -53q10 -14 13 -46t13 -48q23 -10 54 -39q8 -12 8 -33.5t6 -34.5q10 -18 55 -51t51.5 -43t6.5 -26.5t8 -26.5zM96 565q0 -10 -20 -20q0 -2 0 16q0 12 6 12q14 0 14 -8zM786 -193q-37 2 -36 21q0 20 22 20q-4 -2 -4 -4q0 -10 18 -37 zM940 -387q0 -8 -20 -21l-2 19q0 10 6 10q16 0 16 -8zM123 -227q0 -8 -21 -19l-2 17q0 12 6 12q17 0 17 -10zM182 -420q27 -2 29 -4q0 -2 -53 0q-49 2 -15 4h39zM23 -408q66 -6 65 -6q-20 -2 -92 -6q16 41 27 39v-27zM1174 -113q0 2 2 21q0 6 -15 6z" />
<glyph unicode="y" horiz-adv-x="1347" d="M1223 502q0 -8 -21 -19v17q0 12 6 12q15 0 15 -10zM1196 420q0 -8 -20 -21l-2 19q0 14 6 14q16 0 16 -12zM530 516q0 -10 -18 -20l-2 18q0 12 6 12q14 0 14 -10zM545 461q0 -8 -21 -21l-2 19q0 12 6 12q17 0 17 -10zM573 379q0 -8 -20 -21l-2 17q0 12 6 12q16 0 16 -8z M600 295q0 -12 -20 -33q0 -2 -2 25q0 18 8 18q14 0 14 -10zM655 129q0 -8 -20 -20v18q0 12 6 12q14 0 14 -10zM1272 1051q-33 -78 -82 -209q-6 -23 -6 -62t-8 -61q-23 -31 -56 -84q31 -18 27 -29h-27q-18 -27 -41 -67q-12 -27 -16 -72t-12 -68q-18 -14 -41 -41q2 -23 0 -69 q-23 -31 -56 -82q-16 -43 -28 -105q-14 -68 -27 -104q-27 -43 -70 -125q-12 -33 -20 -80q-10 -53 -21 -86q-29 -45 -69 -125q4 -20 0 -55q-25 -25 -55 -68q-4 -8 -5 -16q0 -10 9.5 -20.5t9.5 -18.5q-4 -33 -88 -170t-103.5 -147.5t-51.5 -10.5t-48 -6q-2 0 -7 -13t-7 -13 q-33 -12 -84 -15h-96q-4 10 -41 29q-4 70 0 180q2 8 26.5 15.5t28.5 11.5q2 18 14 41q14 4 47 -2q33 -4 47.5 2t76 73.5t65.5 79.5q-4 33 0 97q2 10 24 55q18 37 17 70q-2 35 -31 88q-35 66 -39 77q-4 18 5 34t9 22q-20 18 -38.5 42.5t-26.5 69.5q-10 55 -19 80 q-25 31 -55 84q-6 20 -6 60.5t-8 64.5q-37 51 -82 125q-8 16 -8 47t-6 49q-18 18 -41 56q-29 98 -97 290q-16 66 -55 193q18 6 55 14q23 2 95 -4q84 -10 112 -10q43 -76 84 -213q33 -115 68 -229h43q-35 -23 -29 -70q20 -23 41 -55q8 -18 8 -55.5t6 -55.5q18 -16 41 -41 q8 -18 8 -50t7 -46l28 -15q4 -14 6 -75q2 -47 21 -64q23 0 55 -12q27 31 56 68q6 16 0.5 49.5t-0.5 48.5l28 26q-4 29 0 84q8 27 49 83.5t47 82.5q-6 33 0 111q18 23 41 55q-2 33 0 96q27 45 56 99q-2 25 0 67q27 45 69 125q91 -10 277 -26zM905 -383q0 -8 -20 -20l-2 18 q0 14 6 14q16 0 16 -12zM850 -537q0 -8 -21 -18v18q0 10 7 11q14 -1 14 -11zM801 -625q6 -2 6 -8q0 -12 -19 -33q0 2 -1 17.5t1 19.5q3 8 13 4zM795 -702q0 -8 -21 -19l-2 16q0 12 6 13q17 0 17 -10zM739 -797q0 -10 -20 -20l-2 18q0 12 6 13q16 -1 16 -11z" />
<glyph unicode="z" horiz-adv-x="1144" d="M907 1012q-25 0 -81 7t-33 7q12 0 114 -14zM575 1012q25 -2 27 -4q-25 0 -51 2q-49 2 -14 2h38zM498 1012q-18 0 -68.5 3t-87.5 7t-23 4q33 0 99 -6q39 -4 80 -8zM287 979q0 -8 -19 -18l-2 18q0 10 6 10q15 0 15 -10zM1030 20q0 -8 -20 -18v16q0 10 6 11q14 -1 14 -9z M780 168q25 -2 25 -4q-53 2 -64 4h39zM907 -12q12 0 -12 -13q55 4 78.5 7.5t11.5 5.5h-78zM1010 -383q-37 -23 -25 -25q-29 0 -154 -2q-98 -2 -151 0q-78 2 -117 15q23 14 64 39l-13 37q-25 2 -90 14q18 -16 19 -31q0 -4 -4 -19.5t-2 -27.5q-184 -25 -512 -25v13 q-29 14 -21 79.5t-4 73.5q8 16 25.5 45t25.5 45q35 -4 37 0q10 12 15.5 45t11.5 44h12q18 10 34.5 58t28.5 58q14 0 39 13q6 27 27 75q2 4 30.5 40t32.5 38h25q16 23 32.5 65t33.5 62l51 66q8 6 25.5 4t25.5 8q-2 14 0 39q29 29 63 76q-4 18 0 51q29 14 64 51q-2 23 0 64 q-74 0 -197 8t-178 8q-39 0 -74 -2q12 0 -24 -27q-8 -2 -51 27h-52v139q-12 47 -12 66q10 10 25 24q33 12 76 13q37 0 98 -13q70 -10 94 -12q25 6 78 12q6 0 63 -39q41 18 129 39q203 14 383 -24q0 4 13 75q0 -72 2 -143q0 -96 -15 -137q-6 -20 -61 -61.5t-66.5 -55.5 t-20.5 -45t-18 -43q-31 -27 -77 -78q-8 -33 -37 -90h-27q-18 -37 -63 -88h-13q-12 -18 -23 -59t-28 -58q-6 -6 -19.5 -7t-19.5 -5q-27 -16 -90 -102q4 -2 4 -9q0 -8 -16 -43q29 2 29 -4q0 -4 -5.5 -9t-27 -9t-35.5 -29q-6 -10 -25 -76q14 -12 37 -26q72 -10 219 0 q10 0 80 16q63 12 86 10l39 -26q37 6 103 0q25 -8 55 -66q10 -25 20 -49q2 -16 -7 -24.5t-5 -26.5q0 -4 11.5 -17.5t13.5 -21.5zM678 66q6 -2 6 -11q0 -14 -18 -41q0 -4 -2 21q0 16 2 25.5t12 5.5zM242 821v37q-18 -2 -52 0v-12q3 0 52 -25zM934 -332q10 -4 16 -4q12 0 0 12 t-28 19z" />
<glyph unicode="&#xa7;" horiz-adv-x="1165" d="M580 1178q-10 -2 -13 4q0 4 4 10t9 8q14 4 14 -2t-14 -20zM213 1174q0 -8 -16 -17v12q-2 10 4 11q12 0 12 -6zM223 1128q0 -8 -14 -16q0 25 2 25q12 -1 12 -9zM76 1135q-12 0 -13 45q0 43 13 43v-88zM1030 696q2 -25 -10 -55.5t-12 -32.5q6 -20 10 -76q-2 -27 -29.5 -85 t-46.5 -78q-6 -8 -21.5 -8.5t-21.5 -4.5l-45 -53q-2 -20 0 -55q18 -6 45 -23v-22q2 -4 20.5 -19.5t22.5 -23.5q0 -29 10 -88l23 -11q6 -33 6 -67q0 -125 -80 -242q-72 -104 -152.5 -138t-209.5 -34q-45 0 -68 10q-2 0 -10 15.5t-12 17.5q-53 20 -109 41q-47 20 -78 70 q-66 106 -65 252q55 -4 176 -13q4 -37 22 -98q4 -10 23 -18q29 -12 31 -15q84 -53 135 -53q37 0 161 64q0 33 0 32q2 4 17.5 17.5t15.5 15.5q2 10 2 27q0 86 -24 127q-18 31 -64.5 47t-89.5 31l-10 20q-16 -2 -45 0q-10 8 -19 18q-16 14 -24 15q-12 2 -19.5 -5.5t-13.5 -4.5 q-14 14 -33 32q-35 6 -110 33q-41 41 -99 88h-20q-2 4 -2 6q0 4 8 7t8 6q0 2 -4 4q-61 37 -61 149q0 23 4 80q2 49 2 76q-4 16 -8 33q-6 31 -2 45q0 2 16 21.5t16 21.5q-4 23 0 65q14 37 142 121q-4 4 1 27.5t-1 27.5h-43v11q4 -6 4 8q0 16 -4 24q-16 18 -33 45 q-4 18 5 28.5t5 25.5l-20 12q-33 76 -13 174l23 12q-2 20 10 66q14 6 33 20v33q4 14 34.5 49t44 41t38 6t37.5 4q35 20 110 43q49 4 72 -12q14 -10 26 -20q25 8 76 10q14 -4 31.5 -36t35 -32t54.5 -8q45 -23 74 -119q25 -84 24 -178q6 0 -78 -4q-51 -4 -76.5 5t-36.5 73.5 t-28 79.5q-43 35 -139 35q-100 0 -142 -33t-42 -131q0 -51 18 -68q14 -2 33 -10q4 -6 7 -8t13 -4q-2 -23 13 -54q10 -6 36 -2q29 4 39 2l11 -22q16 -10 49 -12.5t51 -10.5q12 -16 33 -32q33 4 98 0q14 -4 74.5 -69t79.5 -73h10q6 -8 22 -98q10 -41 21 -111h12zM33 827 q4 -2 4 -6q0 -10 -14 -26q0 38 10 32zM10 752q4 -2 4 -9q0 -14 -14 -36q0 49 10 45zM10 653q4 -2 4 -8q0 -8 -14 -24q-2 -4 -2 22q0 14 12 10zM27 539q0 -8 -17 -17v13q-2 10 4 10q13 0 13 -6zM43 94q-14 0 -12 29q0 31 12 27v-56zM59 66q0 -6 -16 -15v15q0 8 4 8 q12 0 12 -8zM690 1540q-8 6 -2 23q4 10 -20 10v-33h22zM887 1298q29 0 28 17q0 16 -38 16q-2 -33 10 -33zM811 588q6 53 -12.5 140t-42 110.5t-63.5 31t-81 13.5q-6 6 -16 14t-16 8q-35 -14 -76 -33q-80 -27 -112 -67.5t-32 -114.5q0 -45 13 -125q10 -66 18 -78 q18 -20 37 -43q0 -12 10 -32q16 -12 47 -21q43 -10 52 -12v18q4 2 10 4q2 -6 0 -32h88q20 4 71.5 32.5t59.5 42.5q-2 12 0 33q20 43 45 111zM592 270q31 0 31 9q0 6 -31 24v-33zM662 821q0 -6 -15 -14q0 23 2 22q4 0 8.5 -2t4.5 -6zM668 784q4 -2 4 -8q0 -12 -15 -37 q1 51 11 45zM680 719q4 -2 4 -6q0 -10 -16 -27v23q0 14 12 10zM680 621q4 -2 6 -7q0 -6 -18 -16v18q0 11 12 5zM674 569q0 -6 -17 -14v14q-2 8 5 9q2 0 6 -2.5t6 -6.5zM504 762q4 -2 4 -12q0 -18 -14 -54q0 72 10 66zM514 674q4 -2 4 -6q0 -10 -14 -27q0 -4 0 25q0 14 10 8z " />
<glyph unicode="&#xad;" d="M1362 864q4 -2 4 -6q0 -10 -14 -24v20q0 14 10 10zM1219 915q-27 29 0 21q6 0 10 -6t2 -12q-2 -5 -12 -3zM1065 956q35 -2 -12 -2q-39 -2 -90 0q-53 2 -31 2q88 4 133 0zM768 946q4 -2 6 -6q0 -6 -16 -14v16t10 4zM1300 649q-88 -2 -133 0h-563q2 14 -4 25.5t-6 15.5 q14 16 31 41q-18 29 -62 82q20 12 41 31q47 2 123 0q8 0 53 -15.5t60 -15.5q16 10 61 21q68 -2 164 0v-21q23 -2 85 4t89 6q4 -8 12.5 -17t34.5 -50q31 -49 31 -78q-1 -21 -17 -29zM1157 813h-31l11 -41q16 4 17 16.5t3 24.5z" />
<glyph unicode="&#xb0;" horiz-adv-x="782" d="M360 1839q4 -2 5 -4q0 -6 -15 -12v14q2 6 10 2zM430 1681q4 -2 4 -4q0 -6 -14 -12v14q0 6 10 2zM168 1858q10 0 12 -5q0 -6 -22 -14v14q0 5 10 5zM623 1550q-4 -12 -11 -69q-6 -25 -26 -78h-25q-6 -12 -6 -37t-4 -33q-14 -29 -89 -59.5t-130 -30.5q-14 0 -25 2l-18 19 q-27 0 -78 16q-12 8 -24.5 34.5t-18.5 35.5q-25 14 -53 45q-2 4 5 16t7 19q0 4 -4 8q14 2 35 0l37 -54q31 -29 81 -53q63 -31 109 -24l70 43q45 20 55 26q27 18 39 47q8 20 4 50q-4 35 -2 53q10 27 27 78q-41 35 -158 96l-8 16q-133 4 -140 0q-23 -27 -53 -59l-24 8v-35 q-16 -23 -37 -61q-4 -25 -2 -51q4 -31 2 -54h-52q0 78 -8 70v16q16 20 35 45q0 2 -10 62q18 8 45 24q6 8 12 29q2 14 23 25v8q16 6 49 0q33 -8 37 -8q14 2 31.5 17t29.5 17q23 2 90 -14q61 -14 95 -29v-45q18 -4 43 -16v-27q18 -25 45 -69v-19zM72 1673q10 -6 -9 -16 q1 20 9 16zM53 1647q12 0 13 -5q0 -10 -21 -20q0 -2 -2 16q0 9 10 9z" />
<glyph unicode="&#xb4;" horiz-adv-x="557" d="M403 1427q12 -2 13 -10q0 -10 -25 -14v18q0 8 12 6zM453 1741q-25 -43 -84 -121q-14 2 -37 0v-12h-13l-12 -35h-24q4 -18 0 -49q-4 -10 -35 -20.5t-37 -16.5v-23q-27 -74 -168 -86q-8 2 -37 0q-2 25 0 86q-2 12 0 35q4 10 72 49q8 12 8 43t4 41q27 74 80 84q70 6 137 13 q2 0 22.5 12t26.5 12q2 0 41.5 -5t55.5 -7zM227 1360q0 -6 -16 -17v17q-2 10 4 10q4 0 8 -2t4 -8z" />
<glyph unicode="&#xc4;" horiz-adv-x="1488" d="M1104 1491q-8 -2 -14 -2q-8 0 -9 4q0 14 23 20v-22zM1081 1616q-2 -2 -2 -4q0 -4 6.5 -17.5t6.5 -21.5q0 -14 -23 -14v-11h-57l-11 -35q-4 -2 -14 5.5t-18 7.5q-6 0 -13 -2l-12 47q-14 -10 -20 -10q-2 0 -2 2q0 10 24.5 41.5t32.5 33.5h102v-22zM934 1479q-14 0 -14 10 q0 18 14 24q8 4 8 -2t-4 -18t-4 -14zM979 1468v-30q0 -18 -12 -17l-43 43q0 6 10 4q14 -2 45 0zM752 1491q-33 -20 -35 -57q-14 -10 -31 -7q-25 6 -27 7v-23q0 -8 -10 -12q-2 -10 0 -33q14 -10 33 -35q-2 6 -45 23q16 74 -10 80q-6 -10 -13 -23q-80 0 -79 0l-11 45 q6 -2 11 -2q-6 0 -23 2l-12 23q16 -4 35 -11q-33 45 -37 60q-2 10 2 76q18 2 57 12q2 10 23 22q35 -4 92 -12l10 -33q8 -2 12 2q6 4 0 9h11l12 -11q4 -10 1 -33.5t-1 -35.5q2 -2 35 -33zM489 1456q4 -2 5 -6q0 -10 -17 -29v25q0 16 12 10zM444 1376q-25 2 -45 6t-18 7 q4 2 41 0v28q0 12 10 17q2 0 6 -29t6 -29zM319 1468q4 -2 5 -6q0 -10 -17 -28v24q0 16 12 10zM649 1092q-12 -8 -20 -9q-12 0 0 25q10 23 20 31q4 -22 0 -47zM500 1217q10 0 -11 -11q47 4 69 6t11 5h-69zM324 1368q-6 23 2 23q2 0 5 -3.5t7 -23.5q4 -23 -4 -23q-2 0 -4 2 t-6 25zM467 1184q4 -2 4 -6q0 -10 -16 -29v25q0 16 12 10zM467 1104q4 -2 6 -6q0 -6 -18 -17v19q2 10 12 4zM422 1047q4 -2 4 -7q0 -10 -16 -28v24q0 17 12 11zM516 858q0 -8 -16 -16v14q0 10 4 10q12 0 12 -8zM455 877q4 0 4 -5q0 -8 -15 -30q-8 12 -8 20q1 15 19 15z M1468 -285h-34q-2 -12 -7 -12q-12 4 -16 2v-92q-8 -10 -22 -23h-93q-10 33 -22 68q-2 2 -25.5 8t-31.5 27q2 23 0 67q-16 92 -103 217q-51 -12 -172 -12q-195 0 -260 35l-18 -18l-15 -17q-10 -2 -24 -2q-16 0 -49 4t-50 4q-20 0 -38.5 -7t-26.5 -42q-16 -59 -17 -59 q-33 -39 -73 -127q4 -35 -6 -101q-23 -55 -148 -55q-51 0 -115 10q0 20 13 68q14 6 32 23q23 59 23 92q-2 20 0 57q20 14 47 45q6 14 6 45t4 45q16 18 35 47q-2 20 0 56q20 23 45 57q6 20 4 53q-6 35 -4 39h23q14 29 20 59q8 45 15 66q16 18 32 45q2 8 33 129q25 98 37 111 q20 2 45 10q8 18 7 57t6 60.5t102 109.5l-35 35q12 45 10 57q18 0 57 11l-22 22q-8 25 0 55q6 23 12 48q8 -6 45 0q-23 86 0 149q16 8 35 23q127 0 148 -13q8 -14 22 -34h23q16 -27 12 -82q-2 -61 10 -88q20 -4 45 -11q0 -12 8.5 -25.5t3.5 -31.5q0 -2 -13 -9t-9 -26 q0 -2 15.5 -1t17.5 1q12 -6 0 -113q27 -4 69 -34q8 -12 7 -41t4 -39q16 -37 47 -115l22 -10q2 -14 -7 -29.5t-5 -27.5q25 -25 57 -68q0 -31 11 -92q20 -25 47 -68q-4 -18 0 -57q20 -18 45 -57q-4 -27 0 -78q25 -25 57 -80q-2 -18 0 -58q0 -4 16.5 -31.5t16.5 -35.5 q2 -12 -5.5 -20.5t-4.5 -14.5q6 -20 36 -63q37 -49 43 -62q-2 -2 1 -17.5t-1 -17.5zM1456 -375q-2 0 -12 14.5t-10 22.5t12 8q37 -4 37 -30q0 -21 -27 -15zM432 649q4 -2 4 -10q0 -12 -14 -37q0 51 10 47zM266 643q0 -6 -16 -16v14q-2 10 4 10q12 0 12 -8zM909 -35 q4 -2 6 -6q0 -8 -16 -16q0 2 -2 12v12q2 4 12 -2zM256 608q0 -8 -16 -16q0 2 -2 14q0 10 4 10q14 0 14 -8zM244 563q0 -6 -17 -16v14q-2 10 4 10q13 0 13 -8zM221 496q0 -8 -16 -19l-2 17q0 10 6 10l8 -4t4 -4zM170 375q4 -2 6 -6q0 -8 -16 -17q0 2 -2 13v12q2 4 12 -2z M279 164q0 -8 -17 -17v15q-2 10 4 10q2 0 7.5 -2t5.5 -6zM106 199q0 -6 -16 -17v15q-2 10 4 10q12 0 12 -8zM217 45q4 -2 4 -8q0 -12 -16 -37v31q0 20 12 14zM209 -18q0 -8 -16 -17v15q0 10 4 10q12 0 12 -8zM57 102q4 -2 4 -6q0 -10 -16 -28v24q0 16 12 10zM45 35 q6 -4 6 -8q0 -6 -16 -15q0 -2 0 17q0 10 10 6zM12 -35q4 -2 4 -6q0 -8 -16 -27v23q0 16 12 10zM672 1456v25q0 10 -13 10q-8 0 13 68h-35v-58l-35 -10h-45v-23q25 4 102 11v-17q-1 -4 13 -6zM887 1104q8 -2 14 -2q8 0 8 4q0 14 -22 20v-22zM934 729q16 0 16 29q0 8 -10 8 q-23 0 -22 -10q0 -11 16 -27zM672 774q25 -8 24 17q0 20 -37 28q9 -45 13 -45zM1264 160q-2 -14 -13 -45q35 6 35 22q0 8 -8 16.5t-14 6.5zM1036 182q6 121 -24 228q-16 23 -33 45q-4 14 3 41l7 28q-2 10 -33.5 36t-33.5 42q10 10 12 47h-25q-12 29 -32 80q-2 8 -17 74 q-10 45 -29 61q-18 2 -47 13q-27 -88 -90 -263q-16 -14 -35 -34q0 -37 -10 -113q-14 -55 -80 -172q-4 6 -8 -29q-4 -33 8 -39q25 4 68 0q-25 -8 -68 -10q2 -37 0 -35q27 2 68 0l22 -35q8 0 70 17.5t78 17.5q23 0 57.5 -11t44.5 -11q35 -2 75 9t52 13zM819 694q4 -2 4 -8 q0 -12 -16 -37v29q0 22 12 16zM864 580q4 -2 4 -9q0 -12 -14 -36q0 51 10 45zM899 477q4 -2 4 -6q0 -10 -16 -27v23q0 16 12 10zM934 330q-74 18 -35 12v23q12 4 35 22v-57zM973 289q0 -8 -17 -17v15q-2 10 5 10q2 0 7 -2t5 -6zM705 569q4 -2 4 -8q0 -14 -15 -37q1 51 11 45 zM983 244q0 -6 -16 -17v15q-2 10 4 10q12 0 12 -8zM729 489q4 -2 4 -6q0 -10 -16 -28v24q0 16 12 10zM739 432q4 -2 4 -8q0 -8 -14 -27l-2 17q-2 10 0 16t12 2zM705 217q23 -2 24 -4q-49 2 -57 4h33z" />
<glyph unicode="&#xd6;" horiz-adv-x="1333" d="M932 1548q4 -25 4 -45q0 -72 -62 -94q-45 -18 -178 -18l-10 102q20 -2 55 10q14 12 0 125q8 2 23 10q18 -4 22 -22q14 -4 22.5 4t22.5 8q10 -10 35 -22q0 -51 11 -58h55zM709 1593q14 0 14 -6q0 -12 -27 -26v22q-1 10 13 10zM741 1290q23 -2 25 -4q-51 2 -57 4h32z M506 1538q8 -16 8 -31q0 -20 -20 -26v-33q8 6 14 6q2 0 2 -2q0 -6 -11.5 -21.5t-15.5 -17.5q-18 4 -55 0l-12 -55l-45 22q51 8 35 11h-23q14 4 -35 12q2 0 -33 -12q-25 14 -45 22v90q45 -14 60 -14q14 0 14 10q0 2 -29 72q-23 53 -22 47q0 8 10 10q16 2 24.5 -10t10.5 -12 q14 -2 22.5 10t10.5 12q27 4 37 -10q14 -23 20 -25q20 6 55 0q-2 -33 23 -45v-10zM483 1368q-12 18 -12 31q0 6 6 6q2 0 5 -2t7.5 -13.5t4.5 -17.5q-1 -8 -11 -4zM360 1313q-14 0 -14 30q0 29 14 25v-55zM1192 459q-31 -12 -31 -19q0 -2 10.5 -4t8.5 -12q-2 -18 0 -23 q8 -29 8 -59q0 -31 -9.5 -81t-9.5 -73v-125q-2 -72 -22 -122q-25 -25 -57 -66q2 -12 0 -35q-20 -29 -74 -59q-70 -43 -84 -53q-4 -4 -35 -43q-23 -31 -40 -34t-28 -3q-39 0 -38 28q0 8 4 25.5t4 26.5q0 20 -23 22q-14 -63 -12 -112q-6 -2 -22.5 0t-22.5 0q-12 -14 -33 -33 q-45 -14 -96 -15q-211 0 -422 172q-6 16 -23 45q-23 8 -55 33q0 18 -12 58q-25 31 -55 88q-4 25 4 54.5t6 47.5q0 6 -16.5 34t-16.5 34q-2 25 -2 43q0 53 29 73q14 10 86 29v33q-35 14 -103 35q-18 152 -10 202l23 45q0 72 10 224l14 -8q14 -9 21 -3q-14 53 -13 56 q12 20 36 24t32 10.5t7 22.5t5 23q27 12 68 32q-16 14 0 90q25 25 51 50v0q-2 0 -6 -4q0 12 10 34q16 10 80 35q74 27 90 21q2 -12 6 -35q2 -14 27 -10q-2 29 -12 67q29 4 79 10v13h11q131 14 180 -13q10 -20 35 -45q12 -4 43.5 1.5t46.5 -1.5q6 -14 22 -32q23 4 56 0 q4 -25 10 -56l90 -45v-45q10 -10 30.5 -10t26.5 -2v-23h-57l-4 -10t-6 -12q43 -12 123 -33q10 -18 22 -45q4 -14 -4 -23.5t-6 -21.5l10 -35q4 -8 12 -33q8 -35 13 -149q4 -131 10 -176zM438 1503q12 -10 19 -10l2 2q0 4 -31 53h-12q6 -18 22 -45zM932 987q0 4 2 17 q0 6 -12 6zM293 1020q-6 4 -4 13t-19 9v-22h23zM1012 166q16 29 -23 22q-8 -2 -8 -4q0 -6 31 -18zM977 178q4 20 -5 32.5t-18 22.5v23q0 -6 2 -6q4 0 11 18q-10 6 -6 49q6 57 6 62l-23 57q-4 43 4 125q8 94 8 131q0 59 -12 103q-4 16 -28.5 43.5t-28.5 35.5q-8 35 -43 91 q-16 14 -49 20q-41 8 -54 12q-4 12 -10 23q-63 27 -135 12q-18 -16 -45 -35q-33 -6 -33 2q0 6 21 11q2 0 -25 7t-43 3q-2 0 -88 -55q29 -20 23 -23q-16 -8 -35 -8q2 0 -78 18q4 -37 0 -100q-16 -8 -35 -23q-4 -14 4 -27.5t8 -17.5q-16 -10 -34 -22q-2 -18 -3 -37 q0 -27 9.5 -72t5.5 -71q0 -2 -17 -47q-10 -35 -6 -66l23 -45q0 -14 -14.5 -67.5t-19.5 -55.5t-5 -6q0 -10 27 -39q0 -4 20 -154q12 -86 47 -127q18 -6 45 -22q10 -31 45 -78q12 -8 35 -8t33 -4q20 -33 22 -33q37 6 113 10q6 -10 10 -22h80l10 35q12 -4 35 0q2 0 11.5 15 t11.5 17l86 54q53 35 69 69q6 16 7.5 41t5.5 39q28 45 55 90zM158 829q14 31 14 43q0 14 -14 13q-51 -4 -35 -56h35zM877 762q-14 0 -15 31q2 29 15 24v-55zM887 739q0 -18 -2 -60t-4 -63q-2 -27 -4 0q0 20 5 68.5t5 54.5zM883 575q0 -8 -17 -16q0 25 2 25q15 -1 15 -9z M893 530q0 -8 -16 -16v14q-2 10 4 11q12 -1 12 -9zM893 440q0 -6 -16 -16v14q-2 10 4 11q2 0 6 -2.5t6 -6.5zM922 346q-39 12 -39 19q2 4 16 4t16.5 -2t1.5 -9.5t5 -11.5zM348 852q4 -2 4 -8q0 -10 -14 -27l-2 17q-2 12 0 16q4 6 12 2zM338 672q-14 0 -14 30q0 31 14 27v-57 zM326 571q-14 0 -13 31q0 29 13 25v-56zM338 549q4 -2 4 -6q0 -10 -16 -29v25q0 16 12 10zM332 485q0 -6 -17 -16q0 25 2 25q4 0 8.5 -2.5t6.5 -6.5zM754 -2q-20 -4 -21 4q0 14 21 18v-22zM326 414q4 -2 4 -8q0 -10 -15 -27q1 41 11 35zM338 301q-14 0 -14 31q0 29 14 24 v-55zM360 268q4 -2 5 -6q0 -6 -17 -16v16q0 10 12 6zM561 -82q16 -2 23 -2h-43q-43 2 -13 2q17 6 33 0z" />
<glyph unicode="&#xdc;" horiz-adv-x="1341" d="M934 1548q-12 0 -12 -159q-31 -4 -91 0q-6 2 -25.5 23.5t-21.5 21.5q-23 -8 -67 -23q0 4 -23 23q4 14 10.5 51t4.5 37q-2 -2 -4 -9q-8 2 -9 5q0 4 52 6q47 2 59 0q-2 16 -10 35q-20 4 -68 12v33q16 10 45 34q6 0 55 -14q43 -10 58 -8q6 10 35 22q2 -27 12 -90zM934 1286 q-14 0 -14 45t14 45v-90zM768 1325q0 -8 -16 -16v14q-2 10 4 10q12 0 12 -8zM512 1501l-35 -10v-23q41 -18 41 -28l-2 -2q-6 2 -16 8q16 -37 0 -47q-25 -14 -72 -15q-31 0 -133 15q-2 27 -19 90q-14 57 -14 70q20 35 45 79q27 -4 103 -12v-22q12 0 12 6q-2 12 0 16 q68 0 67 0q-2 -33 0 -33q9 -26 23 -92zM455 1319q4 -2 4 -6q0 -10 -15 -27q1 39 11 33zM397 1104q-53 16 -53 26q0 6 31 9q29 2 28 -15q0 15 -6 -20zM330 1024q-39 25 -39 33q2 2 4 2q16 16 35 45v-45q2 -8 0 -35zM391 961q0 -6 -16 -17v14q-2 10 4 11q12 0 12 -8zM240 1217 q-4 -10 -13 -46q-57 8 -215 23v35q4 4 23 12q27 6 74 4q76 -4 73 -4v-24q21 4 58 0zM352 899q-41 29 -10 23q23 -4 23 -19q-1 -6 -13 -4zM250 967q4 -2 4 -6q0 -10 -14 -27l-2 14q-2 12 0 17q2 6 12 2zM422 729q-14 0 -14 31q0 29 14 24v-55zM426 676q0 -6 -16 -17v15 q-2 10 4 10q12 0 12 -8zM193 854l-33 10q6 63 10 45q25 12 12 15q-10 2 -22 0q10 -2 22 -2q23 2 23 -17q0 -8 -8 -28.5t-4 -22.5zM227 831q6 -2 6 -6q0 -8 -16 -18q0 28 10 24zM426 608q0 -6 -16 -16v14q-2 10 4 10q12 0 12 -8zM1194 227q-8 -23 -23 -57q-18 -55 -32 -55 v-25q27 -14 32 -29q6 -18 0 -61q-10 -70 -32 -115q-25 -14 -58 -45q4 -25 0 -57q-6 -6 -28 -2q-23 4 -29 2q-14 -4 -20 -29q-8 -31 -15 -39q-49 -63 -215 -102q-2 6 -6 22q-2 8 -16 13v-58q-43 -4 -97 -12q-45 -8 -61 -8q-47 0 -117 65q-12 -2 -45 -10v-22q-18 -4 -35.5 5 t-31.5 17q-102 29 -152 72q-33 27 -98 121q-20 16 -47 45q0 18 -11 57q-20 25 -45 68q-4 18 3.5 35.5t7.5 21.5l-23 23q-8 27 -4 73q4 80 4 76q20 0 20 4q-2 2 -10 7t-10 57v569q2 2 45 23q-2 2 0 32h-33q8 82 -12 230h23q8 -20 22 -47q-4 -4 -4 -7q0 -6 27 -4l34 68 q16 -2 45 0q18 -41 0 -45q-18 -2 -18 2q2 4 8 8q-41 -8 -41 -16q0 -6 41 -17q-2 -37 0 -34q8 -4 13 0q0 2 -3 10v12q10 0 53.5 -6t49.5 -4q-12 -6 -33 -23q-20 -31 -22 -56.5t-13 -31.5q-14 -12 -80 -26q8 -14 35 -35q-2 -10 -12 -56q10 -10 33.5 -9t34.5 -3l57 -67 q2 -6 -10.5 -47t-12.5 -46q6 -29 13 -79q-2 2 -8.5 -4.5t-6.5 -12.5t15 -6q-4 -53 4 -176q8 -133 6 -188q0 -8 -14 -74q-12 -57 -9 -74q14 -2 35 -10q6 -6 6 -37q0 -12 4 -21q18 -16 47 -45q82 -113 228 -137q23 -4 67 12h103q14 14 35 33q49 29 100 58q61 41 70 79 q-2 12 0 35q20 27 45 78q6 27 6 47t-6 45t-6 35q0 8 5 26.5t3 24.5q0 2 -2 4v17q2 10 2 14q-4 6 -13 4q4 193 9 385q4 250 36 400q39 -10 91 -23q8 14 16 27.5t31 17.5v25q-119 -18 -111 -19q-20 0 -39 6q-4 2 -12 15.5t-12 23.5q0 4 2 6q6 14 22 35q20 -2 58 0l12 23 q31 10 90 35q4 -8 17.5 -8.5t17.5 -4.5q4 -2 -13 -34q8 -2 23 -11v-80h-23q-2 -33 23 -57q2 -2 -23 -45q-2 -14 13 -102h-35v-35q20 -12 45 -45q4 -20 -23 -113q2 -2 23 -24q6 -31 0 -113q-4 -88 0 -125q2 -6 -4 -23.5t-6 -11.5q2 -33 0 -35q0 2 6 -25.5t4 -41.5 q0 -4 -12.5 -24.5t-10.5 -33.5l13 -12q12 -13 10 -33zM410 512q-14 0 -15 31q2 31 15 26v-57zM403 483q0 -8 -16 -16v14q-2 10 4 11q12 -1 12 -9zM422 444q4 -2 4 -8q0 -14 -16 -39v31q0 20 12 16zM819 -80q14 0 15 -4q0 -10 -27 -18v16q-2 6 12 6zM444 217q4 -2 5 -8 q0 -6 -17 -16v18q0 10 12 6zM877 1513q16 23 -23 23zM1092 922q0 -6 2 24q0 10 -13 10zM1024 887q33 -6 33 4q0 18 -45 31q14 -6 12 -35zM1069 739q10 25 10 39q0 10 -8 10q-4 0 -12 -4q8 -2 -12 -32q2 1 22 -13zM1047 569q0 -4 2 23q0 10 -13 10zM227 352q0 -6 2 29 q0 16 -12 16zM444 -319q-6 4 -4 14t-18 10v-24h22z" />
<glyph unicode="&#xdf;" horiz-adv-x="1609" d="M1243 1067q-20 2 -43.5 4t-23.5 10q0 4 8 11.5t8 9.5q0 4 -3 6l-3 2h16q10 -2 41 -43zM1298 944q-6 -23 -28 -55q-6 -4 -10 -6q-2 0 -3 10q2 8 0 10zM1298 819q6 -2 7 -10q0 -16 -21 -45q0 18 -2 37q2 26 16 18zM1505 322q0 -39 -6 -113q-8 -86 -8 -94q0 39 6 112 q8 87 8 95zM1491 88q6 -4 6 -10q0 -16 -20 -45v37q0 26 14 18zM821 618q0 -8 -20 -20q0 -2 0 18q0 12 6 13q14 -1 14 -11zM1284 74q-16 0 -16 55t16 55q0 1 0 -110zM829 571q6 -2 7 -16q0 -25 -21 -80q0 104 14 96zM1298 -63q-16 0 -16 32q0 39 16 35q0 1 0 -67zM1214 653 q-10 -8 -40 -14q23 -68 22 -197q0 -137 -22 -299q27 -14 26 -92q0 -53 -12 -114q-18 -33 -41 -84v-41q12 -2 41 -15q-25 4 -70 0v-26q-27 -20 -55 -56q4 -29 0 -84q-14 6 -14 21v35q-104 -63 -199 -82q-70 -14 -215 -15q-12 152 0 248q23 4 166 15v206l8 -88q6 -70 6 -104 h27q37 27 28 27q18 10 41 28q6 12 2 41q-2 35 -2 41q2 10 17 74q12 53 10 78l-27 28q-10 35 0 181q0 4 11 67q6 53 6 86q0 115 -113 148q-53 16 -207 16q-4 -47 -8 -64v0q-10 -37 -16 93q-4 90 -4 149v70h122q96 -2 140 14q76 27 76 166q0 129 -62 178q-68 55 -276 55 q6 0 -31 -6t-51 -6q10 2 -4.5 8.5t-24.5 3.5l-27 -26q-41 -16 -69 -17q6 0 -82 17q-33 6 -43 6q-2 0 -2 -2q0 -4 100 -33q-2 -43 0 -41q-25 -16 -55 -55q-10 -33 -10 -68q0 -29 13 -105.5t9 -129.5l-12 -207q-2 -43 12 -250q4 -51 -12 -248q-4 -43 -4 -84q0 -57 10 -153.5 t10 -149.5q0 -41 -4 -82q-12 -51 -27 -125q10 0 -118 -8q-80 -4 -117 8q-6 12 -27 27q-2 16 -14 43q-4 23 0 68q6 20 14 69q2 39 0 84q0 -4 9 0q8 4 8 8q-2 4 -17 5q0 41 11 135q6 78 2 127q0 8 -17 59q-12 43 -10 80q12 76 27 248v51q0 39 14 33q12 -4 18 -4q18 0 -45 59 q-6 18 13 539q35 37 28 41l-16 8l4 20q4 19 12 41q4 12 15 41l12 27l154 125q14 6 40.5 6t40.5 8q20 23 56 55h28l13 -43q14 6 43 0q20 25 41 49q29 31 53 35t55 4q117 0 252 -47q143 -49 164 -108q-4 -25 0 -56q16 -16 51 -18t45 -10v-41q4 -14 27.5 -36t28.5 -34 q8 -33 6 -96q-6 -100 -6 -96q-33 -8 -33 -13q0 -2 6 -2q37 -6 27 -69q-4 -18 -42 -74.5t-55 -63.5h-28q-8 -12 -8.5 -40.5t-4.5 -40.5q8 -8 66 -74q29 -33 57 -66q20 4 55 0zM815 446q0 -168 -12 -167q-2 2 -2 16q0 -5 14 151zM1288 -100q0 -12 -18 -33q0 -2 -2 24 q0 18 8 19q12 0 12 -10zM608 281q-2 -33 -4 -33q-2 111 4 143v-110zM600 205q0 -8 -20 -21l-2 19q0 10 6 10q16 0 16 -8zM1229 -395q-27 0 -94.5 6t-42.5 6t78 -6t59 -6zM608 33q4 -2 4 -10q0 -14 -18 -46q0 18 -2 37q2 27 16 19zM594 -37q6 -2 6 -14q0 -27 -20 -82v57 q0 45 14 39zM598 -252q0 -12 -18 -33q0 -2 -2 25q0 18 8 18q12 0 12 -10zM829 1495q41 0 41 14t-41 15v-29zM786 1483q12 31 13 49q0 25 -25 18q-6 -20 -14 -55q4 4 10 0zM911 1276q12 29 13 45q0 23 -27 10q-4 -16 -12 -43q-1 0 26 -12z" />
<glyph unicode="&#xe4;" horiz-adv-x="1323" d="M1122 1055q0 -8 -18 -19l-2 19q0 10 6 10q14 0 14 -10zM940 1325v-94q-2 -68 -25 -82q-2 -2 -4 -2q0 -2 9.5 -8t7.5 -15q-37 6 -76 13q-51 6 -88 0q-2 0 -19.5 -14.5t-33.5 -14.5q-10 0 -21 4q-6 12 -26 25q6 37 14 100q-12 0 -16 43q-4 39 2 57q2 4 26 13q4 10 12 39 q86 -14 101 -13q25 16 61 37q23 -4 51 -24q2 -6 3 -13q0 -6 -8.5 -13t-8.5 -13t2 -13zM991 1012q-10 0 -22 2q10 2 18 -2q10 -2 -8 -13q86 6 92 11q-12 2 -80 2zM903 1063q4 -2 4 -8q0 -10 -16 -31q0 -2 -2 16q-2 14 1 20.5t13 2.5zM1165 623q6 -2 6 -9q0 -6 -18 -16v18 q0 13 12 7zM1196 553q0 -8 -16 -18q0 29 4 28q4 0 8 -2t4 -8zM551 1024q-14 0 -14 35q0 33 14 28v-63zM477 1225q0 -4 -26 -25q14 0 14 -18q0 -12 -7 -35l-7 -23q-20 4 -49 7.5t-52 5.5q-4 -8 -12 -25q-80 -4 -113 31q-27 27 -31 84t-6 110q29 0 88 13l13 39q8 2 12 2 q6 0 10 -8.5t15 -6.5q4 0 10 12.5t14 12.5q84 8 101 -25q2 -2 4 -20q2 -20 -2 -21l-2 2q-2 -39 0 -37q10 -23 26 -51v-24zM1192 197q-16 0 -16 34q0 33 16 29v-63zM1180 172q4 -2 4 -6q0 -12 -19 -31v25q1 18 15 12zM1180 84q0 -16 -3 -62.5t-8 -66.5q-2 -27 -4 4 q1 8 15 125zM739 410l23 -2q-25 -2 -35 -2q-31 2 -57.5 3t-5.5 1h75zM1180 -117q4 -2 4 -8q0 -14 -19 -41v33q1 22 15 16zM1104 -193h-76q8 -66 8 -106q0 -41 -8 -107q-127 -14 -170 -14q-61 0 -80 14v39q-10 8 -26 25q-20 0 -62 -12q-12 -18 -39 -39q-25 2 -73 0 q-27 -18 -64 -37q-37 -6 -92 -1t-96 1l-13 37q-12 2 -34.5 -6.5t-34.5 -8.5q-10 0 -19 2l-12 25q-72 29 -115 76q-31 33 -73 112l-25 13q-23 59 -23 133q0 78 23 143q16 51 51 86q55 57 62 66q4 20 24 49q6 2 201 51q23 2 63.5 -6t49.5 -8q8 0 34.5 19.5t28.5 19.5 q14 0 51 -19.5t49 -19.5l13 26q27 10 67 11q57 0 70 2q16 68 16 114q0 158 -215 187q-8 0 -27.5 -6t-11.5 -6q-170 0 -200 -13q-14 -16 -37 -39q-20 -4 -76 -24q-45 37 -61 51q-41 37 -52 61q-2 27 -12 88q51 37 113 76q35 0 100 12l12 25q12 4 38 1t38 -1q8 6 18.5 15.5 t18.5 9.5q8 2 28.5 -11.5t22.5 -13.5q66 2 162 0l39 -25q18 -2 38.5 6.5t35.5 6.5l12 -25q43 -6 127 -39q16 -27 49 -61h25q6 -10 7 -32.5t7 -31.5l25 -12q4 -10 -4 -24l-9 -13q12 -8 20.5 -35.5t16.5 -52.5l12 -88q0 -4 -14 -43q-10 -25 -10 -45v-25q10 8 12 -63v-477 q51 -5 76 -13zM727 1300v19q-6 4 -12 6q-14 -2 -10 -12q2 -11 22 -13zM791 -4q-8 35 -12.5 77t-14.5 74q-8 2 -19 0q-2 -2 -6 13q-23 -6 -47 -11.5t-53 -1.5q-2 0 -25.5 13.5t-35.5 11.5t-23 -22q-14 -27 -16 -29q-12 6 -13 8q2 10 0 18q-100 4 -161 -12v-39q-14 -2 -15 13 q0 29 0 26q-18 0 -61 -14q-12 -23 -39 -49h-25q-29 -41 -28 -80q0 -82 102 -144q94 -59 207 -59q31 0 59 6q18 4 19 21q0 18 -19 18q-6 0 64 -4q41 -2 64.5 5t49.5 56q16 41 35 80q-27 6 -39 13zM377 84q4 -2 4 -8q0 -10 -16 -29q0 -2 -3 16q-2 12 1.5 18.5t13.5 2.5z M393 27q0 -8 -16 -19l-2 17q0 12 6 12q4 0 8 -2t4 -8z" />
<glyph unicode="&#xf6;" horiz-adv-x="1253" d="M952 1313q4 -18 4 -41q0 -33 -12 -80q-16 -66 -16 -68q-31 4 -150 0q-16 23 -26 52q-4 12 -13 24q-8 -6 -15 -11t-22 -1q-2 0 -10 11t-14 13q0 68 2 136q6 55 72 65q35 6 90 -2q37 -6 73 -10v-51q17 -14 37 -37zM739 1137q-16 -10 -37 -37q0 -2 -2 24q-2 18 1.5 29.5 t13.5 9.5q2 8 6 8q8 1 18 -34zM702 1075q6 -2 7 -8q0 -10 -19 -31q0 -2 -2 17q0 14 2 20t12 2zM502 1087q-16 0 -15 33q0 33 15 29v-62zM477 1163q-29 -23 -88 -51q-27 -4 -88 12l-25 -12q-43 14 -43 96q0 66 31 181h86q2 0 17.5 12t21.5 12q90 -2 90 -172q0 2 -2 -78z M539 1063q20 -4 20 -16q0 -10 -33 -11q2 4 0 13.5t0 11.5q3 2 13 2zM168 1169q0 -10 -18 -20v18q0 10 6 11q4 0 8 -2.5t4 -6.5zM1128 147l-24 -63q2 -43 -12 -125q-18 -16 -39 -39q0 -29 -13 -86q-16 -10 -36 -27q-164 -215 -353 -237q-88 -10 -186 12q-18 16 -51 37 q-33 0 -101 14q-31 12 -90 71.5t-73 90.5q0 23 -13 64l-49 12q-8 61 -39 188q-16 20 -37 50v38q6 2 25 -26q12 115 12 112q0 6 -13 41t-11 48q0 4 12 23.5t12 39.5q0 6 -7 18.5t-5 30.5l26 15q6 14 1 50t-1 50q18 16 37 37q0 27 13 76q12 23 61 57.5t64 54.5q8 27 26 62 q10 8 37 8t37 4q6 12 12 26q8 6 82 28t82 22q33 2 121 -6q96 -8 129 -19q16 -4 49 -34.5t51.5 -30.5t50.5 -11q18 -33 50 -73q18 -4 39 -15q6 -8 5 -29.5t7 -31.5q23 -10 49 -39q-2 -16 0 -49l27 -13q16 -59 16 -118q0 -25 -3 -71t-3 -73t2 -51q0 -10 13 -48t11 -65zM25 561 q4 -2 4 -10q0 -14 -17 -41v33q1 24 13 18zM0 348q-16 0 -16 33q2 33 16 29v-62zM0 209q-16 0 -16 35q2 33 16 28v-63zM879 135q2 10 2 29q0 39 -13 121q-16 98 -16 100q6 41 0 113q-2 12 -25.5 30.5t-23.5 20.5q-10 14 -15.5 44t-9.5 42q-35 2 -131 22q-84 18 -125 19 q-18 0 -32.5 -2t-62.5 -33t-50 -43v-25q-16 4 -39 0q0 -20 -12 -63q0 -2 -18.5 -12.5t-18.5 -12.5q-12 -39 12 -163q-25 -80 -25 -220q0 -74 13 -118q0 -2 17.5 -12.5t19.5 -12.5q51 -68 139 -100l12 -25q20 -4 33.5 5t28.5 7l26 -26q41 -8 113 14q16 18 49 49q8 6 24.5 6 t25.5 6.5t9 19.5t5 19q27 27 61 74q6 16 2 51t-2 50zM831 516q0 -8 -16 -18l-2 16q0 10 6 10q12 0 12 -8zM827 360q-2 -20 -2 -30v63q2 72 2 68v-101zM846 291q0 -8 -19 -19v17q-2 10 4 10q15 0 15 -8zM627 535q4 -2 4 -13q0 -20 -17 -61q1 80 13 74zM643 428q0 -12 -16 -31 v23q-2 16 6 16q2 0 6 -2t4 -6zM827 248q4 -4 4 -15q0 -20 -16 -61q0 82 12 76zM639 348q4 -2 4 -8q0 -12 -16 -31v27q0 18 12 12zM657 279q0 -8 -18 -19v16q-2 10 4 11q14 0 14 -8zM778 72q4 -2 4 -6q0 -12 -18 -31v24q0 19 14 13zM627 221q4 -2 4 -8q0 -14 -17 -41v33 q1 24 13 16z" />
<glyph unicode="&#xfc;" horiz-adv-x="1218" d="M905 1313h-37q18 -57 25 -152q-156 -20 -150 -20q-45 0 -114 33v100q31 18 30 24q0 2 -8 5.5t-10 9.5v24q6 2 12 2q8 0 27 -14q0 4 12.5 44t12.5 44q18 2 51 0q8 -2 8 -20q0 -16 -8 -17q20 8 21 21.5t3 15.5h101q8 -28 24 -100zM788 950v0v0q-4 -16 -4 -30q0 20 0 6 q0 25 -4 71q2 2 25 13q0 -4 7 -12.5t7 -10.5q0 -8 -13.5 -19.5t-17.5 -17.5zM492 1274q4 -2 4 -12q0 -20 -17 -62q1 80 13 74zM428 1149q-16 -12 -37 -25q-27 -6 -100 0q-80 4 -115 0q2 35 -24 213q37 0 36 0l-2 15q-2 16 -10 16q-4 0 -12 -6l-5 12q-5 12 -5 21q0 16 22 18 q25 2 43.5 -11t20.5 -13q20 -4 34.5 1t26.5 11l14 -51q-12 -6 -39 -37h39q4 16 13 18q23 4 24 6q-14 8 -8 33q4 14 8 31q80 -59 80 -123q0 -8 -2 -55q-4 -39 -2 -74zM811 713q0 -8 -18 -17v17q-2 10 4 10q14 0 14 -10zM809 649q0 -10 -16 -28v22q-2 16 6 16q10 0 10 -10z M780 506q-16 0 -14 35q0 33 14 28v-63zM352 885q-14 0 -14 51q0 49 14 49v-100zM289 985l-25 -37q-14 -2 -14 23q0 27 14 26q-6 -4 -6 -6q0 -6 31 -6zM252 1010q-25 -6 -64 -13v-36q-10 -2 -14 8q-2 12 2 25.5t12 15.5h64zM365 860q6 -2 6 -8q0 -10 -19 -31q0 14 -2 27 q1 18 15 12zM358 791q0 -8 -18 -19v16q-2 10 4 11q14 0 14 -8zM780 344q6 -2 6 -10q0 -14 -18 -41q0 -4 -2 20q0 16 2 25.5t12 5.5zM365 645q-14 0 -15 51q0 49 15 49v-100zM377 545q0 -143 -10 -144q-2 2 -2 17q-2 23 5 73t7 54zM1083 -135q2 -45 -39 -264q-2 0 -110 6 q-63 2 -117 -6q0 27 -12 75q-4 6 -25.5 7.5t-23.5 5.5q-51 -33 -101 -64q-66 -41 -114 -49q-33 -6 -66 -6q-113 0 -227 57q-100 51 -148 113q-12 16 -20 45t-17 43q-18 12 -38 37q2 31 0 88q-33 285 -25 416q0 2 12.5 43t12.5 45q4 27 -9 75q-14 59 -16 76q-10 133 12 213 l25 25q4 23 -4 36t-8 27q25 -2 52 1t29 3q25 0 19 -53q0 4 6 -8q6 -8 -6 -18q29 16 29 22q0 2 -2 4q4 14 12 37t12 37v-62h12v37h52q4 -31 12 -327q0 -6 7 -50.5t7 -68.5q0 -18 -2 -31q0 -2 -14 -19.5t-10 -43.5q0 -6 18 -28t18 -24q8 -39 9 -81q0 -33 -6.5 -91.5 t-6.5 -85.5q0 -53 17 -94q6 -10 61.5 -65.5t65.5 -59.5q41 -18 106 -18q127 0 183 43q10 25 38 63q23 4 50 25q6 14 2 49q-4 39 -2 51q12 6 24 13q0 43 -8 117.5t-8 111.5q0 33 4 61l26 25q8 35 0 164q0 12 -14 76q-14 57 -12 75l26 49q4 33 -14 152q12 10 51 12 q-6 -10 -12 -24q57 -12 64 -13q12 18 24 37q39 -6 100 -12q-4 -12 6.5 -22.5t6.5 -14.5q-6 -6 -37 -63q6 -2 49 -13q8 -29 6 -88q-6 -94 -6 -88q-16 0 -37 -12q-2 -4 -2 -21q0 -16 5 -18t34 -12q0 -291 -12 -553q-4 -88 0 -103zM528 180q12 0 -12 -12q47 4 73.5 7t14.5 5 q-15 2 -76 0zM377 356q4 -2 4 -8q0 -12 -16 -31v27q0 18 12 12zM580 -23q-25 0 -81.5 7.5t-33.5 7.5q13 -1 115 -15zM805 1262q12 14 12 20q0 12 -24 6q-6 -2 -7 -6q1 -8 19 -20z" />
<glyph unicode="&#x2000;" horiz-adv-x="929" />
<glyph unicode="&#x2001;" horiz-adv-x="1858" />
<glyph unicode="&#x2002;" horiz-adv-x="929" />
<glyph unicode="&#x2003;" horiz-adv-x="1858" />
<glyph unicode="&#x2004;" horiz-adv-x="619" />
<glyph unicode="&#x2005;" horiz-adv-x="464" />
<glyph unicode="&#x2006;" horiz-adv-x="309" />
<glyph unicode="&#x2007;" horiz-adv-x="309" />
<glyph unicode="&#x2008;" horiz-adv-x="232" />
<glyph unicode="&#x2009;" horiz-adv-x="371" />
<glyph unicode="&#x200a;" horiz-adv-x="103" />
<glyph unicode="&#x2010;" d="M1362 864q4 -2 4 -6q0 -10 -14 -24v20q0 14 10 10zM1219 915q-27 29 0 21q6 0 10 -6t2 -12q-2 -5 -12 -3zM1065 956q35 -2 -12 -2q-39 -2 -90 0q-53 2 -31 2q88 4 133 0zM768 946q4 -2 6 -6q0 -6 -16 -14v16t10 4zM1300 649q-88 -2 -133 0h-563q2 14 -4 25.5t-6 15.5 q14 16 31 41q-18 29 -62 82q20 12 41 31q47 2 123 0q8 0 53 -15.5t60 -15.5q16 10 61 21q68 -2 164 0v-21q23 -2 85 4t89 6q4 -8 12.5 -17t34.5 -50q31 -49 31 -78q-1 -21 -17 -29zM1157 813h-31l11 -41q16 4 17 16.5t3 24.5z" />
<glyph unicode="&#x2011;" d="M1362 864q4 -2 4 -6q0 -10 -14 -24v20q0 14 10 10zM1219 915q-27 29 0 21q6 0 10 -6t2 -12q-2 -5 -12 -3zM1065 956q35 -2 -12 -2q-39 -2 -90 0q-53 2 -31 2q88 4 133 0zM768 946q4 -2 6 -6q0 -6 -16 -14v16t10 4zM1300 649q-88 -2 -133 0h-563q2 14 -4 25.5t-6 15.5 q14 16 31 41q-18 29 -62 82q20 12 41 31q47 2 123 0q8 0 53 -15.5t60 -15.5q16 10 61 21q68 -2 164 0v-21q23 -2 85 4t89 6q4 -8 12.5 -17t34.5 -50q31 -49 31 -78q-1 -21 -17 -29zM1157 813h-31l11 -41q16 4 17 16.5t3 24.5z" />
<glyph unicode="&#x2012;" d="M1362 864q4 -2 4 -6q0 -10 -14 -24v20q0 14 10 10zM1219 915q-27 29 0 21q6 0 10 -6t2 -12q-2 -5 -12 -3zM1065 956q35 -2 -12 -2q-39 -2 -90 0q-53 2 -31 2q88 4 133 0zM768 946q4 -2 6 -6q0 -6 -16 -14v16t10 4zM1300 649q-88 -2 -133 0h-563q2 14 -4 25.5t-6 15.5 q14 16 31 41q-18 29 -62 82q20 12 41 31q47 2 123 0q8 0 53 -15.5t60 -15.5q16 10 61 21q68 -2 164 0v-21q23 -2 85 4t89 6q4 -8 12.5 -17t34.5 -50q31 -49 31 -78q-1 -21 -17 -29zM1157 813h-31l11 -41q16 4 17 16.5t3 24.5z" />
<glyph unicode="&#x2013;" horiz-adv-x="1736" d="M1582 864q5 -2 5 -6q0 -10 -18 -24v20q0 14 13 10zM1400 915q-35 29 0 21q7 0 12 -6t3 -12q-3 -5 -15 -3zM1203 956q45 -2 -15 -2q-50 -2 -115 0q-67 2 -39 2q112 4 169 0zM824 946q6 -2 8 -6q0 -6 -20 -14v16t12 4zM1503 649q-112 -2 -170 0h-718q3 14 -4.5 25.5 t-7.5 15.5q17 16 39 41q-23 29 -79 82q26 12 52 31q60 2 157 0q10 0 67.5 -15.5t76.5 -15.5q21 10 78 21q87 -2 209 0v-21q29 -2 108.5 4t113.5 6q5 -8 16 -17t44 -50q40 -49 40 -78q-2 -21 -22 -29zM1320 813h-39l14 -41q20 4 21.5 16.5t3.5 24.5z" />
<glyph unicode="&#x2014;" horiz-adv-x="2760" d="M2601 864q10 -2 10 -6q0 -10 -36 -24v20q0 14 26 10zM2236 915q-69 29 0 21q15 0 25.5 -6t5.5 -12q-5 -5 -31 -3zM1843 956q90 -2 -30 -2q-100 -2 -230 0q-135 2 -79 2q225 4 339 0zM1086 946q10 -2 15 -6q0 -6 -41 -14v16t26 4zM2443 649q-225 -2 -340 0h-1435 q5 14 -10.5 25.5t-15.5 15.5q36 16 79 41q-46 29 -158 82q51 12 105 31q119 2 313 0q21 0 135.5 -15.5t152.5 -15.5q41 10 156 21q173 -2 418 0v-21q59 -2 217 4t227 6q10 -8 32 -17t88 -50q79 -49 79 -78q-3 -21 -43 -29zM2078 813h-79l28 -41q41 4 43.5 16.5t7.5 24.5z " />
<glyph unicode="&#x201c;" horiz-adv-x="626" d="M428 1743q-10 0 -21.5 25.5t-11.5 41.5q0 8 4 9q9 -27 29 -76zM440 1657q-20 51 -20 61q0 6 6 4q12 -6 14 -65zM180 1847q16 -8 -2 -20q0 2 -4 10t-2 10q0 4 8 0zM471 1466q-10 -8 -35 -8q-43 -2 -47 -2q10 -2 -13 -6l-22 -4q-10 8 -26 20q-18 25 -31 86q-18 78 -25 95 q4 4 15 10l13 4t22 4q-6 8 -39 29q-2 29 10 78q4 4 14 5t12 3l54 -19q33 -86 49 -162q10 0 33 -10h-29q27 -82 27 -78q0 -12 -11 -16q-2 0 14.5 -13.5t14.5 -15.5zM203 1761q31 -92 30 -106v-2q-23 0 -28 49q-2 30 -2 59zM80 1837q14 -6 -4 -18q0 2 -3 9t-3 9q2 4 10 0z M113 1800q14 -8 -4 -20q0 2 -4.5 10t-2.5 10q1 4 11 0zM215 1466q-53 -29 -68 -28q-23 8 -63 18q-41 92 -88 219q12 6 31 19q2 2 2 6q0 14 -41 22q-6 20 -21 58q4 0 39 12q29 8 39 8q18 -4 51 -10q47 -187 119 -324z" />
<glyph unicode="&#x201e;" horiz-adv-x="745" d="M586 -152q-16 -43 -27 -75q-4 0 -4 8q0 16 11.5 41.5t19.5 25.5zM387 -123q2 -2 2 -4q0 -6 -18 -14q2 8 5 15t11 3zM543 -246q10 -8 -35 -67q8 20 14 41q13 30 21 26zM279 -133q2 -2 2 -4q0 -6 -19 -15q2 8 5.5 15.5t11.5 3.5zM285 -170q2 -2 2 -4q0 -6 -19 -16 q2 8 5.5 17t11.5 3zM346 -209q-35 -106 -45 -106h-2q0 12 20 51q25 47 27 55zM518 -209q-39 -104 -69 -162q10 -2 26 -10h-29q-10 -29 -21 -57.5t-32 -36.5q8 -14 8 -29l-90 -10q14 -4 -41 -8q-6 8 -12 18q2 25 31 86q39 80 45 94q2 2 20.5 9.5t42.5 11.5q0 6 -18 29 q18 29 65 75q12 0 33 9zM262 -180q-86 -180 -119 -324q-70 -29 -86 -28q-2 0 -22.5 8t-28.5 10q23 70 72 219q53 27 53 31q0 10 -27 18q0 8 10.5 27.5t10.5 28.5q84 20 92 20q12 0 45 -10z" />
<glyph unicode="&#x202f;" horiz-adv-x="371" />
<glyph unicode="&#x205f;" horiz-adv-x="464" />
<glyph unicode="&#x25fc;" horiz-adv-x="1013" d="M0 1014h1014v-1014h-1014v1014z" />
</font>
</defs>
</svg>
